<?xml version="1.0" standalone="no"?>
<!DOCTYPE svg PUBLIC "-//W3C//DTD SVG 20010904//EN"
 "http://www.w3.org/TR/2001/REC-SVG-20010904/DTD/svg10.dtd">
<svg version="1.0" xmlns="http://www.w3.org/2000/svg"
 width="832.000000pt" height="832.000000pt" viewBox="0 0 832.000000 832.000000"
 preserveAspectRatio="xMidYMid meet">
<metadata>
Created by potrace 1.14, written by Peter Selinger 2001-2017
</metadata>
<g transform="translate(0.000000,832.000000) scale(0.100000,-0.100000)"
fill="#000000" stroke="none">
<path d="M4088 8085 c-4 -4 -34 -10 -108 -20 -19 -2 -45 -7 -57 -10 -13 -3
-31 -7 -40 -9 -145 -34 -334 -142 -461 -264 -27 -26 -132 -126 -232 -222 -100
-96 -204 -195 -230 -220 -52 -50 -377 -361 -475 -455 -35 -33 -136 -130 -225
-215 -90 -85 -184 -175 -210 -200 -63 -61 -423 -405 -475 -455 -23 -22 -121
-115 -216 -207 -96 -91 -200 -191 -232 -222 -51 -48 -57 -58 -47 -76 6 -11 15
-20 20 -20 6 0 10 -6 10 -13 0 -9 -11 -12 -34 -9 -33 4 -34 3 -38 -37 -2 -23
0 -48 4 -56 5 -7 4 -16 -1 -20 -6 -3 -7 -15 -2 -27 4 -12 5 -38 1 -59 -4 -20
-3 -44 2 -52 5 -9 4 -18 -1 -22 -7 -3 -7 -15 -1 -29 5 -13 6 -26 3 -30 -5 -4
-7 -168 -2 -192 1 -5 0 -13 -1 -19 -4 -24 -2 -104 4 -113 3 -6 2 -13 -3 -17
-6 -3 -7 -16 -3 -28 6 -20 7 -54 2 -82 -2 -12 -1 -209 1 -221 1 -5 0 -13 -1
-19 -4 -24 -2 -104 4 -113 3 -6 2 -13 -4 -17 -6 -4 -8 -11 -5 -16 9 -13 12
-90 4 -95 -4 -2 -3 -20 1 -39 4 -19 5 -35 1 -35 -8 0 -5 -76 4 -89 3 -5 1 -12
-4 -15 -4 -3 -6 -20 -4 -38 8 -60 9 -100 2 -104 -4 -2 -3 -19 1 -38 4 -19 5
-37 2 -40 -7 -8 -6 -102 2 -114 3 -6 2 -13 -4 -17 -6 -4 -8 -11 -5 -16 9 -13
12 -90 4 -95 -4 -2 -3 -20 1 -39 4 -19 5 -35 1 -35 -8 0 -5 -76 4 -89 3 -5 1
-12 -4 -15 -4 -3 -6 -20 -4 -38 5 -35 6 -86 3 -103 -2 -12 -1 -209 1 -222 1
-4 0 -12 -1 -18 -4 -24 -2 -104 4 -113 3 -6 2 -13 -3 -17 -6 -3 -7 -16 -3 -28
6 -20 7 -53 2 -82 -4 -28 -1 -265 4 -274 4 -5 2 -12 -3 -16 -6 -3 -7 -15 -2
-27 4 -12 5 -38 1 -59 -4 -20 -3 -44 2 -52 5 -9 4 -18 -1 -22 -7 -3 -7 -15 -1
-29 5 -13 6 -26 3 -30 -5 -4 -7 -168 -2 -192 1 -5 0 -13 -1 -19 -4 -24 -2
-104 4 -113 3 -6 2 -13 -3 -17 -6 -3 -7 -16 -3 -28 6 -20 7 -53 2 -82 -4 -28
-1 -265 4 -274 4 -5 2 -12 -3 -16 -6 -3 -7 -15 -2 -28 4 -12 4 -35 1 -52 -3
-16 -3 -40 1 -52 5 -13 4 -25 -2 -28 -5 -4 -7 -10 -4 -15 3 -5 8 -44 10 -87 5
-86 13 -152 20 -163 2 -4 7 -21 10 -39 3 -18 12 -51 21 -74 8 -23 16 -46 18
-52 15 -50 64 -147 109 -215 64 -96 127 -163 245 -261 32 -27 164 -104 212
-123 99 -40 115 -46 150 -52 14 -3 43 -10 64 -15 40 -11 181 -21 266 -19 25 0
56 0 70 -1 14 0 32 0 40 0 53 4 111 2 120 -4 5 -3 10 -1 10 5 0 6 5 8 11 5 6
-4 34 -7 62 -6 29 1 63 1 77 0 14 0 32 0 40 0 53 4 111 2 120 -4 5 -3 10 -1
10 5 0 6 5 8 11 5 6 -4 34 -7 62 -6 29 1 63 1 77 0 14 0 32 0 40 0 53 4 111 2
120 -4 5 -3 10 -1 10 5 0 6 5 8 11 5 9 -6 36 -7 119 -4 8 0 93 -1 188 -2 95
-1 175 1 178 4 3 3 19 1 35 -3 16 -5 31 -5 34 0 3 5 18 5 33 2 15 -4 41 -6 57
-5 56 6 124 5 135 -2 5 -3 10 -1 10 5 0 6 5 8 11 5 6 -4 34 -7 62 -6 122 3
147 2 156 -3 5 -4 12 -2 16 4 4 6 11 8 16 4 8 -5 219 -6 471 -3 26 0 52 -2 58
-6 5 -3 10 -1 10 5 0 6 5 8 11 5 6 -4 34 -7 62 -6 29 1 63 1 77 0 14 0 32 0
40 0 53 4 111 2 120 -4 5 -3 10 -1 10 5 0 6 5 8 11 5 6 -4 34 -7 62 -6 29 1
63 1 77 0 14 0 32 0 40 0 53 4 111 2 120 -4 5 -3 10 -1 10 5 0 6 5 8 11 5 6
-4 34 -7 62 -6 29 1 63 1 77 0 14 0 32 0 40 0 53 4 111 2 120 -4 5 -3 10 -1
10 5 0 6 5 8 11 5 9 -6 36 -7 119 -4 31 1 366 0 390 -2 14 0 32 0 40 0 8 1 24
1 35 1 11 -1 25 -1 30 -2 6 0 37 3 70 6 443 45 808 365 920 805 9 35 19 78 23
95 3 17 7 374 9 792 l4 761 -26 -4 c-22 -5 -25 -2 -25 25 l0 31 -51 -4 c-109
-8 -257 -53 -321 -97 -14 -10 -31 -18 -37 -18 -6 0 -11 -4 -11 -9 0 -5 -8 -12
-17 -15 -27 -9 -135 -114 -181 -177 -68 -91 -132 -243 -149 -354 -1 -11 -5
-101 -7 -200 -3 -99 -7 -196 -11 -215 -26 -146 -89 -290 -170 -389 -21 -26
-91 -93 -140 -135 -37 -32 -202 -115 -241 -122 -16 -3 -47 -10 -69 -16 -46
-12 -123 -14 -805 -23 -272 -4 -637 -9 -810 -11 -333 -5 -414 -5 -427 -3 -4 1
-10 1 -13 0 -7 -3 -534 -10 -900 -12 -330 -2 -349 0 -479 41 -222 72 -420 249
-521 465 -48 104 -67 157 -75 215 -2 8 -6 31 -10 50 -9 38 -13 3030 -5 3030 6
0 76 -66 318 -299 90 -86 189 -181 221 -211 32 -30 138 -132 237 -227 98 -94
208 -200 244 -234 36 -34 141 -134 233 -223 310 -297 468 -447 496 -469 43
-34 139 -97 149 -97 6 0 12 -4 14 -8 4 -11 138 -66 208 -86 227 -64 486 -44
700 55 62 29 174 96 213 129 30 25 313 293 502 475 45 44 156 150 245 235 90
85 215 205 279 266 64 61 139 133 167 160 355 338 529 507 562 547 118 144
202 321 238 507 13 69 13 314 -1 391 -34 195 -134 402 -255 533 -44 48 -150
153 -260 257 -30 28 -136 129 -234 223 -98 94 -200 191 -226 216 -26 25 -130
124 -231 221 -101 97 -211 202 -244 234 -123 117 -400 381 -429 410 -49 48
-152 135 -160 135 -4 0 -16 8 -26 18 -45 42 -254 131 -342 146 -15 3 -32 7
-37 11 -6 3 -58 8 -116 10 -58 2 -109 7 -114 9 -5 3 -10 3 -13 1z m281 -195
c84 -24 226 -90 259 -120 11 -11 25 -20 30 -20 4 0 38 -28 74 -62 192 -181
304 -288 385 -366 50 -48 170 -163 268 -257 98 -93 206 -197 241 -230 64 -62
143 -138 448 -429 278 -264 352 -342 405 -423 61 -92 123 -246 136 -338 4 -22
8 -51 11 -65 6 -34 5 -175 -2 -230 -12 -101 -49 -222 -94 -310 -73 -142 -106
-178 -804 -841 -60 -57 -139 -133 -176 -169 -58 -56 -201 -192 -466 -445 -34
-33 -129 -124 -211 -202 -152 -145 -243 -223 -261 -223 -6 0 -12 -4 -14 -9 -4
-11 -148 -84 -148 -75 0 4 -6 2 -12 -3 -11 -9 -43 -20 -83 -28 -86 -19 -137
-24 -225 -23 -148 2 -271 34 -400 105 -93 51 -131 82 -289 233 -38 36 -151
144 -252 241 -101 97 -202 194 -225 215 -81 77 -398 380 -459 439 -34 33 -138
132 -230 220 -93 88 -194 185 -225 215 -68 66 -238 229 -460 440 -89 85 -205
196 -257 247 l-96 91 65 64 c70 68 171 164 453 433 98 94 201 193 230 220 58
56 352 337 449 430 35 33 148 141 252 241 104 99 233 223 288 275 54 52 131
126 171 164 396 383 487 464 590 520 52 29 130 61 167 70 123 29 154 32 268
29 90 -2 146 -8 199 -24z"/>
</g>
</svg>
