<svg width="389" height="270" viewBox="0 0 389 270" fill="none" xmlns="http://www.w3.org/2000/svg">
<path d="M95.8208 33.2029C61.038 33.2029 32.7294 60.3357 32.7294 93.6892C32.7294 127.06 61.0185 154.177 95.7888 154.177C99.1523 154.177 102.548 153.932 105.921 153.438C144.608 147.845 168.298 109.2 176.326 93.6892C168.315 78.2135 144.624 39.5179 105.921 33.9477C102.563 33.4352 99.1676 33.2029 95.8208 33.2029ZM212.709 93.6892C220.72 109.183 244.378 147.844 283.096 153.438C286.473 153.932 289.882 154.177 293.211 154.177C327.997 154.177 356.255 127.06 356.255 93.6892C356.255 60.3371 327.98 33.2029 293.211 33.2029C289.85 33.2029 286.44 33.4352 283.079 33.9463C244.41 39.5179 220.736 78.1966 212.709 93.6892ZM293.211 187.383C288.317 187.383 283.374 187.003 278.446 186.289C237.394 180.338 209.936 150.427 194.517 127.44C179.099 150.426 151.607 180.371 110.559 186.289C105.663 187.003 100.7 187.383 95.7888 187.383C70.2727 187.366 46.2724 177.726 28.2447 160.247C10.0155 142.603 0 118.941 0 93.6878C0 68.4263 10.0155 44.7966 28.2614 27.1188C46.289 9.638 70.2727 0 95.8208 0C100.699 0 105.661 0.375946 110.557 1.07011C151.606 7.0275 179.099 36.9553 194.516 59.9246C209.935 36.9539 237.394 7.0261 278.444 1.07011C283.355 0.375946 288.315 0 293.21 0C318.727 0 342.712 9.6732 360.741 27.1188C378.966 44.7952 389 68.4249 389 93.6878C389 118.941 378.966 142.603 360.773 160.247C342.73 177.726 318.762 187.366 293.211 187.383Z" fill="#9CA3AF"/>
<path d="M126.983 84.5254H69.4241V103.341H126.983V84.5254Z" fill="#9CA3AF"/>
<path d="M319.038 84.5266H299.558V64.7832H280.973V84.5266H261.493V103.346H280.973V123.107H299.558V103.346H319.038V84.5266Z" fill="#9CA3AF"/>
<path d="M28.4077 246.68L33.2673 226.804L38.5508 246.68H28.4077ZM26.364 213.973L9.54541 268.21H23.1201L25.8583 257.098H41.2293L44.1982 268.21H58.2952L41.2293 213.973H26.364Z" fill="#9CA3AF"/>
<path d="M87.0261 240.265H80.0269V224.903H86.7816C92.9319 224.903 94.6616 227.367 94.6616 232.163C94.6629 238.164 91.6246 240.265 87.0261 240.265ZM108.759 232.095C108.759 221.645 103.163 213.973 88.3292 213.973H66.7954V268.21H80.0269V251.029H86.7024L94.7588 268.21H110.394L99.9519 248.351C105.773 245.193 108.759 239.52 108.759 232.095Z" fill="#9CA3AF"/>
<path d="M137.738 257.098H132.73V224.903H136.582C148.46 224.903 149.504 230.575 149.504 241.174C149.504 250.335 148.69 257.098 137.738 257.098ZM137.007 213.973H119.48V268.21H137.068C159.816 268.21 163.651 253.41 163.651 240.579C163.651 223.547 156.992 213.973 137.007 213.973Z" fill="#9CA3AF"/>
<path d="M202.886 247.073C202.886 255.345 200.636 258.09 194.598 258.09C189.591 258.09 186.471 256.023 186.471 247.012V213.974H173.227V249.508C173.227 265.929 184.903 269.053 194.075 269.053C203.523 269.053 215.595 265.613 215.595 249.59V213.973H202.885V247.073H202.886Z" fill="#9CA3AF"/>
<path d="M227.473 225.052H241.326V257.098H227.473V268.21H268.475V257.098H254.574V225.052H268.475V213.973H227.473V225.052Z" fill="#9CA3AF"/>
<path d="M311.208 246.532L293.847 213.973H279.425V268.21H291.955L291.873 233.502L310.146 268.21H323.575V213.973H311.208V246.532Z" fill="#9CA3AF"/>
<path d="M354.849 258.126C347.196 258.126 346.446 252.636 346.446 241.722C346.446 228.477 347.687 224.21 354.767 224.21C362.598 224.21 363.675 227.864 363.675 241.143C363.676 253.661 362.599 258.126 354.849 258.126ZM354.768 213.297C338.55 213.297 332.383 225.351 332.383 241.722C332.383 259.663 339.464 269.089 354.849 269.089C372.062 269.089 377.74 256.802 377.74 241.143C377.74 220.424 370.006 213.297 354.768 213.297Z" fill="#9CA3AF"/>
<path d="M372.128 6.59766H374.917L375.977 10.2853L377.185 14.6192L378.409 10.1684L379.453 6.59766H382.081V17.3099H379.845V11.6708L379.177 14.4207L378.378 17.3099H375.93L375.083 14.4657L374.137 11.2104V17.3099H372.131V6.59766H372.128ZM367.935 8.84487H366.5V6.59766H371.753V8.84487H370.284V17.3113H367.935V8.84487Z" fill="#9CA3AF"/>
</svg>
