<svg width="131" height="91" viewBox="0 0 131 91" fill="none" xmlns="http://www.w3.org/2000/svg">
<g clip-path="url(#clip0_259_2972)">
<path d="M119.907 9.33789H93.6337C92.2961 9.33789 91.2117 10.4243 91.2117 11.7643V49.4021C91.2117 50.7422 92.2961 51.8285 93.6337 51.8285H119.907C121.245 51.8285 122.329 50.7422 122.329 49.4021V11.7643C122.329 10.4243 121.245 9.33789 119.907 9.33789Z" stroke="#CCDDE2" stroke-miterlimit="10"/>
<path d="M118.773 13.7156H95.0865C94.4177 13.7156 93.8755 14.2588 93.8755 14.9288V19.9756C93.8755 20.6457 94.4177 21.1889 95.0865 21.1889H118.773C119.442 21.1889 119.984 20.6457 119.984 19.9756V14.9288C119.984 14.2588 119.442 13.7156 118.773 13.7156Z" stroke="#CCDDE2" stroke-miterlimit="10"/>
<path d="M106.77 16.8633C107.197 16.8633 107.542 16.5173 107.542 16.0905C107.542 15.6637 107.197 15.3176 106.77 15.3176C106.344 15.3176 105.999 15.6637 105.999 16.0905C105.999 16.5173 106.344 16.8633 106.77 16.8633Z" fill="#D7E8F0"/>
<path d="M104.615 19.5878C104.615 19.015 104.842 18.4657 105.246 18.0608C105.65 17.6557 106.199 17.4282 106.77 17.4282C107.342 17.4282 107.891 17.6557 108.295 18.0608C108.699 18.4657 108.926 19.015 108.926 19.5878H104.615Z" fill="#D7E8F0"/>
<path d="M106.928 29.1987C106.106 29.199 105.303 29.4434 104.619 29.901C103.936 30.3586 103.404 31.0089 103.089 31.7697C102.775 32.5304 102.693 33.3675 102.853 34.175C103.014 34.9824 103.41 35.7241 103.991 36.3062C104.572 36.8883 105.313 37.2846 106.119 37.4452C106.925 37.6057 107.761 37.5232 108.52 37.2079C109.279 36.8928 109.928 36.3593 110.385 35.6746C110.841 34.99 111.085 34.1852 111.085 33.3619C111.085 32.8151 110.977 32.2735 110.768 31.7684C110.559 31.2631 110.253 30.8041 109.867 30.4175C109.481 30.0309 109.023 29.7243 108.518 29.5152C108.014 29.3061 107.474 29.1984 106.928 29.1987ZM106.928 36.5204C106.772 36.5127 106.624 36.4451 106.517 36.3318C106.409 36.2185 106.349 36.068 106.349 35.9116C106.349 35.755 106.409 35.6045 106.517 35.4912C106.624 35.3779 106.772 35.3104 106.928 35.3028C107.084 35.3104 107.231 35.3779 107.339 35.4912C107.446 35.6045 107.506 35.755 107.506 35.9116C107.506 36.068 107.446 36.2185 107.339 36.3318C107.231 36.4451 107.084 36.5127 106.928 36.5204ZM107.695 31.8381C107.567 32.7407 107.459 33.6885 107.19 34.5664C107.126 34.7778 106.73 34.7778 106.666 34.5664C106.476 33.9064 106.33 33.2346 106.229 32.5555C106.146 32.0612 105.858 31.2606 106.133 30.7809C106.376 30.3434 107.06 30.2997 107.457 30.5242C107.945 30.7998 107.753 31.389 107.695 31.8381Z" fill="#D7E8F0"/>
<path d="M61.4569 17.7735C59.9999 17.3382 58.4468 17.3457 56.9939 17.7946C55.5411 18.2438 54.254 19.1143 53.295 20.2963C52.3361 21.4784 51.7486 22.9186 51.607 24.4352C51.4652 25.9516 51.7754 27.4761 52.4987 28.8159C53.2218 30.1557 54.3253 31.2507 55.6697 31.9621C57.0139 32.6736 58.5386 32.9697 60.051 32.8131C61.5633 32.6564 62.9953 32.054 64.1659 31.082C65.3363 30.1101 66.1929 28.8121 66.6271 27.3525C66.9156 26.3833 67.0107 25.3668 66.9069 24.3609C66.8032 23.3551 66.5027 22.3795 66.0226 21.49C65.5424 20.6005 64.8922 19.8145 64.1088 19.1769C63.3254 18.5391 62.4243 18.0622 61.4569 17.7735ZM57.5952 30.7515C57.3177 30.6597 57.0867 30.4631 56.9513 30.2034C56.8161 29.9438 56.7871 29.6415 56.8707 29.3608C56.9542 29.0801 57.1436 28.8432 57.3987 28.7001C57.6539 28.5571 57.9546 28.5193 58.2372 28.5948C58.3824 28.6336 58.5184 28.7013 58.637 28.7936C58.7558 28.886 58.8548 29.0014 58.9281 29.1328C59.0015 29.2642 59.0479 29.4091 59.0644 29.5587C59.081 29.7083 59.0673 29.8598 59.0243 30.0042C58.9814 30.1484 58.9099 30.2827 58.8143 30.3989C58.7187 30.515 58.6008 30.6108 58.4674 30.6805C58.3342 30.7502 58.1884 30.7924 58.0386 30.8046C57.8887 30.8167 57.738 30.7988 57.5952 30.7515ZM61.4234 22.8568C60.7204 24.3894 60.0275 26.0124 59.0945 27.4254C58.8703 27.7666 58.1673 27.5566 58.1658 27.1483C58.1778 25.8794 58.275 24.6128 58.4569 23.357C58.5705 22.4398 58.4817 20.8678 59.2226 20.162C59.8805 19.5306 61.1148 19.8019 61.7043 20.4085C62.4132 21.1492 61.764 22.0927 61.4234 22.8568Z" fill="#0CCCE7"/>
<path d="M39.9869 34.8242C39.4539 35.3677 39.0936 36.0573 38.9518 36.8057C38.8099 37.5542 38.8927 38.3281 39.19 39.0295C39.487 39.7309 39.985 40.3282 40.6211 40.746C41.257 41.1637 42.0023 41.3834 42.7628 41.3768C43.5234 41.3702 44.2648 41.1381 44.8936 40.7094C45.5223 40.2807 46.0101 39.6749 46.2951 38.9686C46.5802 38.2622 46.6498 37.487 46.4952 36.741C46.3406 35.995 45.9686 35.3118 45.4264 34.7775C44.6987 34.0613 43.7171 33.6638 42.697 33.6725C41.677 33.6813 40.7022 34.0955 39.9869 34.8242ZM44.8107 39.5736C44.759 39.6264 44.6974 39.6684 44.6295 39.6972C44.5615 39.7262 44.4886 39.7414 44.4148 39.7421C44.341 39.7427 44.2677 39.7289 44.1993 39.7012C44.1309 39.6736 44.0686 39.6326 44.0159 39.5809C43.9632 39.5291 43.9213 39.4674 43.8925 39.3993C43.8635 39.3314 43.8484 39.2582 43.8477 39.1842C43.8471 39.1103 43.8609 39.0369 43.8886 38.9684C43.9161 38.8999 43.957 38.8375 44.0086 38.7847C44.113 38.6781 44.2555 38.6176 44.4046 38.6161C44.5536 38.6148 44.697 38.6728 44.8034 38.7774C44.9098 38.8819 44.9702 39.0247 44.9717 39.174C44.973 39.3233 44.915 39.467 44.8107 39.5736ZM42.2241 36.0316C42.735 36.7024 43.2896 37.3892 43.6928 38.1358C43.7903 38.3151 43.5341 38.5732 43.3536 38.4828C42.7977 38.1788 42.2628 37.8379 41.7525 37.4621C41.3726 37.1982 40.6594 36.8686 40.5211 36.3743C40.3959 35.9368 40.8122 35.4498 41.211 35.3346C41.7016 35.1917 41.965 35.7006 42.2241 36.0316Z" fill="#0CCCE7"/>
<path d="M96.4868 24.5256H116.788" stroke="#CCDDE2" stroke-miterlimit="10"/>
<path d="M96.4868 26.5273H116.788" stroke="#CCDDE2" stroke-miterlimit="10"/>
<path d="M96.4868 39.4182H116.788" stroke="#CCDDE2" stroke-miterlimit="10"/>
<path d="M101.201 41.3125H112.072" stroke="#CCDDE2" stroke-miterlimit="10"/>
<path d="M122.331 36.79C124.121 39.0444 125.824 41.8384 127.364 45.2812C136.741 66.2589 125.02 76.9053 125.02 76.9053" stroke="#9F9F9F" stroke-miterlimit="10"/>
<path d="M24.392 53.4242C24.392 53.4242 10.4781 37.6129 27.8286 29.7838C45.1791 21.9546 48.6143 20.8668 47.3625 12.7228C46.1107 4.57869 55.9504 -3.71413 71.4246 1.76581C86.8989 7.24574 87.2089 17.5727 86.1114 25.5564C85.4884 30.1075 88.0663 31.2011 91.2059 30.9722" stroke="#9F9F9F" stroke-miterlimit="10"/>
<path d="M121.349 83.7284C121.314 84.6013 121.089 85.4558 120.689 86.2321C120.673 86.2708 120.654 86.3082 120.633 86.3444C119.932 87.6071 118.95 88.6917 117.764 89.5145L117.722 89.5437C116.652 90.261 115.448 90.7546 114.182 90.9946C114.182 91.0063 114.182 90.9946 114.182 90.9946H127.652C127.652 90.9946 125.85 65.25 109.288 52.724C93.2611 40.6034 78.2555 46.445 77.3035 46.8358C77.5984 47.6699 77.7303 48.5531 77.6922 49.4373C77.6922 49.4373 78.8974 50.0657 79.0983 52.3157C79.2991 54.5658 79.7184 60.8215 75.6879 61.9997C75.6879 61.9997 72.0693 61.9107 71.113 60.5196C70.1567 59.1285 69.9267 59.4114 69.5511 59.7642C69.26 60.0311 67.5031 60.9848 66.6924 61.4222C66.7949 61.4272 66.8966 61.4413 66.9966 61.4645C66.9966 61.4645 67.4609 65.39 73.1421 71.5422C73.3345 71.7453 73.5163 71.9585 73.6864 72.1809C74.5442 72.9323 75.5084 73.6993 76.5787 74.4819L83.0618 79.2342C83.2081 79.3589 83.3816 79.4473 83.5684 79.4923C83.9311 79.5839 84.3103 79.5874 84.6746 79.5025C85.4286 79.3567 90.577 78.8303 93.9088 78.4978C93.9845 78.4978 94.0645 78.4832 94.1388 78.4745L94.5755 78.4322C94.6453 78.4322 94.721 78.4176 94.7821 78.4132L95.1751 78.3753C95.3673 78.3564 95.5405 78.3374 95.7006 78.3243L96.1373 78.282C96.523 78.2441 96.7515 78.2207 96.7705 78.2207C97.5642 78.1981 98.3554 78.1212 99.1387 77.9904C99.8883 77.8445 100.572 77.6098 100.75 77.2204C100.784 77.1383 100.796 77.0489 100.786 76.9609C100.746 76.7131 100.643 76.4801 100.487 76.2843C99.8024 75.3641 98.2129 74.5752 98.0965 74.5184C98.0931 74.5172 98.0897 74.5172 98.0863 74.5184L98.0543 74.495L88.593 67.1311H88.5828C88.5828 67.1311 90.0078 51.9016 102.993 55.6492C102.993 55.6492 103.054 55.6915 103.166 55.7848C103.673 56.1756 105.267 57.4705 107.61 59.8897C107.671 59.9553 107.737 60.0209 107.802 60.0909C108.051 60.3446 108.296 60.6085 108.539 60.8667C110.184 62.6282 112.13 64.8723 114.277 67.6706L114.291 67.6852C116.751 70.8933 118.524 73.833 119.677 76.4344V76.4432C120.924 79.2707 121.45 81.6927 121.346 83.6249C121.35 83.6593 121.351 83.6938 121.349 83.7284ZM82.1841 57.5522C81.7998 53.1148 83.9555 51.5079 84.0764 51.4189C81.0109 56.9747 86.6964 65.4906 86.8958 65.8202C86.7328 65.6831 82.5684 61.988 82.1841 57.5522Z" fill="#353642"/>
<path d="M74.0416 56.6815C73.8821 56.799 73.7159 56.9071 73.5438 57.0052L72.5453 55.2554C74.848 54.0757 75.4943 51.9963 74.4812 50.8545C74.198 50.5421 73.8328 50.3158 73.4274 50.2012C72.4085 49.8921 71.7025 50.347 71.2236 50.958C70.8328 51.4891 70.5462 52.0899 70.3794 52.7283L69.8932 47.1113L69.8554 46.6738C69.8554 46.6738 68.7957 46.1474 65.9253 46.617C63.0549 47.0865 62.5266 48.6745 61.2937 47.9702C60.0608 47.2658 59.3621 47.3227 59.3621 47.3227C59.0113 48.6132 58.0725 48.6132 58.0725 48.6132C57.8501 48.5863 57.6316 48.533 57.4218 48.4543C56.09 47.2279 55.729 45.1004 55.729 45.1004C57.1264 44.9269 57.2341 43.5795 57.074 42.4756C57.8483 42.9364 58.94 42.9685 60.4727 41.9828C64.87 39.1655 69.3794 40.6908 70.9645 40.9256C71.672 41.0291 72.4463 40.7798 73.0882 40.4881C73.1712 40.637 73.2866 40.765 73.4259 40.8629C74.4959 41.6096 75.3784 42.5949 76.0038 43.7414C80.1303 51.4684 75.6064 55.5718 74.0416 56.6815Z" fill="#0CCCE7"/>
<path d="M57.5689 90.997H59.2283C59.938 90.9963 60.6183 90.7134 61.1202 90.2108C61.622 89.708 61.9044 89.0264 61.9051 88.3154V86.4547C61.9051 86.2851 61.8717 86.1172 61.8068 85.9606C61.7421 85.8038 61.647 85.6615 61.5272 85.5416C61.4074 85.4217 61.2654 85.3268 61.1089 85.2621C60.9524 85.1972 60.7847 85.1641 60.6154 85.1642H50.6913C50.6917 85.5603 50.614 85.9525 50.4629 86.3184C50.3118 86.6844 50.09 87.0169 49.8104 87.2969C49.5308 87.5768 49.1988 87.7988 48.8334 87.9501C48.4681 88.1013 48.0765 88.1789 47.6812 88.1783H11.8201C11.8205 88.9258 12.117 89.6425 12.6447 90.171C13.1722 90.6996 13.8876 90.9966 14.6337 90.997H63.25C63.3135 90.9972 63.3765 90.9848 63.4352 90.9606C63.4938 90.9362 63.5473 90.9007 63.5922 90.8556C63.6371 90.8107 63.6727 90.7572 63.6969 90.6984C63.7211 90.6396 63.7334 90.5765 63.7333 90.5129V87.493C63.7333 86.9062 63.9659 86.3436 64.38 85.9288C64.7941 85.5139 65.3558 85.2809 65.9414 85.2809C66.527 85.2809 67.0887 85.5139 67.5028 85.9288C67.9169 86.3436 68.1495 86.9062 68.1495 87.493V90.5129C68.1494 90.5764 68.1616 90.6393 68.1858 90.6981C68.2099 90.7567 68.2453 90.8101 68.2901 90.8552C68.3348 90.9001 68.3881 90.9358 68.4466 90.9601C68.5051 90.9845 68.5678 90.997 68.6313 90.997H127.652C127.652 90.997 125.85 65.2466 109.289 52.7221C93.2612 40.6015 78.2556 46.4431 77.3036 46.8339L77.2571 46.8514" stroke="black" stroke-miterlimit="10"/>
<path d="M60.7086 53.1362C60.708 53.298 60.6596 53.4562 60.5695 53.5905C60.4792 53.7248 60.3514 53.8295 60.2019 53.8911C60.0524 53.9527 59.8882 53.9686 59.7297 53.9367C59.5712 53.9049 59.4258 53.8268 59.3117 53.7123C59.1974 53.5977 59.1197 53.4517 59.0883 53.2929C59.0567 53.1341 59.0728 52.9696 59.1347 52.82C59.1964 52.6704 59.3011 52.5425 59.4353 52.4524C59.5696 52.3623 59.7275 52.314 59.8891 52.3137C59.9524 52.314 60.0155 52.3219 60.0769 52.3371C59.9922 52.3639 59.9182 52.4171 59.8658 52.489C59.8134 52.5609 59.7853 52.6477 59.7858 52.7366C59.7853 52.7925 59.796 52.8479 59.8171 52.8996C59.838 52.9512 59.869 52.9984 59.9083 53.038C59.9475 53.0777 59.9942 53.1093 60.0456 53.1309C60.097 53.1525 60.1521 53.1637 60.2079 53.1639C60.3098 53.1618 60.4079 53.1242 60.4849 53.0573C60.562 52.9905 60.6134 52.8986 60.63 52.7978C60.6802 52.9037 60.707 53.0191 60.7086 53.1362Z" fill="black"/>
<path d="M66.3867 53.3652C66.387 53.5279 66.3391 53.6871 66.249 53.8226C66.1591 53.9579 66.031 54.0637 65.8809 54.1261C65.731 54.1886 65.5659 54.2051 65.4066 54.1735C65.2472 54.142 65.1007 54.0637 64.9858 53.9487C64.8709 53.8338 64.7926 53.6873 64.7607 53.5276C64.729 53.3681 64.7451 53.2027 64.8072 53.0522C64.8693 52.9019 64.9745 52.7734 65.1096 52.683C65.2446 52.5925 65.4034 52.5442 65.5658 52.5442C65.605 52.5439 65.6441 52.5484 65.6822 52.5573C65.6096 52.5909 65.5482 52.6445 65.5051 52.712C65.4619 52.7794 65.439 52.8579 65.4392 52.9379C65.4342 53.0502 65.4738 53.1597 65.5493 53.2425C65.625 53.3254 65.7304 53.3748 65.8424 53.3798C65.9543 53.3849 66.0636 53.3451 66.1464 53.2694C66.2291 53.1935 66.2785 53.0881 66.2834 52.9758C66.3507 53.0947 66.3862 53.2287 66.3867 53.3652Z" fill="black"/>
<path d="M72.9355 39.333C72.8409 39.9717 72.9588 40.5317 73.4275 40.8641C74.4975 41.6109 75.38 42.5962 76.0053 43.7426C80.9281 52.957 73.544 57.0123 73.544 57.0123L72.5454 55.2624C75.4202 53.7926 75.7142 50.9141 73.4275 50.2083C71.1408 49.5025 70.3795 52.7354 70.3795 52.7354L69.8555 46.6765C69.8555 46.6765 68.7959 46.1501 65.9255 46.6197C63.0551 47.0892 62.5267 48.6772 61.2938 47.9729C60.0609 47.2686 59.3623 47.3254 59.3623 47.3254C59.0115 48.6159 58.0726 48.6159 58.0726 48.6159C55.3216 48.2645 54.6753 44.4513 54.6753 44.4513C56.0712 44.2763 56.1789 42.9289 56.0202 41.8265C56.7932 42.2873 57.8863 42.3209 59.419 41.3337C63.8163 38.5164 68.3257 40.0432 69.9094 40.2779C71.004 40.4369 72.2601 39.7661 72.9355 39.333Z" stroke="black" stroke-linecap="round" stroke-linejoin="round"/>
<path d="M75.474 85.0271L76.5613 84.5896L77.3764 86.7929L77.2483 90.7913L76.1465 90.9911L71.9646 90.8103C71.9646 90.8103 72.2557 88.3722 73.1451 87.2129C74.0344 86.0536 75.474 85.0271 75.474 85.0271Z" fill="#0CCCE7"/>
<path d="M56.4336 49.9634C56.4336 49.9634 57.5471 47.9612 59.8906 48.1698" stroke="black" stroke-miterlimit="10"/>
<path d="M64.48 48.1697C64.48 48.1697 67.1582 47.5675 68.0956 49.0593" stroke="black" stroke-miterlimit="10"/>
<path d="M68.6298 57.2341C68.6298 57.2341 67.0287 56.3052 65.8569 57.867" stroke="black" stroke-miterlimit="10"/>
<path d="M58.5122 48.4915C58.5122 48.4915 57.3724 61.923 65.8716 61.6751C67.3271 61.6328 68.774 60.6748 70.1568 59.1334" stroke="black" stroke-miterlimit="10"/>
<path d="M73.5439 60.3547L70.1567 59.1327C70.1567 59.1327 70.9966 61.8217 75.1566 62.0273C79.3167 62.2329 80.7126 52.6685 77.6559 48.8203" stroke="black" stroke-linejoin="round"/>
<path d="M86.7868 87.2988C86.7868 87.2988 83.6821 89.823 85.7912 90.9968" stroke="black" stroke-miterlimit="10"/>
<path d="M84.385 84.9502C84.385 84.9502 78.9993 88.0037 83.6237 90.9974" stroke="black" stroke-miterlimit="10"/>
<path d="M82.5684 82.6021C82.5684 82.6021 75.4201 85.9559 80.928 90.9969" stroke="black" stroke-miterlimit="10"/>
<path d="M112.629 90.9976C112.629 90.9976 121.302 90.9976 121.418 82.6027C121.534 74.2078 104.602 53.128 93.6441 50.1956C82.6865 47.2631 82.2163 55.2993 82.2163 55.6288C82.2163 55.9584 81.5729 59.4202 84.3851 63.1138C86.5568 65.969 96.1491 73.0967 100.405 76.1939C100.562 76.3079 100.68 76.4667 100.744 76.6496C100.808 76.8323 100.815 77.0302 100.763 77.217C100.712 77.4038 100.606 77.5706 100.458 77.6953C100.31 77.8198 100.127 77.8964 99.9351 77.9146L81.1115 79.7257H81.0999C80.9223 79.7578 74.279 80.9856 72.2558 83.0708C72.2558 83.0708 71.1219 83.9122 71.7085 85.2042C72.2951 86.4961 74.0971 86.0703 74.1466 86.0222" stroke="black" stroke-miterlimit="10"/>
<path opacity="0.26" d="M65.5674 54.891C66.8617 54.891 67.9108 53.8399 67.9108 52.5433C67.9108 51.2466 66.8617 50.1956 65.5674 50.1956C64.2731 50.1956 63.2239 51.2466 63.2239 52.5433C63.2239 53.8399 64.2731 54.891 65.5674 54.891Z" fill="white"/>
<path opacity="0.26" d="M59.6198 54.659C60.9141 54.659 61.9633 53.608 61.9633 52.3113C61.9633 51.0147 60.9141 49.9636 59.6198 49.9636C58.3255 49.9636 57.2764 51.0147 57.2764 52.3113C57.2764 53.608 58.3255 54.659 59.6198 54.659Z" fill="white"/>
<path d="M79.877 84.6577C79.0532 84.4273 77.7067 84.2202 76.3196 84.6664C75.6413 84.8853 75.0154 85.2422 74.4812 85.7149C74.3647 85.8169 74.2527 85.9205 74.1449 86.024C73.9128 86.2521 73.6936 86.493 73.4885 86.7458C73.4615 86.7792 73.4231 86.8015 73.3808 86.8085C72.864 86.88 69.4623 87.4195 69.4798 89.1416C69.4958 90.6888 71.1872 90.9425 71.7694 90.9833C71.7935 90.9855 71.8176 90.9828 71.8405 90.9752C71.8633 90.9674 71.8844 90.9552 71.9023 90.939C71.9202 90.9228 71.9346 90.9031 71.9445 90.8811C71.9546 90.8593 71.9598 90.8353 71.9601 90.8113C71.9601 90.2601 72.0853 88.5321 73.4463 86.7939" stroke="black" stroke-miterlimit="10"/>
<path d="M49.2285 72.5032C49.6273 75.7243 47.1281 77.1811 44.396 77.3969" stroke="black" stroke-miterlimit="10"/>
<path d="M40.4252 76.7242C39.3834 76.1605 38.5396 75.2897 38.0079 74.2298C37.4763 73.1699 37.2826 71.9719 37.4529 70.7981C37.8896 67.6994 40.5096 65.3225 43.0744 63.8148C48.46 60.649 60.5966 62.9398 62.6359 63.4065C64.1992 63.7652 65.5063 62.5403 66.0361 61.9482C66.0587 61.9232 66.0878 61.9049 66.1202 61.896C66.1527 61.887 66.1871 61.8876 66.2192 61.8975C66.2514 61.9076 66.2801 61.9265 66.3018 61.9523C66.3234 61.9781 66.3374 62.0095 66.3418 62.043C67.4611 68.605 80.4609 77.5117 83.4681 79.505" stroke="black" stroke-miterlimit="10"/>
<path d="M52.5078 70.2754L48.2037 72.9512C47.9472 73.1112 47.66 73.2156 47.3609 73.2576C47.0616 73.2996 46.757 73.2781 46.4664 73.1949C46.1759 73.1116 45.906 72.9683 45.6743 72.7742C45.4424 72.5799 45.2539 72.3392 45.1207 72.0675C44.8807 71.5795 44.8331 71.0188 44.9874 70.4972C45.1417 69.9754 45.4867 69.5313 45.9533 69.2532L52.5034 65.3438" stroke="black" stroke-miterlimit="10"/>
<path d="M65.5674 54.891C66.8617 54.891 67.9108 53.8399 67.9108 52.5433C67.9108 51.2466 66.8617 50.1956 65.5674 50.1956C64.2731 50.1956 63.2239 51.2466 63.2239 52.5433C63.2239 53.8399 64.2731 54.891 65.5674 54.891Z" stroke="black" stroke-miterlimit="10"/>
<path d="M59.6199 54.3075C60.7204 54.3075 61.6126 53.4138 61.6126 52.3112C61.6126 51.2087 60.7204 50.3149 59.6199 50.3149C58.5193 50.3149 57.6272 51.2087 57.6272 52.3112C57.6272 53.4138 58.5193 54.3075 59.6199 54.3075Z" stroke="white" stroke-miterlimit="10"/>
<path d="M59.6198 54.659C60.9141 54.659 61.9633 53.608 61.9633 52.3113C61.9633 51.0147 60.9141 49.9636 59.6198 49.9636C58.3255 49.9636 57.2764 51.0147 57.2764 52.3113C57.2764 53.608 58.3255 54.659 59.6198 54.659Z" stroke="black" stroke-miterlimit="10"/>
<path d="M63.2356 52.311H61.9634" stroke="black" stroke-miterlimit="10"/>
<path d="M63.2356 55.6285H62.3972C62.3445 55.6285 62.2924 55.6169 62.2446 55.5945C62.1969 55.572 62.1547 55.5392 62.121 55.4985C62.0873 55.4578 62.0631 55.4103 62.0499 55.3591C62.0368 55.3079 62.035 55.2546 62.0449 55.2027L62.5995 52.311" stroke="black" stroke-miterlimit="10"/>
<path d="M46.4133 63.6416C46.4133 63.6416 43.425 64.2876 42.3712 68.808C41.7307 71.5524 40.8515 75.0535 40.2606 77.3808C40.1847 77.6793 40.178 77.9912 40.2408 78.2928C40.3037 78.5943 40.4345 78.8775 40.6232 79.1207C40.812 79.364 41.0536 79.5608 41.3297 79.6961C41.606 79.8316 41.9093 79.902 42.2169 79.902C42.676 79.902 43.1215 79.7454 43.4797 79.4577C43.8381 79.1702 44.0877 78.7687 44.1877 78.3199L45.4381 72.7" stroke="black" stroke-miterlimit="10"/>
<path d="M49.1455 74.2082C49.1455 74.2082 52.2823 72.3301 58.4612 74.2082C64.6401 76.0864 71.7434 77.3609 74.0869 72.3796" stroke="black" stroke-miterlimit="10"/>
<path d="M76.3213 84.6658C76.3213 84.6658 78.5047 87.1622 77.1772 90.9973" stroke="black" stroke-miterlimit="10"/>
<path d="M4.17248 53.6218H38.6697C39.7809 53.6204 40.8602 53.9935 41.7338 54.6812C42.6075 55.369 43.2248 56.3313 43.4862 57.4132L48.9781 80.1991C49.1263 80.8138 49.1333 81.4544 48.9986 82.0723C48.864 82.6903 48.5911 83.2696 48.2005 83.7666C47.8098 84.2635 47.3119 84.6653 46.7439 84.9414C46.176 85.2176 45.5528 85.3611 44.9214 85.3611H10.513C9.40397 85.3621 8.3267 84.99 7.45408 84.3043C6.58152 83.6187 5.96406 82.6592 5.70083 81.58L0.120146 58.7985C-0.0305504 58.1829 -0.039604 57.5412 0.0936543 56.9217C0.226912 56.3023 0.499004 55.7212 0.889346 55.2226C1.2797 54.7239 1.77811 54.3207 2.34688 54.0434C2.91566 53.766 3.53991 53.622 4.17248 53.6218Z" fill="#0CCCE7"/>
<path d="M5.42871 54.6023H37.795C38.8376 54.6036 39.8496 54.9553 40.669 55.6013C41.4885 56.2472 42.0679 57.1498 42.3145 58.1647L47.4702 79.5405C47.6093 80.1172 47.6162 80.718 47.4898 81.2978C47.3636 81.8776 47.1077 82.4211 46.7414 82.8872C46.375 83.3536 45.9079 83.7304 45.375 83.9895C44.8421 84.2486 44.2576 84.3832 43.6653 84.3832H11.3777C10.3382 84.381 9.32937 84.0305 8.51177 83.3877C7.69403 82.7448 7.1145 81.8462 6.86537 80.8354L1.62528 59.4581C1.48379 58.8805 1.47526 58.2784 1.60035 57.697C1.72543 57.1158 1.98085 56.5706 2.34728 56.1028C2.71371 55.635 3.18154 55.2567 3.71539 54.9967C4.24925 54.7369 4.83514 54.6019 5.42871 54.6023Z" fill="#0CCCE7"/>
<path d="M4.17248 53.6218H38.6697C39.7809 53.6204 40.8602 53.9935 41.7338 54.6812C42.6075 55.369 43.2248 56.3313 43.4862 57.4132L48.9781 80.1991C49.1263 80.8138 49.1333 81.4544 48.9986 82.0723C48.864 82.6903 48.5911 83.2696 48.2005 83.7666C47.8098 84.2635 47.3119 84.6653 46.7439 84.9414C46.176 85.2176 45.5528 85.3611 44.9214 85.3611H10.513C9.40397 85.3621 8.3267 84.99 7.45408 84.3043C6.58152 83.6187 5.96406 82.6592 5.70083 81.58L0.120146 58.7985C-0.0305504 58.1829 -0.039604 57.5412 0.0936543 56.9217C0.226912 56.3023 0.499004 55.7212 0.889346 55.2226C1.2797 54.7239 1.77811 54.3207 2.34688 54.0434C2.91566 53.766 3.53991 53.622 4.17248 53.6218Z" stroke="black" stroke-miterlimit="10"/>
<path d="M20.3294 68.7985L18.2726 59.1933C18.23 58.9901 18.1188 58.8079 17.9579 58.6771C17.7971 58.5461 17.5964 58.4747 17.3891 58.4744H7.21169C7.07477 58.4748 6.93975 58.5063 6.81682 58.5667C6.69389 58.627 6.58627 58.7145 6.50212 58.8227C6.41797 58.9309 6.3595 59.0569 6.33112 59.1911C6.30275 59.3252 6.30521 59.4642 6.33834 59.5972L8.71821 69.3147C8.74776 69.4501 8.81078 69.576 8.90161 69.6807C8.98312 69.7845 9.08691 69.8683 9.20539 69.9262C9.32388 69.9841 9.45401 70.0143 9.58573 70.0146H9.60466L19.4546 69.8979C19.5876 69.896 19.7185 69.8647 19.838 69.8062C19.9575 69.7477 20.0627 69.6636 20.146 69.5596C20.2308 69.4542 20.2912 69.3313 20.323 69.1998C20.3547 69.0681 20.3569 68.931 20.3294 68.7985ZM7.01809 59.4251C7.01071 59.3964 7.01002 59.3664 7.01607 59.3372C7.02213 59.3082 7.03477 59.2809 7.05303 59.2574C7.0717 59.2331 7.09572 59.2132 7.12323 59.1997C7.15073 59.186 7.18099 59.1788 7.21169 59.1787H17.3891C17.4349 59.1785 17.4795 59.1941 17.515 59.2232C17.5507 59.2522 17.575 59.2926 17.5841 59.3376L19.1503 66.6534C13.9204 61.5949 13.328 67.3986 13.328 67.3986C10.3761 65.8587 9.52314 67.5444 9.2757 68.6541L7.01809 59.4251Z" fill="#D7E8F0"/>
<path d="M9.95702 62.9123C10.5247 62.7359 10.794 61.982 10.5611 61.2281C10.3282 60.4742 9.67755 60.0076 9.1055 60.184C8.53346 60.3605 8.26855 61.1144 8.50289 61.8668C8.73724 62.6192 9.3908 63.0888 9.95702 62.9123Z" fill="#D7E8F0"/>
<path d="M12.4488 62.7403H15.7879C16.2028 62.7403 16.6191 62.7403 17.0339 62.7403H17.0936C17.2103 62.7435 17.3265 62.7216 17.4342 62.6761C17.5086 62.6392 17.5719 62.5831 17.6174 62.5137C17.6631 62.4441 17.6895 62.3638 17.694 62.2807C17.6984 62.1976 17.6808 62.1149 17.6428 62.0408C17.6048 61.9669 17.5479 61.9043 17.4779 61.8595C17.3994 61.8238 17.3279 61.7745 17.2668 61.7137C17.2263 61.6497 17.1985 61.5784 17.1853 61.5037C17.1081 61.2927 16.9592 61.1156 16.7646 61.0036C16.623 60.9082 16.4637 60.8424 16.2961 60.8101C16.1285 60.7777 15.9562 60.7796 15.7894 60.8155C15.6248 60.8572 15.4741 60.9416 15.3527 61.0605C15.2494 61.1625 15.229 61.2996 15.1489 61.4133C15.0965 61.4877 15.063 61.4644 14.9917 61.4235C14.9204 61.3827 14.8811 61.3521 14.8229 61.3229C14.708 61.2614 14.5888 61.2083 14.4663 61.164C14.2166 61.0714 13.9504 61.0322 13.6846 61.0488C13.2174 61.0852 12.7516 61.3638 12.5886 61.8041C12.4417 61.8062 12.3002 61.8606 12.1899 61.9575C12.0794 62.0545 12.0071 62.1879 11.986 62.3335C11.9763 62.3896 11.98 62.4473 11.9966 62.5017C12.0133 62.5563 12.0426 62.606 12.082 62.647C12.1881 62.7234 12.3191 62.7566 12.4488 62.7403Z" fill="#D7E8F0"/>
<path d="M36.3874 62.5327L36.1196 61.4288C35.94 60.6868 35.5165 60.0268 34.9171 59.5549C34.3179 59.083 33.5777 58.8268 32.8154 58.8274H29.1372C28.7175 58.827 28.3034 58.9235 27.927 59.1096C27.5507 59.2956 27.2223 59.5661 26.9673 59.9002C26.7125 60.2341 26.5379 60.6226 26.4573 61.0351C26.3767 61.4476 26.3922 61.8734 26.5026 62.279L26.8068 63.4003C27.0011 64.1218 27.4274 64.7589 28.0197 65.2132C28.6121 65.6674 29.3373 65.9133 30.0833 65.9128H33.7397C34.1526 65.9125 34.5602 65.8182 34.9315 65.6371C35.3028 65.4558 35.6283 65.1926 35.8832 64.8671C36.1382 64.5417 36.3161 64.1624 36.4034 63.758C36.4907 63.3537 36.4852 62.9347 36.3874 62.5327ZM32.3423 62.8054L31.0862 63.5797C31.0378 63.6105 30.983 63.6297 30.9259 63.6357C30.8689 63.6417 30.8112 63.6344 30.7575 63.6142C30.7038 63.5943 30.6555 63.5619 30.6162 63.52C30.577 63.478 30.548 63.4276 30.5316 63.3726L30.0585 61.824C30.0387 61.7553 30.0387 61.6823 30.0587 61.6136C30.0786 61.5449 30.1176 61.4832 30.1711 61.436C30.2246 61.3886 30.2906 61.3574 30.361 61.3462C30.4316 61.3348 30.5038 61.3438 30.5694 61.372L32.3118 62.1434C32.3741 62.1715 32.4275 62.2161 32.4662 62.2725C32.5048 62.329 32.5272 62.3949 32.531 62.4633C32.5348 62.5317 32.5196 62.5996 32.4875 62.66C32.4551 62.7204 32.407 62.7707 32.3482 62.8054H32.3423Z" fill="white"/>
<path d="M35.5663 72.4487H29.1312C28.8366 72.4482 28.5485 72.3619 28.3019 72.2003C28.0554 72.0389 27.861 71.809 27.7425 71.5387C27.7059 71.4556 27.6861 71.3658 27.6843 71.2748C27.6859 71.099 27.7565 70.9308 27.8811 70.8069C28.0057 70.6829 28.174 70.6132 28.3495 70.6128H35.1907C34.8691 71.1582 35.0321 71.912 35.5663 72.4487Z" fill="#D7E8F0"/>
<path d="M39.7352 71.7866C39.7348 71.9622 39.6651 72.1303 39.5412 72.2544C39.4175 72.3785 39.2495 72.4484 39.0744 72.4487H35.5664C35.0322 71.912 34.8692 71.1582 35.1909 70.6128H38.2796C38.5738 70.6129 38.8614 70.6987 39.108 70.8594C39.3544 71.0201 39.549 71.249 39.6683 71.5183C39.7086 71.6023 39.7313 71.6936 39.7352 71.7866Z" fill="#0CCCE7"/>
<path d="M38.1181 72.4487C38.0999 72.4838 38.0789 72.5175 38.0555 72.5493C37.5955 73.1778 36.5999 73.2361 35.827 72.6703C35.7347 72.6032 35.6475 72.5292 35.5664 72.4487C35.0322 71.9121 34.8692 71.1582 35.1909 70.6128C35.2089 70.5781 35.2299 70.545 35.2535 70.5136C35.7091 69.8808 36.7091 69.8254 37.4776 70.3868C37.5708 70.4556 37.6588 70.5311 37.7411 70.6128C38.2796 71.1494 38.4354 71.9033 38.1181 72.4487Z" fill="white"/>
<path d="M41.3464 75.8411C41.3448 76.017 41.2742 76.1851 41.1496 76.309C41.025 76.433 40.8568 76.5027 40.6812 76.5031H15.1766C15.5026 75.9548 15.3396 75.2039 14.804 74.6687H39.8996C40.1939 74.6686 40.482 74.7544 40.7283 74.9159C40.9747 75.0771 41.1687 75.307 41.2868 75.5772C41.3245 75.6601 41.3448 75.75 41.3464 75.8411Z" fill="#0CCCE7"/>
<path d="M15.1766 76.4956H11.9991C11.7049 76.4957 11.4172 76.4101 11.1706 76.2493C10.9241 76.0886 10.7295 75.8595 10.6105 75.59C10.5731 75.5056 10.5533 75.4142 10.5522 75.3217C10.5521 75.2348 10.569 75.1488 10.6022 75.0684C10.6354 74.9881 10.684 74.9152 10.7454 74.8538C10.8068 74.7922 10.8798 74.7437 10.9601 74.7106C11.0403 74.6776 11.1263 74.6608 11.2131 74.6611H14.804C15.3396 75.1963 15.5027 75.9473 15.1766 76.4956Z" fill="#D7E8F0"/>
<path d="M15.1766 76.4955C15.1616 76.5313 15.1421 76.5652 15.1184 76.5961C14.6628 77.2289 13.6628 77.2829 12.8928 76.7215C12.8001 76.6527 12.7124 76.5771 12.6308 76.4955C12.0995 75.9589 11.9365 75.2093 12.2538 74.661C12.2714 74.6256 12.2924 74.5919 12.3164 74.5604C12.7763 73.9319 13.772 73.8736 14.5449 74.4379C14.6372 74.5052 14.7238 74.5798 14.804 74.661C15.3396 75.1962 15.5026 75.9472 15.1766 76.4955Z" fill="white"/>
<path d="M17.4269 80.5075H13.3892C13.0951 80.5072 12.8074 80.4216 12.5609 80.2608C12.3145 80.1001 12.1199 79.8713 12.0006 79.602C11.9605 79.5206 11.9377 79.4317 11.9336 79.341C11.934 79.1648 12.004 78.996 12.1285 78.8713C12.2528 78.7466 12.4214 78.6765 12.5973 78.676H17.047C16.737 79.2272 16.8957 79.9767 17.4269 80.5075Z" fill="#0CCCE7"/>
<path d="M42.7307 79.855C42.7284 80.03 42.6569 80.1968 42.5319 80.319C42.407 80.4412 42.2387 80.5087 42.0641 80.5068H17.4269C16.8956 79.9702 16.7326 79.2206 17.0499 78.6724H41.2839C41.5782 78.6722 41.8662 78.7581 42.1125 78.9195C42.359 79.0808 42.553 79.3106 42.671 79.5808C42.7096 79.6671 42.7298 79.7605 42.7307 79.855Z" fill="#D7E8F0"/>
<path d="M19.9771 80.5072C19.9595 80.5427 19.9385 80.5764 19.9145 80.6079C19.4589 81.2407 18.4589 81.2947 17.6904 80.7333C17.5972 80.6646 17.5092 80.589 17.4269 80.5072C16.8956 79.9706 16.7326 79.2211 17.0499 78.6728C17.0681 78.6378 17.0891 78.6041 17.1125 78.5722C17.5725 77.9437 18.5681 77.8883 19.341 78.4497C19.4336 78.5166 19.5202 78.5913 19.6001 78.6728C20.1358 79.2138 20.2988 79.9677 19.9771 80.5072Z" fill="white"/>
<g opacity="0.21">
<path opacity="0.21" d="M20.6817 69.15L18.6294 59.5448C18.5869 59.3417 18.4758 59.1594 18.3148 59.0288C18.154 58.8981 17.9529 58.827 17.7458 58.8274H7.56696C7.42911 58.8274 7.29316 58.859 7.1695 58.92C7.04583 58.9808 6.9378 59.0695 6.85372 59.1788C6.77035 59.286 6.71258 59.4108 6.68482 59.5437C6.65706 59.6767 6.66007 59.8143 6.69361 59.9458L9.07348 69.6648C9.10259 69.8001 9.16504 69.9261 9.25543 70.0308C9.33723 70.1345 9.44145 70.2183 9.56008 70.2759C9.67886 70.3335 9.80913 70.3632 9.94101 70.3632H9.9643L19.8127 70.2451C19.9455 70.2435 20.0762 70.2125 20.1954 70.1543C20.3148 70.0961 20.4197 70.012 20.5027 69.9083C20.5864 69.8029 20.6458 69.6802 20.6768 69.5491C20.7076 69.4182 20.7094 69.2818 20.6817 69.15ZM7.369 59.7781C7.36158 59.7493 7.36099 59.7191 7.3674 59.6899C7.37366 59.6609 7.38676 59.6336 7.40539 59.6104C7.42358 59.586 7.44731 59.566 7.47467 59.5524C7.50189 59.5387 7.53202 59.5316 7.56259 59.5317H17.74C17.7858 59.5314 17.8304 59.5469 17.8662 59.5755C17.902 59.6042 17.9267 59.6443 17.9365 59.6892L19.5027 67.005C14.2714 61.945 13.6804 67.7501 13.6804 67.7501C10.7299 66.2103 9.8755 67.896 9.62951 69.0057L7.369 59.7781Z" fill="#D7E8F0"/>
<path opacity="0.21" d="M10.3091 63.2637C10.8754 63.0873 11.1461 62.3334 10.9118 61.581C10.6774 60.8285 10.0297 60.359 9.45618 60.5354C8.88268 60.7119 8.61922 61.4658 8.85211 62.2197C9.08501 62.9735 9.75021 63.446 10.3091 63.2637Z" fill="#D7E8F0"/>
<path opacity="0.21" d="M12.8071 63.0928H16.1448C16.5611 63.0928 16.9759 63.0928 17.3922 63.0928H17.4504C17.5673 63.0962 17.6833 63.0743 17.791 63.0287C17.8659 62.9921 17.9295 62.9361 17.9753 62.8667C18.0213 62.7971 18.0479 62.7165 18.0523 62.6333C18.0568 62.5501 18.0389 62.4671 18.0006 62.393C17.9625 62.319 17.9052 62.2565 17.8347 62.2121C17.757 62.1752 17.6858 62.1259 17.6236 62.0662C17.5843 62.0012 17.5568 61.9296 17.5421 61.8548C17.465 61.6445 17.3167 61.4681 17.1229 61.3561C16.9813 61.2604 16.8216 61.1944 16.6538 61.162C16.486 61.1296 16.3133 61.1317 16.1462 61.168C15.9844 61.21 15.8366 61.2946 15.7183 61.413C15.6135 61.515 15.5946 61.6507 15.5145 61.7659C15.4621 61.8402 15.4286 61.8169 15.3573 61.7746C15.286 61.7323 15.2467 61.7046 15.1885 61.674C15.0736 61.6129 14.9544 61.5604 14.8318 61.5165C14.5822 61.4236 14.316 61.3838 14.0502 61.3998C13.583 61.4363 13.1172 61.7163 12.9527 62.1552C12.8058 62.1577 12.6646 62.2124 12.5544 62.3096C12.4443 62.4069 12.3724 62.5405 12.3515 62.686C12.3421 62.7421 12.3459 62.7996 12.3622 62.854C12.3786 62.9082 12.4073 62.9581 12.4462 62.9995C12.5512 63.0733 12.6795 63.1065 12.8071 63.0928Z" fill="#D7E8F0"/>
<path opacity="0.21" d="M36.7455 62.8843L36.4777 61.7819C36.2978 61.0395 35.8741 60.3794 35.2747 59.9072C34.6751 59.4352 33.9347 59.1787 33.1721 59.179H29.488C29.0688 59.1787 28.6553 59.2752 28.2793 59.4611C27.9033 59.6469 27.5753 59.917 27.3205 60.2504C27.0657 60.5838 26.891 60.9717 26.8099 61.3836C26.729 61.7957 26.7438 62.2209 26.8534 62.6262L27.1576 63.749C27.3523 64.4706 27.7789 65.1079 28.3715 65.562C28.964 66.0162 29.6895 66.262 30.4356 66.2615H34.092C34.5051 66.2616 34.9128 66.1678 35.2844 65.9872C35.656 65.8065 35.9819 65.5436 36.2374 65.2184C36.493 64.8932 36.6715 64.5142 36.7594 64.1099C36.8474 63.7057 36.8428 63.2866 36.7455 62.8843ZM32.699 63.154L31.4385 63.9327C31.3902 63.9636 31.3355 63.9827 31.2785 63.9887C31.2216 63.9947 31.1641 63.9874 31.1104 63.9673C31.0569 63.9473 31.0085 63.9149 30.9695 63.8731C30.9305 63.8311 30.9017 63.7806 30.8854 63.7256L30.4196 62.1756C30.4001 62.107 30.4004 62.0343 30.4205 61.9657C30.4406 61.8973 30.4796 61.836 30.5331 61.7887C30.5866 61.7416 30.6522 61.7105 30.7227 61.6993C30.793 61.6881 30.865 61.697 30.9305 61.725L32.6597 62.4949C32.7212 62.5234 32.7736 62.568 32.8117 62.624C32.8498 62.6798 32.8721 62.7451 32.876 62.8128C32.8801 62.8803 32.8658 62.9478 32.8346 63.0079C32.8034 63.068 32.7565 63.1184 32.699 63.154Z" fill="#D7E8F0"/>
<path opacity="0.21" d="M35.9188 72.7998H29.4837C29.1894 72.7992 28.9014 72.7131 28.6549 72.5518C28.4084 72.3907 28.214 72.1611 28.0951 71.8914C28.0496 71.7906 28.0304 71.6801 28.0392 71.57C28.0478 71.4599 28.0841 71.3537 28.1447 71.2613C28.2051 71.169 28.2879 71.0934 28.3854 71.0417C28.4828 70.9899 28.5917 70.9637 28.702 70.9654H35.5433C35.223 71.5093 35.3831 72.2647 35.9188 72.7998Z" fill="#D7E8F0"/>
<path opacity="0.21" d="M40.0787 72.1377C40.0787 72.3132 40.0093 72.4813 39.8857 72.6054C39.7621 72.7295 39.5943 72.7995 39.4193 72.7998H35.9187C35.383 72.2646 35.22 71.5092 35.5417 70.9653H38.6319C38.926 70.9652 39.2139 71.0506 39.4605 71.2115C39.7071 71.3722 39.9016 71.6014 40.0205 71.8709C40.0577 71.955 40.0775 72.0459 40.0787 72.1377Z" fill="#0CCCE7"/>
<path opacity="0.21" d="M38.4688 72.8002C38.4517 72.8359 38.4307 72.8696 38.4062 72.9008C37.9463 73.5293 36.9507 73.5876 36.1778 73.0233C36.0858 72.9556 35.9992 72.8811 35.9187 72.8002C35.383 72.265 35.22 71.5097 35.5417 70.9657C35.5599 70.9303 35.5813 70.8966 35.6057 70.8651C36.0613 70.2323 37.0613 70.1783 37.8298 70.7397C37.9231 70.8084 38.0112 70.8839 38.0933 70.9657C38.6246 71.5024 38.7876 72.2519 38.4688 72.8002Z" fill="white"/>
<path opacity="0.21" d="M41.6973 76.1853C41.6957 76.3611 41.6249 76.5292 41.5003 76.6528C41.3759 76.7765 41.2075 76.8459 41.0321 76.8459H15.5289C15.8549 76.2976 15.6919 75.5481 15.1562 75.0115H40.2504C40.5452 75.0115 40.8335 75.0975 41.0801 75.2592C41.3268 75.4208 41.521 75.6509 41.639 75.9214C41.6765 76.0045 41.6963 76.0943 41.6973 76.1853Z" fill="#0CCCE7"/>
<path opacity="0.21" d="M15.5289 76.8459H12.3499C12.056 76.8458 11.7684 76.7603 11.522 76.5999C11.2756 76.4393 11.0808 76.2108 10.9613 75.9418C10.9248 75.8571 10.905 75.766 10.9031 75.6735C10.9031 75.4979 10.9727 75.3297 11.0967 75.2054C11.2205 75.0813 11.3887 75.0115 11.5639 75.0115H15.1563C15.6919 75.5481 15.855 76.2976 15.5289 76.8459Z" fill="#D7E8F0"/>
<path opacity="0.21" d="M15.529 76.8468C15.514 76.883 15.4939 76.9169 15.4693 76.9474C15.0137 77.5803 14.0137 77.6357 13.2452 77.0743C13.1519 77.005 13.0638 76.9289 12.9817 76.8468C12.4504 76.3116 12.2874 75.5607 12.6062 75.0124C12.6233 74.9767 12.6443 74.9428 12.6687 74.9118C13.1287 74.2833 14.1243 74.225 14.8972 74.7907C14.9888 74.8583 15.0754 74.9323 15.1563 75.0124C15.692 75.549 15.855 76.2985 15.529 76.8468Z" fill="white"/>
<path opacity="0.21" d="M17.7778 80.864H13.7342C13.4403 80.8634 13.153 80.7778 12.9066 80.6174C12.6603 80.457 12.4654 80.2286 12.3456 79.9599C12.309 79.8766 12.2892 79.7869 12.2874 79.6959C12.2881 79.5195 12.3584 79.3503 12.483 79.2257C12.6076 79.1008 12.7764 79.0303 12.9526 79.0295H17.4023C17.0835 79.5778 17.2465 80.3288 17.7778 80.864Z" fill="#0CCCE7"/>
<path opacity="0.21" d="M43.0831 80.2063C43.0829 80.2931 43.0656 80.3788 43.0323 80.4587C42.9989 80.5388 42.9502 80.6114 42.8889 80.6725C42.8275 80.7336 42.7547 80.782 42.6746 80.8148C42.5946 80.8476 42.5087 80.8644 42.4222 80.864H17.7778C17.2466 80.3288 17.0835 79.5778 17.4023 79.0295H41.6348C41.9295 79.0295 42.2179 79.1156 42.4645 79.2771C42.711 79.4389 42.9053 79.669 43.0234 79.9395C43.0612 80.0235 43.0815 80.1143 43.0831 80.2063Z" fill="#D7E8F0"/>
<path opacity="0.21" d="M20.3295 80.8638C20.3113 80.8993 20.2899 80.933 20.2654 80.9645C19.8098 81.5973 18.8098 81.6527 18.0413 81.0913C17.948 81.0221 17.8599 80.9461 17.7778 80.8638C17.2466 80.3287 17.0835 79.5777 17.4023 79.0294C17.4195 78.9937 17.4404 78.96 17.4649 78.9288C17.9249 78.3003 18.9205 78.2464 19.6934 78.8078C19.7849 78.8753 19.8715 78.9494 19.9525 79.0294C20.4881 79.5661 20.6511 80.3199 20.3295 80.8638Z" fill="white"/>
</g>
</g>
<defs>
<clipPath id="clip0_259_2972">
<rect width="131" height="91" fill="white"/>
</clipPath>
</defs>
</svg>
