<svg width="21" height="26" viewBox="0 0 21 26" fill="none" xmlns="http://www.w3.org/2000/svg">
<path d="M2.70149 10.5374L1 8.90972V21.8706C1 23.5989 2.35094 25 4.02153 25H16.8812C18.5518 25 19.9055 23.5989 19.9055 21.8706V17.6676C18.7486 17.7188 17.8259 18.7053 17.8259 19.9148V20.4209C17.8259 21.9291 16.6537 23.1571 15.1959 23.176L5.76417 23.2979C4.07893 23.3197 2.70149 21.9124 2.70149 20.1688V10.5374Z" fill="#0CCCE7"/>
<path d="M1 8.90972L8.39913 1.83171C9.55839 0.722763 11.3471 0.722764 12.5063 1.83171L17.5036 6.61206C18.7986 7.85088 18.7986 9.96856 17.5036 11.2074L12.5063 15.9877C11.3471 17.0967 9.55838 17.0967 8.39913 15.9877L2.70149 10.5374M1 8.90972V21.8706C1 23.5989 2.35094 25 4.02153 25M1 8.90972L2.70149 10.5374M19.9055 17.5905V17.6676M4.02153 25C7.20213 25 12.3645 25 16.8812 25M4.02153 25H16.8812M16.8812 25C18.5518 25 19.9055 23.5989 19.9055 21.8706V17.6676M2.70149 10.5267V10.5374M20 17.6655C19.9683 17.6655 19.9368 17.6662 19.9055 17.6676M2.70149 10.5374V20.1688C2.70149 21.9124 4.07893 23.3197 5.76417 23.2979L15.1959 23.176C16.6537 23.1571 17.8259 21.9291 17.8259 20.4209V19.9148C17.8259 18.7053 18.7486 17.7188 19.9055 17.6676" stroke="#0CCCE7" stroke-width="0.5"/>
</svg>
