<svg width="104" height="93" viewBox="0 0 104 93" fill="none" xmlns="http://www.w3.org/2000/svg">
<path d="M84.8371 59.9048H59.6491C59.1094 59.9048 58.6719 60.3402 58.6719 60.8773V78.5474C58.6719 79.0846 59.1094 79.5199 59.6491 79.5199H84.8371C85.3768 79.5199 85.8143 79.0846 85.8143 78.5474V60.8773C85.8143 60.3402 85.3768 59.9048 84.8371 59.9048Z" fill="#0CCCE7"/>
<path d="M83.5666 60.823H60.9205C60.3809 60.823 59.9434 61.2584 59.9434 61.7955V77.6288C59.9434 78.1659 60.3809 78.6013 60.9205 78.6013H83.5666C84.1063 78.6013 84.5438 78.1659 84.5438 77.6288V61.7955C84.5438 61.2584 84.1063 60.823 83.5666 60.823Z" fill="#0CCCE7"/>
<path d="M96.8803 79.5207H87.7936C87.5337 79.5207 87.2763 79.4698 87.0363 79.3707C86.7962 79.2718 86.5781 79.1267 86.3944 78.9438C86.2107 78.7608 86.065 78.5436 85.9657 78.3047C85.8664 78.0657 85.8153 77.8096 85.8154 77.551V63.4507C85.8154 63.3239 85.8408 63.1984 85.8902 63.0815C85.9395 62.9647 86.0118 62.8589 86.1028 62.7702C86.1938 62.6814 86.3017 62.6118 86.4202 62.5651C86.5386 62.5185 86.6652 62.4958 86.7926 62.4985L91.8472 62.5436C91.9831 62.5466 92.1167 62.5783 92.2392 62.6366C92.3618 62.6948 92.4705 62.7784 92.5583 62.8816L98.6818 70.0935C99.6513 71.0864 100.193 72.4164 100.192 73.8008V76.2236C100.193 76.6565 100.107 77.0854 99.9408 77.4854C99.7745 77.8855 99.5306 78.2491 99.2229 78.5552C98.9154 78.8615 98.5501 79.1044 98.1481 79.27C97.7462 79.4356 97.3153 79.5208 96.8803 79.5207Z" fill="#0CCCE7"/>
<path d="M72.2426 75.4001C75.3987 75.4001 77.9573 72.8537 77.9573 69.7128C77.9573 66.5719 75.3987 64.0256 72.2426 64.0256C69.0864 64.0256 66.5278 66.5719 66.5278 69.7128C66.5278 72.8537 69.0864 75.4001 72.2426 75.4001Z" fill="#D7E8F0"/>
<path d="M87.7935 69.6783V64.8858C87.7935 64.7439 87.8501 64.6077 87.951 64.5073C88.0518 64.4069 88.1886 64.3506 88.3313 64.3506H91.0341C91.1167 64.3507 91.198 64.3697 91.272 64.406C91.3459 64.4424 91.4106 64.495 91.461 64.5602L95.1647 69.3504C95.2261 69.4296 95.2639 69.5245 95.274 69.624C95.284 69.7236 95.2656 69.824 95.2213 69.9138C95.1768 70.0035 95.1079 70.0792 95.0225 70.1319C94.937 70.1847 94.8384 70.2126 94.7379 70.2125H88.3347C88.2639 70.2129 88.1936 70.1994 88.1281 70.1728C88.0625 70.1462 88.0029 70.1069 87.9525 70.0573C87.9023 70.0076 87.8623 69.9487 87.835 69.8836C87.8077 69.8185 87.7936 69.7488 87.7935 69.6783Z" fill="white"/>
<path d="M60.9817 79.4766V79.5149C60.9817 80.6816 61.4474 81.8006 62.2764 82.6255C63.1054 83.4505 64.2298 83.9141 65.4022 83.9141C66.5746 83.9141 67.699 83.4505 68.5279 82.6255C69.357 81.8006 69.8227 80.6816 69.8227 79.5149" stroke="#CCDDE2" stroke-miterlimit="10"/>
<path d="M87.7935 79.5176C87.7935 80.6842 88.2592 81.8031 89.088 82.6279C89.917 83.4529 91.0411 83.9164 92.2134 83.9164C93.3857 83.9164 94.5098 83.4529 95.3388 82.6279C96.1676 81.8031 96.6333 80.6842 96.6333 79.5176" fill="#0CCCE7"/>
<path d="M87.8049 38.7598C91.4804 37.9777 95.4378 39.3897 98.1293 41.9995C100.821 44.6092 102.319 48.2895 102.705 52.0093C103.327 57.9286 101.66 64.7663 98.3806 69.738" stroke="#CCDDE2" stroke-miterlimit="10"/>
<path d="M54.8843 14.9656C61.0417 12.757 68.4232 14.7155 74.198 29.9527C76.0844 34.9323 78.4803 37.2773 81.8557 37.5702" stroke="#CCDDE2" stroke-miterlimit="10"/>
<path d="M31.3516 22.2882C31.3516 22.2882 38.2246 21.4994 38.2665 29.8933L57.5066 24.3177L60.5276 23.3722C60.5276 23.3722 56.1932 18.1391 51.1929 17.2388C51.2468 17.7473 51.348 18.2498 51.4952 18.7398C51.7534 19.6412 50.8974 20.1709 49.7096 20.5067C48.5218 20.8425 46.1168 18.8558 45.7035 17.1036C45.7035 17.1036 46.2968 16.5706 44.0866 16.9526C41.8763 17.3346 35.1697 18.8851 31.3516 22.2882Z" fill="#2E2E2E"/>
<path d="M1.51204 63.0258C1.69964 63.1265 1.90925 63.1794 2.12235 63.1802C2.3144 63.18 2.50394 63.1367 2.67699 63.0539C2.85003 62.971 3.00217 62.8505 3.12218 62.7013L7.45891 57.4107L10.9589 53.0397L8.09413 51.4407C7.79724 51.2739 7.446 51.2313 7.11752 51.3221C6.78904 51.4131 6.51027 51.6299 6.34245 51.9252L1.00137 61.2589C0.916542 61.4079 0.862429 61.5722 0.842206 61.7422C0.821995 61.9123 0.83608 62.0846 0.883637 62.2492C0.931194 62.4137 1.01127 62.5672 1.11918 62.7005C1.22709 62.8339 1.36064 62.9445 1.51204 63.0258Z" fill="#2E2E2E"/>
<path d="M67.5254 87.9873L71.1352 91.5211C71.4474 91.8277 71.8683 91.9998 72.3071 92H81.3395C81.7108 92.0023 82.0686 91.862 82.3385 91.6083C82.6085 91.3547 82.7698 91.0073 82.789 90.6383C82.808 90.2693 82.6834 89.9072 82.4411 89.6273C82.1988 89.3474 81.8573 89.1713 81.4878 89.1356L76.4762 88.6195L67.5254 87.9873Z" fill="#2E2E2E"/>
<path d="M50.894 16.8375V17.0809V17.1429C52.8912 17.6413 54.7717 18.5215 56.431 19.7346C56.6994 19.9307 56.9621 20.129 57.2236 20.3386C57.2304 19.498 57.1579 18.654 56.8839 17.8596C56.6626 17.1769 56.2468 16.5728 55.6871 16.1208C55.1945 15.7298 54.6114 15.4785 54.0249 15.252C53.4383 15.0255 52.8631 14.8272 52.3264 14.5218C51.8735 14.2746 51.4777 13.9356 51.1647 13.5268C51.0552 13.3789 50.987 13.2046 50.9671 13.022C50.9473 12.8393 50.9764 12.6546 51.0514 12.4867C50.9987 12.4832 50.9465 12.473 50.8963 12.4563L50.894 16.8375Z" fill="#0CCCE7"/>
<path d="M50.894 16.8375V17.0809V17.1429C52.8912 17.6413 54.7717 18.5215 56.431 19.7346C56.6994 19.9307 56.9621 20.129 57.2236 20.3386C57.2304 19.498 57.1579 18.654 56.8839 17.8596C56.6626 17.1769 56.2468 16.5728 55.6871 16.1208C55.1945 15.7298 54.6114 15.4785 54.0249 15.252C53.4383 15.0255 52.8631 14.8272 52.3264 14.5218C51.8735 14.2746 51.4777 13.9356 51.1647 13.5268C51.0552 13.3789 50.987 13.2046 50.9671 13.022C50.9473 12.8393 50.9764 12.6546 51.0514 12.4867C50.9987 12.4832 50.9465 12.473 50.8963 12.4563L50.894 16.8375Z" fill="#0CCCE7"/>
<path d="M23.3054 35.8253C24.0551 36.3607 24.8893 36.7678 25.7738 37.0299C26.1531 37.1426 25.2563 37.564 25.6458 37.6395C24.1048 34.0201 25.2042 28.4557 30.0799 23.3781C30.9099 22.5127 32.819 21.4163 33.7599 20.6545C35.2738 19.4296 36.9304 19.2707 38.5156 18.536C39.2241 18.2105 39.9516 17.9275 40.6942 17.6886C42.0142 17.2521 43.3767 16.9545 44.7591 16.8007C45.0728 16.7624 45.383 16.7353 45.6967 16.7184C45.62 16.1819 45.6354 15.6363 45.742 15.1048C46.0307 13.6466 46.5346 12.8094 47.4517 11.66C48.0269 10.9365 48.9237 9.20683 47.7269 8.61073C46.9728 8.23661 46.9037 7.47148 47.2581 7.00497C47.5582 6.60606 48.164 6.42464 48.9135 6.89228C49.431 7.22132 50.0458 7.24273 50.6369 7.08159C51.0976 6.81453 51.4972 6.4545 51.81 6.0246C52.6785 4.78507 52.709 2.90886 51.3514 1.99949C50.6097 1.50255 49.6654 1.38198 48.7788 1.47776C48.3826 1.5234 47.9924 1.61062 47.6148 1.73806C47.6132 1.73739 47.6114 1.73705 47.6097 1.73705C47.6079 1.73705 47.6062 1.73739 47.6046 1.73806C46.0013 2.59898 44.8531 4.19122 44.3017 5.98516C43.9778 7.04553 43.6121 8.09576 43.1841 9.12457C42.8331 9.96858 42.5885 10.9951 41.8049 11.571C41.4783 11.8124 41.107 11.9874 40.7123 12.0859C39.2335 13.019 37.1817 12.4803 35.5648 12.282C34.2718 12.1061 32.9554 12.2386 31.724 12.6685C30.3449 13.3615 29.1594 14.4715 28.1969 15.9105C26.6117 18.2949 28.2898 21.7329 25.6323 23.6136C24.8317 24.177 23.9044 24.523 23.028 24.9658C21.7734 25.6014 20.7633 26.5029 20.3908 27.8957C19.6469 30.6857 20.9638 34.1339 23.3054 35.8253Z" fill="#0CCCE7"/>
<path d="M56.089 56.2332L76.5327 88.5839L67.814 88.1737L64.562 85.2214H60.8447C60.8447 85.2214 50.7128 70.4349 48.3894 67.9287C46.0659 65.4226 48.3894 59.0706 48.3894 59.0706L56.089 56.2332Z" fill="white"/>
<path d="M88.2984 91.9973H25.4092" stroke="black" stroke-miterlimit="10"/>
<path d="M53.2004 4.89294C53.3619 5.22603 53.5 5.56972 53.6137 5.92175C53.779 6.49532 53.6001 6.84915 53.8515 7.39455C53.9376 7.58273 54.0621 7.90163 54.1912 8.22504C54.2286 8.14954 54.2637 8.08756 54.2841 8.0391C55.2703 5.85414 53.9738 4.80053 53.3499 4.43994C53.3113 4.59443 53.2614 4.74588 53.2004 4.89294Z" fill="#0CCCE7"/>
<path d="M53.2004 4.89294C53.3619 5.22603 53.5 5.56972 53.6137 5.92175C53.779 6.49532 53.6001 6.84915 53.8515 7.39455C53.9376 7.58273 54.0621 7.90163 54.1912 8.22504C54.2286 8.14954 54.2637 8.08756 54.2841 8.0391C55.2703 5.85414 53.9738 4.80053 53.3499 4.43994C53.3113 4.59443 53.2614 4.74588 53.2004 4.89294Z" fill="#0CCCE7"/>
<path d="M43.8771 63.4249C42.8229 67.1131 41.1222 70.8531 39.7125 73.2173C38.6933 74.9231 37.0633 76.182 35.15 76.7414C33.2366 77.3007 31.1815 77.119 29.3972 76.2327L13.9243 68.5915V65.1332L7.45883 57.4132L3.12212 62.6992C3.00166 62.8476 2.84932 62.9673 2.67631 63.0493C2.50328 63.1315 2.31397 63.174 2.12229 63.1736C1.89736 63.1724 1.67664 63.1128 1.48194 63.0007C1.28724 62.8885 1.1253 62.7278 1.0121 62.5344C0.898906 62.341 0.838362 62.1215 0.836471 61.8976C0.834581 61.6738 0.891399 61.4533 1.00131 61.258L6.34239 51.9288C6.5103 51.6335 6.78907 51.4166 7.11744 51.3258C7.44592 51.2349 7.79716 51.2776 8.09405 51.4442L10.9588 53.0432L27.3772 62.1944C27.6503 62.3465 27.9557 62.4318 28.2684 62.4435C28.581 62.4551 28.8921 62.3927 29.1757 62.2613C29.4595 62.1299 29.7078 61.9334 29.9002 61.6879C30.0927 61.4423 30.2237 61.1548 30.2827 60.8489L32.228 50.7073" stroke="black" stroke-miterlimit="10"/>
<path d="M36.7561 57.5601L40.9626 60.9654C45.3899 64.4414 49.2429 68.5858 52.3819 73.2481L60.7858 85.2569H74.3508" stroke="black" stroke-miterlimit="10"/>
<path d="M64.7432 85.2566L67.5253 87.9847L71.1351 91.5185C71.4473 91.8252 71.8684 91.9973 72.307 91.9974H81.3394C81.7107 91.9997 82.0685 91.8594 82.3384 91.6058C82.6084 91.3522 82.7697 91.0048 82.7889 90.6357C82.8079 90.2668 82.6833 89.9046 82.441 89.6248C82.1987 89.3449 81.8572 89.1688 81.4877 89.133L76.4762 88.6169L52.2834 50.3321C51.0378 48.3556 49.9282 45.1024 50.894 42.9715C54.5729 34.8661 54.2547 27.0142 54.2547 27.0142" stroke="black" stroke-miterlimit="10"/>
<path d="M50.8942 11.7669V16.8039V17.0473V17.1093C51.4139 17.8643 51.6766 18.9348 51.1796 19.7371C50.5149 20.811 49.0463 20.6329 48.1144 20.0323C47.8406 19.8555 47.5793 19.6605 47.332 19.4486C46.5038 18.7323 45.9681 17.739 45.826 16.6563C45.7496 16.1201 45.7645 15.575 45.8702 15.0438C46.1612 13.5868 46.6628 12.7495 47.5834 11.5979C48.1586 10.8755 49.0554 9.14471 47.8563 8.5486C46.4533 7.85221 47.4248 5.81373 49.0429 6.83241C50.2975 7.6212 52.1001 6.63746 52.8452 5.5771C53.7137 4.33756 53.7454 2.46135 52.3866 1.55198C51.6449 1.05504 50.7006 0.934469 49.8151 1.03025C47.1146 1.32549 45.1942 3.42594 44.4254 5.92304C44.1015 6.9834 43.7358 8.03363 43.3089 9.06244C42.9568 9.90758 42.7122 10.933 41.9298 11.5088C40.4408 12.6177 38.2826 12.0373 36.5966 11.8322C33.0865 11.4029 30.2557 12.9501 28.3218 15.8461C26.7365 18.2305 28.4146 21.6685 25.756 23.5492C24.9565 24.1127 24.0292 24.4586 23.1517 24.9015C21.8959 25.5359 20.887 26.4385 20.5134 27.8313C19.7695 30.6304 21.0863 34.0797 23.4268 35.7711C24.4991 36.5463 25.7537 37.0106 27.057 37.263" stroke="black" stroke-miterlimit="10"/>
<path d="M57.8227 20.9874C57.8295 20.9231 57.8329 20.8612 57.8352 20.8003C57.8941 19.6949 57.8873 18.5466 57.5249 17.4885C57.3031 16.8064 56.8874 16.2029 56.3281 15.7509C55.8333 15.3599 55.2513 15.1063 54.667 14.881C54.0827 14.6556 53.5041 14.4573 52.9685 14.1508C52.5148 13.9052 52.1191 13.566 51.8079 13.1558C51.6979 13.0086 51.6289 12.835 51.6081 12.6528C51.5871 12.4705 51.6151 12.286 51.689 12.1179" stroke="black" stroke-miterlimit="10"/>
<path d="M13.9255 65.1371V54.698" stroke="black" stroke-miterlimit="10"/>
<path d="M49.8059 10.6381C50.2124 11.2162 50.7638 11.8405 51.4591 12.067C52.3592 12.3577 52.965 11.5982 53.2877 10.8579C53.4814 10.4173 53.6138 9.94851 53.7701 9.49326C53.8211 9.34339 53.8516 9.26789 54.0249 9.25888C54.1981 9.24986 54.3781 9.28592 54.5548 9.28592C54.5683 9.2866 54.5815 9.28345 54.5932 9.2768C54.6048 9.27015 54.6143 9.26034 54.6206 9.2484C54.6268 9.23657 54.6294 9.22316 54.6282 9.20986C54.6269 9.19656 54.6219 9.18383 54.6137 9.17324C54.3759 8.81377 54.0215 7.83116 53.8414 7.43789C53.5923 6.89249 53.7724 6.53641 53.6048 5.96622C53.4904 5.61442 53.3531 5.27039 53.1938 4.93628" stroke="black" stroke-miterlimit="10"/>
<path d="M53.4587 3.88745C53.4587 3.88745 55.9124 4.82274 54.6454 7.63761C54.5673 7.80889 54.3748 8.16385 54.2842 8.32499" stroke="black" stroke-miterlimit="10"/>
<path d="M53.3228 10.7766C53.1265 10.803 52.9272 10.7575 52.7621 10.6484C52.5971 10.5394 52.4775 10.3742 52.426 10.1838" stroke="black" stroke-miterlimit="10"/>
<path d="M53.7384 7.00282C53.23 6.59152 52.6729 7.11551 52.3333 7.49976" stroke="black" stroke-miterlimit="10"/>
<path d="M50.894 17.1067C52.8921 17.6052 54.7738 18.4855 56.4344 19.6984C56.9168 20.0455 57.3821 20.4151 57.8339 20.7994C59.6162 22.3049 61.1844 24.047 62.7085 25.8082" stroke="black" stroke-miterlimit="10"/>
<path d="M64.9946 42.4271C64.9855 42.4216 64.9771 42.4147 64.9697 42.4069C62.9701 40.4168 60.9557 38.4415 58.9504 36.4582C57.2701 34.7972 55.0847 33.0968 54.0588 30.9175" stroke="black" stroke-miterlimit="10"/>
<path d="M41.5481 56.7514C41.711 56.6993 41.8659 56.6473 42.0129 56.593C42.0155 56.5939 42.0183 56.5939 42.0209 56.593" stroke="black" stroke-miterlimit="10"/>
<path d="M26.3264 33.3526L38.2666 29.8932L60.1936 23.5388C61.247 23.237 62.3777 23.3625 63.3384 23.8878C64.2991 24.4132 65.0118 25.2956 65.3207 26.3424L70.0299 42.4418C70.3334 43.49 70.2078 44.615 69.6806 45.5714C69.1535 46.5278 68.2675 47.2378 67.2162 47.5464L43.8477 54.3165L41.6171 54.9611L39.3525 55.6203L37.1218 56.2682L35.3101 56.79L28.8787 58.6538C27.8253 58.9561 26.6943 58.8309 25.7335 58.3055C24.7725 57.7801 24.0599 56.8972 23.7516 55.8502L19.0423 39.7508C18.7387 38.7032 18.864 37.5785 19.391 36.6226C19.9181 35.6667 20.804 34.9573 21.855 34.6496L22.0237 34.6011L22.1652 34.5594L25.1681 33.6884L26.3264 33.3526Z" fill="white"/>
<path d="M28.1213 33.773L39.1839 30.5683L59.5019 24.6805C60.4786 24.399 61.5276 24.5142 62.4191 25.0012C63.3105 25.488 63.9717 26.3067 64.2576 27.2779L68.6192 42.1906C68.9001 43.1618 68.7841 44.2042 68.2963 45.0907C67.8085 45.977 66.9885 46.6358 66.0149 46.9234L44.3596 53.1977L42.2932 53.7972L40.1905 54.4068L38.124 55.0085L36.4437 55.4874L29.5672 57.5158C28.5905 57.7976 27.5413 57.6824 26.6498 57.1955C25.7583 56.7086 25.0972 55.8897 24.8115 54.9184L20.4522 39.9977C20.1693 39.0265 20.2846 37.9833 20.7726 37.0963C21.2607 36.2094 22.0819 35.551 23.0565 35.265L23.2127 35.2199L23.3441 35.1827L27.0478 34.0784L28.1213 33.773Z" fill="#0CCCE7"/>
<path d="M29.3192 34.3042L39.5767 31.3327L59.1656 25.6252C60.0705 25.366 61.0418 25.4737 61.8671 25.9249C62.6925 26.3761 63.3047 27.1341 63.5702 28.0333L67.6171 41.8654C67.8777 42.7659 67.7698 43.7325 67.3169 44.5542C66.864 45.3759 66.1028 45.9859 65.1996 46.2511L44.372 52.3191L42.4562 52.8736L40.5075 53.437L38.5905 53.9937L37.0381 54.4444L30.0393 56.4953C29.1337 56.7569 28.1609 56.6502 27.3342 56.1988C26.5077 55.7473 25.8947 54.9879 25.6301 54.0872L21.5821 40.2562C21.3213 39.356 21.4291 38.3895 21.882 37.5681C22.335 36.7467 23.0964 36.1372 23.9996 35.8728L24.7673 35.6553L24.8896 35.6192L28.3239 34.596L29.3192 34.3042Z" fill="#0CCCE7"/>
<path d="M44.5655 42.536L26.1305 47.7138C26.0322 47.7415 25.9294 47.7496 25.828 47.7376C25.7266 47.7257 25.6286 47.6939 25.5394 47.6442C25.4503 47.5945 25.372 47.5278 25.3088 47.4479C25.2457 47.368 25.199 47.2765 25.1714 47.1786C25.1513 47.111 25.141 47.0408 25.1409 46.9701C25.1417 46.8018 25.1971 46.6382 25.2993 46.5038C25.4013 46.3696 25.5444 46.2718 25.707 46.2253L44.1421 41.0508C44.0678 41.3034 44.0643 41.5715 44.1319 41.8261C44.2051 42.0992 44.3556 42.3455 44.5655 42.536Z" fill="#0CCCE7"/>
<path d="M48.8719 40.7374C48.8716 40.9063 48.8164 41.0705 48.7143 41.2055C48.6121 41.3404 48.4688 41.4388 48.3057 41.4857L46.9753 41.8598C47.051 41.5971 47.0518 41.3187 46.9776 41.0555C46.9035 40.7924 46.7572 40.5551 46.5552 40.3701L47.8856 39.9971C48.084 39.9422 48.2961 39.9677 48.4756 40.068C48.655 40.1683 48.7874 40.3353 48.8436 40.5323C48.8635 40.5988 48.8731 40.668 48.8719 40.7374Z" fill="#D7E8F0"/>
<path d="M49.7098 43.6933C49.7092 43.8618 49.6537 44.0254 49.5516 44.1597C49.4495 44.294 49.3063 44.3917 49.1436 44.4381L30.823 49.5811C30.9328 49.3283 30.9685 49.0499 30.9258 48.7779C30.8831 48.5059 30.7637 48.2514 30.5818 48.0441L48.7202 42.9484C48.9185 42.8939 49.1304 42.9196 49.3099 43.0198C49.4892 43.1201 49.6216 43.2868 49.6781 43.4837C49.6991 43.5515 49.7098 43.6222 49.7098 43.6933Z" fill="#D7E8F0"/>
<path d="M28.6194 50.1939L26.9685 50.6571C26.8679 50.6965 26.7601 50.7146 26.6519 50.7101C26.5439 50.7057 26.4379 50.6788 26.3409 50.6311C26.2438 50.5835 26.1579 50.5162 26.0886 50.4335C26.0193 50.3509 25.9681 50.2547 25.9383 50.1512C25.9086 50.0477 25.901 49.9391 25.9158 49.8325C25.9308 49.7258 25.9679 49.6235 26.025 49.532C26.082 49.4405 26.1577 49.362 26.247 49.3012C26.3364 49.2406 26.4375 49.1993 26.5439 49.1798L28.0159 48.7673C27.9842 48.9696 27.9938 49.1762 28.0442 49.3747C28.1324 49.7069 28.3362 49.9972 28.6194 50.1939Z" fill="#0CCCE7"/>
<path d="M45.0311 48.8139L27.9265 53.6176C27.7282 53.6713 27.5166 53.6453 27.3375 53.5451C27.1584 53.445 27.0259 53.2788 26.9686 53.0824C26.9487 53.0156 26.9391 52.946 26.9403 52.8762C26.9406 52.7074 26.996 52.5432 27.0981 52.4083C27.2001 52.2733 27.3435 52.175 27.5064 52.1279L44.5861 47.3354C44.5146 47.5987 44.5185 47.8766 44.5971 48.1378C44.6757 48.399 44.826 48.6331 45.0311 48.8139Z" fill="#0CCCE7"/>
<path d="M50.671 46.646C50.6712 46.8145 50.616 46.9786 50.5137 47.113C50.4115 47.2476 50.2679 47.3451 50.1048 47.3908L47.4224 48.1424L45.0333 48.8185C44.8282 48.6377 44.6778 48.4035 44.5992 48.1423C44.5207 47.8811 44.5168 47.6033 44.5883 47.3401L47.0227 46.6572L49.6836 45.909C49.8817 45.8533 50.0937 45.8781 50.2736 45.9778C50.4533 46.0775 50.5861 46.244 50.6427 46.4409C50.6616 46.5076 50.6712 46.5767 50.671 46.646Z" fill="#D7E8F0"/>
<path d="M46.9751 41.8591C46.8862 42.1683 46.6975 42.4399 46.4382 42.6318C46.1788 42.8237 45.8631 42.9253 45.5399 42.921C45.2168 42.9166 44.9039 42.8065 44.6499 42.6076C44.3959 42.4089 44.2146 42.1322 44.1342 41.8208C44.0854 41.6344 44.074 41.4403 44.1008 41.2497C44.1274 41.059 44.1916 40.8754 44.2895 40.7095C44.3876 40.5435 44.5175 40.3983 44.6719 40.2824C44.8264 40.1663 45.0022 40.0818 45.1895 40.0336C45.4274 39.9719 45.6769 39.9706 45.9155 40.0296C46.154 40.0887 46.3739 40.2062 46.555 40.3716C46.757 40.5567 46.9033 40.794 46.9775 41.0571C47.0517 41.3202 47.0509 41.5987 46.9751 41.8613V41.8591Z" fill="white"/>
<g opacity="0.72">
<path opacity="0.72" d="M46.1851 41.1571C46.2032 41.3346 46.1702 41.5137 46.09 41.6732C46.0513 41.7521 46.0059 41.8276 45.9541 41.8986C45.9258 41.9358 45.7774 42.1488 45.7344 42.1398C45.4423 42.0879 45.0245 41.8614 44.8897 41.5583C44.8696 41.5106 44.8555 41.4607 44.8478 41.4096C44.8374 41.3353 44.8499 41.2597 44.8834 41.1926C44.9169 41.1256 44.97 41.07 45.0357 41.0335C45.1015 40.997 45.1766 40.9811 45.2517 40.9879C45.3267 40.9946 45.3978 41.0237 45.4559 41.0715C45.4872 40.9952 45.5426 40.9311 45.6138 40.889C45.6849 40.8467 45.768 40.8288 45.8504 40.8377C45.9327 40.8466 46.0099 40.8818 46.0703 40.9383C46.1306 40.9948 46.1709 41.0691 46.1851 41.1504V41.1571Z" fill="#0CCCE7"/>
</g>
<path d="M30.8228 49.5775C30.702 49.8588 30.4958 50.0952 30.2331 50.2539C29.9705 50.4125 29.6645 50.4855 29.3581 50.4624C29.0518 50.4393 28.7603 50.3213 28.5247 50.1251C28.2891 49.9288 28.121 49.6641 28.0441 49.368C27.9938 49.1695 27.9841 48.963 28.0158 48.7606C28.0634 48.4817 28.1909 48.2223 28.3829 48.0137C28.5749 47.805 28.8233 47.6558 29.0983 47.5842C29.364 47.5141 29.6442 47.52 29.9066 47.6014C30.169 47.6826 30.403 47.8361 30.5816 48.0439C30.7637 48.2512 30.8829 48.5057 30.9256 48.7777C30.9683 49.0497 30.9326 49.3283 30.8228 49.5809V49.5775Z" fill="white"/>
<g opacity="0.72">
<path opacity="0.72" d="M30.0957 48.7021C30.1135 48.8798 30.0802 49.0587 29.9995 49.2181C29.9619 49.2977 29.9164 49.3732 29.8636 49.4435C29.8353 49.4807 29.687 49.6937 29.6451 49.6847C29.3518 49.6328 28.9351 49.4063 28.8004 49.1021C28.7797 49.0546 28.7655 49.0046 28.7585 48.9533C28.7481 48.8792 28.7604 48.8036 28.7939 48.7364C28.8274 48.6694 28.8805 48.6139 28.9463 48.5774C29.012 48.5408 29.0873 48.5249 29.1624 48.5317C29.2373 48.5384 29.3084 48.5676 29.3665 48.6153C29.3888 48.5607 29.4236 48.512 29.468 48.4729C29.5124 48.4338 29.5652 48.4054 29.6224 48.3899C29.6742 48.3779 29.728 48.3764 29.7803 48.3856C29.8327 48.395 29.8826 48.4149 29.9269 48.4441C29.9713 48.4734 30.0091 48.5114 30.0382 48.5557C30.0672 48.6001 30.0868 48.6499 30.0957 48.7021Z" fill="#0CCCE7"/>
</g>
<path d="M47.42 48.1411C47.317 48.4784 47.0947 48.7672 46.7943 48.954C46.494 49.1408 46.1358 49.2132 45.786 49.1576C45.4361 49.1021 45.1184 48.9223 44.8914 48.6517C44.6645 48.3811 44.5435 48.0378 44.5511 47.6854C44.5587 47.3329 44.6942 46.9951 44.9327 46.7343C45.1712 46.4737 45.4964 46.3077 45.8482 46.267C46.2001 46.2265 46.5548 46.314 46.8469 46.5135C47.139 46.7129 47.3486 47.011 47.437 47.3523C47.5039 47.6118 47.4981 47.8846 47.42 48.1411Z" fill="white"/>
<g opacity="0.72">
<path opacity="0.72" d="M46.6367 47.4236C46.6537 47.6012 46.6205 47.78 46.5404 47.9397C46.5022 48.0189 46.4567 48.0943 46.4045 48.165C46.3762 48.2022 46.2279 48.4152 46.186 48.4062C45.8927 48.3543 45.4749 48.1279 45.3402 47.8247C45.3199 47.7767 45.3059 47.7264 45.2983 47.6749C45.2879 47.6007 45.3002 47.5251 45.3338 47.4579C45.3673 47.3909 45.4204 47.3354 45.4861 47.2988C45.5518 47.2623 45.6271 47.2464 45.7022 47.2532C45.7771 47.26 45.8482 47.2891 45.9063 47.3368C45.9381 47.2607 45.9937 47.197 46.0651 47.155C46.1363 47.1131 46.2193 47.0953 46.3016 47.1043C46.3839 47.1134 46.461 47.1487 46.5215 47.2051C46.5818 47.2614 46.6223 47.3357 46.6367 47.4168V47.4236Z" fill="#0CCCE7"/>
</g>
<path d="M44.3821 52.0866C43.4004 52.1407 42.344 50.7343 42.0213 50.3839C41.9855 50.3466 41.9447 50.3144 41.9001 50.2881L41.0226 49.5816L41.1698 50.6927C41.4042 51.2279 42.6418 52.3953 43.5238 53.7352C44.4059 55.075 43.5657 55.368 43.0936 55.5381C42.6214 55.7083 42.1277 54.8203 42.3202 55.7849C42.5127 56.7495 41.3691 56.763 40.6557 56.6424C39.9424 56.5219 39.6865 55.7409 39.8484 56.354C40.0103 56.967 39.4759 57.4143 38.9935 57.4346C38.6278 57.4526 37.9246 56.9613 37.6076 56.7247C37.5351 57.1123 37.2735 57.8403 36.362 57.4526C35.1516 56.9377 33.9763 53.8602 33.0783 50.7107C32.1804 47.5611 26.3649 41.8165 25.5168 35.7337C25.5168 35.7236 25.5168 35.7089 25.5168 35.6988C25.4715 35.239 25.4485 34.7759 25.4478 34.3094C25.448 33.4226 25.5345 32.5381 25.7059 31.668C25.8285 31.035 25.9923 30.4105 26.1962 29.7986L35.7981 31.6962C35.7325 31.7683 35.6668 31.8404 35.6011 31.9159C33.3535 34.5133 34.667 37.8071 36.3767 40.2253C38.1114 42.6864 40.1077 45.1181 42.3893 47.0991C43.0591 47.6793 43.6852 48.308 44.2621 48.9798L44.1375 49.0486C44.2731 49.3113 44.4244 49.5657 44.5905 49.8103C45.2687 50.7411 45.3684 52.0314 44.3821 52.0866Z" fill="white"/>
<path d="M38.2666 29.8932L60.1937 23.5388C61.247 23.237 62.3778 23.3625 63.3385 23.8878C64.2992 24.4132 65.0118 25.2956 65.3207 26.3424L70.03 42.4418C70.3334 43.49 70.2079 44.615 69.6807 45.5714C69.1536 46.5278 68.2675 47.2378 67.2162 47.5464L43.8477 54.3165" stroke="black" stroke-miterlimit="10"/>
<path d="M35.3045 56.7896L28.8787 58.6534C27.8253 58.9558 26.6943 58.8306 25.7335 58.3052C24.7725 57.7797 24.0599 56.8968 23.7516 55.8498L19.0423 39.7504C18.7387 38.7028 18.864 37.5781 19.391 36.6223C19.9181 35.6664 20.804 34.9569 21.855 34.6492L22.0237 34.6007L22.1652 34.559L25.1681 33.688" stroke="black" stroke-miterlimit="10"/>
<path d="M41.6196 54.9626H41.6138" stroke="black" stroke-miterlimit="10"/>
<path d="M37.1174 56.27H37.1116" stroke="black" stroke-miterlimit="10"/>
<path d="M38.337 50.0997C38.6529 51.8148 40.0886 53.673 41.6116 54.9598C42.0543 55.3339 43.0326 55.7892 43.5637 55.3621C44.7096 54.4426 42.7507 52.9281 42.2106 52.3196C41.555 51.5804 41.025 50.7138 40.828 49.7369C40.8108 49.6766 40.8144 49.6123 40.8382 49.5543C40.8612 49.5228 40.8937 49.4994 40.9311 49.4879C40.9684 49.4763 41.0085 49.4771 41.0454 49.4901C41.1185 49.5169 41.1844 49.5601 41.2379 49.6163C41.8584 50.1797 42.4121 50.8029 42.9737 51.4193C43.3712 51.8598 44.405 52.4064 44.9122 51.8452C46.0128 50.6271 42.8979 47.7885 42.1007 47.0921C39.8214 45.1089 37.8218 42.6771 36.0871 40.2184C34.3773 37.8001 33.0638 34.5063 35.3114 31.909C36.4845 30.5567 38.2215 29.9663 39.7727 29.1673C42.2751 27.8827 42.7903 25.7417 42.7903 25.7417" stroke="black" stroke-miterlimit="10"/>
<path d="M36.8828 51.8416C36.8828 51.8416 38.1782 55.5162 40.9297 56.66C41.0931 56.7323 41.2707 56.7671 41.4495 56.7618C41.6282 56.7565 41.8035 56.7114 41.9623 56.6295C42.302 56.4402 42.5794 56.0661 42.1027 55.3156" stroke="black" stroke-miterlimit="10"/>
<path d="M35.0894 52.6978C35.5944 54.0612 36.2647 55.4867 37.3426 56.5009C37.8341 56.9618 38.4568 57.4181 39.1543 57.4474C39.9945 57.4824 40.0602 56.6395 39.7205 56.0659C39.647 55.943 39.5588 55.8295 39.4578 55.7279" stroke="black" stroke-miterlimit="10"/>
<path d="M37.3426 56.5005C37.3426 56.5005 37.2814 57.9654 36.071 57.4482C34.8606 56.9309 33.6818 53.8546 32.7873 50.704C31.8928 47.5533 26.0445 41.7917 25.2145 35.6943L25.2235 35.7687C25.2235 35.7552 25.2235 35.745 25.2235 35.7315C25.0821 34.3735 25.1446 33.002 25.4092 31.6624C28.0305 18.4602 45.7035 16.7136 45.7035 16.7136" stroke="black" stroke-miterlimit="10"/>
<path d="M71.8882 44.598C71.3991 46.0347 70.1898 46.9509 68.6997 47.174C68.061 47.2675 67.3726 47.3531 66.7747 47.0613C66.3365 46.8483 65.9051 46.3514 66.0365 45.8296C65.8416 45.8321 65.6472 45.8101 65.4579 45.7643C65.1986 45.7023 64.9302 45.5795 64.8159 45.3417C64.7015 45.104 64.7819 44.7727 64.9676 44.5597C65.1699 44.3611 65.419 44.2162 65.6923 44.1382C65.7586 44.1139 65.8262 44.0932 65.8949 44.0763C65.6738 44.0782 65.4528 44.0642 65.2337 44.0346C64.8125 43.9805 64.3403 43.8013 64.2146 43.4002C64.1797 43.2638 64.1801 43.1209 64.2157 42.9848C64.2514 42.8486 64.3212 42.7236 64.4184 42.6215C64.6166 42.4189 64.865 42.272 65.1386 42.1955C65.1669 42.1888 65.1907 42.1786 65.2178 42.1719C64.7185 42.1651 64.2078 42.066 63.987 41.5949C63.916 41.4276 63.896 41.2432 63.9292 41.0645C63.9623 40.8859 64.0474 40.7208 64.1738 40.5898C64.6154 40.0962 65.2767 40.0264 65.9006 39.979C66.5245 39.9317 67.2831 39.9103 68.018 39.8968C68.1777 39.8926 68.3342 39.852 68.4757 39.7785C68.6171 39.7048 68.7399 39.5998 68.8343 39.4717C68.9288 39.3437 68.9927 39.1958 69.0209 39.0394C69.0492 38.8829 69.0412 38.7223 68.9975 38.5693C68.711 37.5552 68.5898 36.4486 69.1933 36.1782C70.0935 35.7725 70.714 36.8779 70.9722 37.5574C71.7614 39.6399 72.6401 42.3984 71.8882 44.598Z" fill="white"/>
<path d="M68.0914 43.761C67.3633 43.9154 66.6262 44.0731 65.888 44.0799C65.8193 44.0969 65.7516 44.1176 65.6853 44.1419C65.412 44.2197 65.1629 44.3646 64.9606 44.5633C64.7749 44.7763 64.6854 45.0918 64.8089 45.3453C64.9323 45.5989 65.1916 45.7059 65.4509 45.7679C65.6402 45.8137 65.8346 45.8356 66.0295 45.8333C66.4279 45.8252 66.8246 45.7757 67.2127 45.6857C67.2784 45.6721 68.0824 45.5797 68.1446 45.5651" stroke="black" stroke-miterlimit="10"/>
<path d="M65.2098 42.1753C65.1826 42.1821 65.1588 42.1922 65.1305 42.199C64.8569 42.2752 64.6085 42.4222 64.4104 42.6249C64.3131 42.7269 64.2434 42.8519 64.2077 42.9881C64.172 43.1242 64.1717 43.2672 64.2066 43.4036C64.3379 43.8047 64.8101 43.9839 65.2256 44.038C65.4447 44.0675 65.6658 44.0815 65.8869 44.0797" stroke="black" stroke-miterlimit="10"/>
<path d="M68.7029 42.0973C68.6474 42.0973 68.5954 42.0973 68.541 42.0973L65.9095 42.1559C65.7035 42.1559 65.4566 42.1762 65.2098 42.1694C64.7104 42.1626 64.1998 42.0635 63.979 41.5925C63.908 41.4251 63.8879 41.2407 63.9211 41.062C63.9543 40.8834 64.0393 40.7184 64.1658 40.5873C64.6074 40.0937 65.2687 40.0239 65.8926 39.9765C66.5165 39.9292 67.2762 39.9101 68.0111 39.8943C68.1712 39.8907 68.3285 39.8505 68.4706 39.7769C68.6127 39.7034 68.736 39.5983 68.8309 39.4699C68.9259 39.3415 68.9899 39.1931 69.0182 39.0361C69.0465 38.8791 69.0381 38.7179 68.9939 38.5646C68.7075 37.5504 68.584 36.4427 69.1887 36.1723C70.0889 35.7666 70.7094 36.8721 70.9675 37.5516C71.7601 39.634 72.6399 42.397 71.8881 44.5921C71.3978 46.0289 70.1896 46.9473 68.7007 47.1681C68.0632 47.2628 67.3725 47.3484 66.7757 47.0554C66.3398 46.8436 65.9073 46.3478 66.0375 45.826" stroke="black" stroke-miterlimit="10"/>
<g opacity="0.54">
<path opacity="0.54" d="M47.8493 36.1965C47.8295 36.0663 47.7996 35.9379 47.7598 35.8122L47.3149 34.38C47.179 33.9416 47.0284 33.4785 46.6819 33.1765C46.0399 32.6131 45.0502 32.8238 44.2293 33.0695L42.215 33.6712C41.7518 33.8098 41.2819 33.9518 40.8777 34.2143C40.4735 34.4769 40.1361 34.8848 40.0726 35.3615C40.0251 35.7131 40.1293 36.0646 40.2323 36.4049L40.6467 37.7797C40.7837 38.2304 40.9355 38.706 41.2921 39.0192C41.9274 39.5691 42.8977 39.3629 43.7062 39.1252L45.767 38.52C47.0103 38.1504 48.0497 37.489 47.8493 36.1965Z" fill="white"/>
<path opacity="0.54" d="M45.0229 36.3656C45.1061 36.2786 45.1645 36.171 45.192 36.0541C45.2195 35.9372 45.2152 35.815 45.1797 35.7002C45.144 35.5855 45.0783 35.4823 44.9892 35.4011C44.9002 35.32 44.7911 35.264 44.6731 35.2388L44.0344 35.0945L43.397 34.9503C43.2797 34.9221 43.1569 34.9255 43.0414 34.9602C42.9258 34.9949 42.8216 35.0596 42.7395 35.1476C42.6575 35.2356 42.6004 35.3438 42.5742 35.461C42.5481 35.5783 42.5538 35.7003 42.5908 35.8146L42.7844 36.4366L42.9769 37.0586C43.011 37.174 43.0753 37.2782 43.1633 37.3606C43.2513 37.443 43.3598 37.5005 43.4776 37.5273C43.5953 37.554 43.7182 37.549 43.8334 37.5129C43.9486 37.4766 44.052 37.4104 44.133 37.3212L44.578 36.8434L45.0229 36.3656Z" fill="#0CCCE7"/>
</g>
<path d="M90.6298 83.9167H85.0781" stroke="#CCDDE2" stroke-miterlimit="10"/>
<path d="M84.1329 49.3733C87.5279 49.3733 90.2801 46.6344 90.2801 43.2556C90.2801 39.877 87.5279 37.1379 84.1329 37.1379C80.7378 37.1379 77.9856 39.877 77.9856 43.2556C77.9856 46.6344 80.7378 49.3733 84.1329 49.3733Z" fill="#0CCCE7"/>
<path d="M83.1377 45.9977C83.0661 45.9977 82.9953 45.9837 82.9292 45.9565C82.8632 45.9292 82.8032 45.8892 82.7527 45.8388L81.1675 44.2612C81.0653 44.1597 81.0079 44.022 81.0078 43.8784C81.0077 43.7349 81.065 43.5971 81.1669 43.4955C81.2689 43.3939 81.4072 43.3368 81.5515 43.3366C81.6958 43.3365 81.8342 43.3934 81.9363 43.495L83.1411 44.6939L86.333 41.5151C86.4351 41.4134 86.5733 41.3563 86.7177 41.3562C86.8619 41.3561 87.0003 41.413 87.1024 41.5145C87.2046 41.6159 87.262 41.7536 87.2621 41.8972C87.2622 42.0408 87.205 42.1786 87.103 42.2802L83.5215 45.8444C83.4189 45.9439 83.2809 45.9991 83.1377 45.9977Z" fill="white"/>
</svg>
