<svg width="554" height="269" viewBox="0 0 554 269" fill="none" xmlns="http://www.w3.org/2000/svg">
<path d="M228.193 36.0581C224.047 32.548 217.667 30.3144 210.969 30.3144C195.34 30.3144 182.582 42.4401 182.582 58.395C182.582 74.0308 195.34 86.1566 210.969 86.4757C219.581 86.4757 227.236 82.9656 232.34 76.5836V61.2669C229.469 66.0534 224.047 72.1163 218.943 74.3499C216.392 75.3072 213.84 75.9454 210.65 75.9454C201.081 75.9454 192.789 68.2871 192.789 58.395C192.789 49.1412 200.125 40.8446 210.65 40.8446C215.435 40.8446 219.9 42.7592 223.09 45.9502C226.279 49.1412 231.702 55.8422 233.934 58.7141C240.314 65.4152 249.244 69.8826 259.451 69.8826C278.589 69.8826 294.218 54.2467 294.218 35.1008C294.218 15.9549 278.589 0 259.451 0C248.288 0 238.4 5.74377 232.021 14.0403V34.7817C236.805 21.3796 245.736 10.8493 259.451 10.8493C272.528 10.8493 283.373 21.6987 283.373 35.1008C283.373 48.1839 272.847 59.0332 259.451 59.0332C253.71 59.0332 247.969 56.7995 243.822 53.2894C239.357 48.8221 233.615 40.5255 228.193 36.0581Z" fill="#9CA3AF"/>
<path d="M0.136719 93.8145H77.0061V115.194C77.0061 115.194 73.1785 106.897 64.8856 106.897H29.1621V143.913H67.7562V163.378C67.7562 163.378 66.4804 156.996 57.2305 156.996H29.1621V207.413C29.1621 214.753 37.1361 219.22 37.1361 219.22H0.774639C0.774639 219.22 8.42968 215.391 8.42968 207.413V107.217C8.42968 98.6009 0.136719 93.8145 0.136719 93.8145Z" fill="#9CA3AF"/>
<path d="M193.426 94.1348H232.658C232.658 94.1348 224.047 98.283 224.047 104.984V222.731C224.047 262.619 184.177 269.001 181.944 269.001C185.452 266.767 202.038 252.727 202.038 222.731V104.984C201.719 98.6021 193.426 94.1348 193.426 94.1348Z" fill="#9CA3AF"/>
<path d="M238.081 93.8145H277.313C277.313 93.8145 268.701 97.9627 268.701 104.983V207.733C268.701 215.072 277.313 219.539 277.313 219.539H238.081C238.081 219.539 246.693 215.072 246.693 207.733V104.983C246.693 98.2818 238.081 93.8145 238.081 93.8145Z" fill="#9CA3AF"/>
<path d="M284.968 93.8145H371.406L364.07 116.79C364.07 116.79 361.837 107.217 353.544 107.217H335.683V207.733C335.683 214.115 343.976 219.539 343.976 219.539H305.7C305.7 219.539 313.993 214.434 313.993 207.733V107.217H292.304C286.244 107.217 277.313 118.704 277.313 118.704L284.968 93.8145Z" fill="#9CA3AF"/>
<path d="M515.576 93.8145H553.213C553.213 93.8145 545.239 97.9627 545.239 104.983V180.928C545.239 211.881 519.722 221.454 501.861 221.454C484.318 221.454 456.568 211.881 456.568 180.928V104.983C456.568 98.2818 448.275 93.8145 448.275 93.8145H487.188C487.188 93.8145 478.577 97.9627 478.577 104.983V180.928C478.577 197.202 489.421 207.733 501.861 207.733C514.3 207.733 524.188 196.564 524.188 180.928V104.983C524.188 98.2818 515.576 93.8145 515.576 93.8145Z" fill="#9CA3AF"/>
<path d="M148.134 93.8145H186.728C186.728 93.8145 178.435 98.2818 178.435 104.983V180.928C178.435 211.881 151.643 221.773 133.781 221.773C116.238 221.773 88.4886 211.881 88.4886 180.928V104.983C88.4886 98.2818 80.5146 93.8145 80.5146 93.8145H119.428C119.428 93.8145 110.497 98.2818 110.497 104.983V180.928C110.497 196.883 121.342 208.052 133.781 208.052C146.539 208.052 156.427 196.883 156.427 180.928V104.983C156.427 98.2818 148.134 93.8145 148.134 93.8145Z" fill="#9CA3AF"/>
<path d="M436.793 113.917C436.793 113.917 431.371 104.344 415.423 104.344C399.794 104.344 391.182 112.641 391.182 123.49C391.182 135.616 400.431 140.402 414.466 147.103C427.862 153.485 448.275 162.42 447.956 185.076C447.956 205.179 430.095 222.091 397.88 222.091C387.992 222.091 374.277 218.9 374.277 218.9L366.941 194.649C373.639 201.35 385.759 208.37 398.199 208.37C410.957 208.37 426.267 200.393 426.267 187.629C426.267 163.058 369.173 167.206 369.173 126.043C369.173 112.002 379.061 91.5801 413.19 91.5801C424.353 91.5801 436.474 94.7711 436.474 94.7711V113.917" fill="#9CA3AF"/>
</svg>
