<svg width="89" height="91" viewBox="0 0 89 91" fill="none" xmlns="http://www.w3.org/2000/svg">
<path d="M59.1806 15.7675C59.8047 15.3656 60.5299 15.148 61.2726 15.1396C61.4013 15.1396 61.5269 15.1467 61.6505 15.1578C61.5978 14.9374 61.532 14.6785 61.4479 14.3974C61.1816 14.2642 60.9502 14.0707 60.772 13.8326C60.5939 13.5944 60.4739 13.318 60.4216 13.0253C60.3263 13.0418 60.2296 13.0503 60.1329 13.0506C59.7878 13.0517 59.4499 12.9526 59.1603 12.7655C59.0893 12.7501 59.0193 12.7305 58.9506 12.7068C58.8599 12.7228 58.7681 12.7313 58.676 12.7321C58.2076 12.7347 57.7571 12.5532 57.4218 12.2266L56.5435 12.5299C56.5435 12.5299 58.7966 13.6644 59.1806 15.7675Z" fill="#0CCCE7"/>
<path d="M59.4431 81.618C59.4426 83.2306 58.8005 84.7771 57.658 85.9175C56.5155 87.058 54.9661 87.699 53.3503 87.6998H24.3452C22.7292 87.6992 21.1796 87.0583 20.0368 85.9178C18.8941 84.7774 18.2519 83.2308 18.2514 81.618V18.4488C18.2509 17.6498 18.4081 16.8584 18.7141 16.1199C19.0201 15.3816 19.4689 14.7106 20.0348 14.1453C20.6007 13.58 21.2726 13.1316 22.0122 12.8256C22.7518 12.5196 23.5446 12.362 24.3452 12.3619H28.2213C28.9189 12.3621 29.5878 12.6385 30.0814 13.1304C30.534 13.5791 30.8052 14.1783 30.8433 14.8139C30.8489 14.8666 30.8517 14.9195 30.8514 14.9726C30.8514 15.0181 30.8514 15.0626 30.8514 15.1071C30.8702 15.4926 30.9703 15.8699 31.1452 16.2143C31.1502 16.2224 31.1533 16.2335 31.1583 16.2416C31.3702 16.6559 31.693 17.0034 32.091 17.2457C32.4889 17.488 32.9463 17.6153 33.4125 17.6137H44.2091C44.5551 17.6142 44.8978 17.5464 45.2175 17.4144C45.5373 17.2823 45.8277 17.0886 46.0722 16.8442C46.2591 16.6579 46.4153 16.4432 46.5352 16.2082C46.5402 16.2039 46.5441 16.1983 46.5463 16.192C46.7242 15.8551 46.8237 15.4825 46.8371 15.1021C46.8371 15.0687 46.8371 15.0384 46.8371 15.0009C46.8452 13.554 47.9515 12.3589 49.4033 12.3589H52.6766L56.1211 12.3164C56.191 11.6592 56.4717 10.9676 56.7614 10.3569C56.858 10.1455 56.9722 9.94256 57.1028 9.75024H24.5934C23.5439 9.75004 22.5045 9.95631 21.5348 10.3571C20.565 10.7579 19.6838 11.3455 18.9416 12.0862C18.1995 12.827 17.6108 13.7063 17.2092 14.6742C16.8075 15.642 16.601 16.6793 16.6011 17.7269V83.0234C16.6008 84.0709 16.8073 85.1083 17.2089 86.0763C17.6104 87.0441 18.1991 87.9236 18.9414 88.6643C19.6836 89.4051 20.5647 89.9926 21.5346 90.3934C22.5044 90.7942 23.5438 91.0003 24.5934 91.0001H53.9835C55.0332 91.0002 56.0725 90.7939 57.0424 90.3931C58.0122 89.9923 58.8933 89.4049 59.6356 88.6641C60.3779 87.9234 60.9667 87.044 61.3684 86.0762C61.7701 85.1083 61.9769 84.071 61.9769 83.0234V78.527L59.4441 79.9679L59.4431 81.618Z" fill="#0CCCE7"/>
<path d="M60.3263 31.5638C60.0224 31.2513 59.7286 31.7367 59.4429 31.405V55.4321C59.6214 54.7759 59.8417 54.1319 60.1024 53.5039C60.1612 53.3664 60.2199 53.2278 60.2807 53.0913C60.4094 52.8092 60.5441 52.5312 60.6859 52.2551C60.7244 52.1763 60.764 52.1015 60.8055 52.0266C60.847 51.9518 60.8977 51.8558 60.9453 51.7749C61.0264 51.6273 61.1135 51.4796 61.2026 51.335C61.2634 51.2258 61.3313 51.1207 61.3982 51.0145C61.4478 50.9306 61.4995 50.8497 61.5542 50.7719C61.6129 50.6768 61.6768 50.5828 61.7386 50.4908C61.8145 50.3765 61.8946 50.2622 61.9736 50.15V33.0349C61.6697 32.7983 61.3657 32.5496 61.08 32.2938C60.8197 32.0592 60.5684 31.8166 60.3263 31.5638Z" fill="#0CCCE7"/>
<path d="M61.7347 14.8633C61.3841 15.3041 60.9495 14.9341 60.3842 14.9341C59.8696 14.9341 59.5737 15.7652 59.2475 15.4305C59.2657 15.475 59.0824 16.1383 59.0976 16.1828C59.1472 16.3162 59.1918 16.4558 59.2313 16.5953V16.6004C59.282 16.7793 59.3205 16.9573 59.3539 17.1413C59.362 17.1828 59.3711 17.2283 59.3762 17.2728C59.3904 17.3668 59.4045 17.4649 59.4126 17.5619C59.4237 17.6519 59.4301 17.7423 59.4319 17.8329C59.441 17.934 59.443 18.0442 59.443 18.1534V25.2312C59.5258 25.3002 59.5946 25.3842 59.6457 25.4789C60.0509 26.217 60.4389 25.664 60.8725 26.3889C61.1035 26.763 61.5817 27.0553 61.8269 26.7843C61.917 26.6832 61.9728 26.2504 61.9728 26.0886V17.5367C61.9727 17.1306 61.9425 16.725 61.8826 16.3233C61.8644 16.1706 61.7671 15.018 61.7347 14.8633Z" fill="#0CCCE7"/>
<path d="M30.8545 14.834C31.038 15.1746 31.1386 15.5535 31.1483 15.9401C30.9735 15.5962 30.8734 15.2192 30.8545 14.834Z" fill="#0CCCE7"/>
<path d="M46.8371 14.8281C46.8237 15.2087 46.7243 15.5813 46.5464 15.9181C46.5659 15.5385 46.665 15.1673 46.8371 14.8281Z" fill="#0CCCE7"/>
<path d="M85.6215 45.6779C75.9423 48.694 70.9386 41.3068 70.9386 41.3068C71.3044 40.7659 70.7512 39.7487 70.7512 39.7487L70.4149 38.0298C66.1386 37.8205 62.2695 33.6608 62.2695 33.6608C67.8021 32.6821 65.4172 29.3747 65.4172 29.3747L69.2316 32.3555L69.6449 32.3191C69.6956 27.1624 72.9486 24.7539 73.9678 23.938C74.987 23.122 75.1612 23.9319 75.1612 23.9319C75.1612 23.9319 74.7135 25.582 76.6242 25.8105C78.5349 26.0391 79.934 24.2524 79.934 24.2524C80.5894 22.7863 81.3442 23.6953 81.3442 23.6953C84.6196 25.4344 85.2122 29.7377 85.9153 32.7447C86.4006 34.8054 87.3245 39.2462 87.9415 41.41C88.1573 42.1588 88.1141 42.9585 87.8189 43.6799C87.6221 44.1535 87.3231 44.578 86.9433 44.9233C86.5636 45.2686 86.1123 45.5262 85.6215 45.6779Z" fill="#353642"/>
<path d="M85.6215 45.6779C75.9423 48.694 70.9386 41.3068 70.9386 41.3068C71.3044 40.7659 70.7512 39.7487 70.7512 39.7487L70.4149 38.0298C66.1386 37.8205 62.2695 33.6608 62.2695 33.6608C65.9349 31.8317 65.4172 29.3747 65.4172 29.3747L69.2316 32.3555L69.6449 32.3191C69.6956 27.1624 72.9486 24.7539 73.9678 23.938C74.987 23.122 75.1612 23.9319 75.1612 23.9319C75.1612 23.9319 74.7135 25.582 76.6242 25.8105C78.5349 26.0391 79.934 24.2524 79.934 24.2524C80.5894 22.7863 81.3442 23.6953 81.3442 23.6953C84.6196 25.4344 85.2122 29.7377 85.9153 32.7447C86.4006 34.8054 87.3245 39.2462 87.9415 41.41C88.1573 42.1588 88.1141 42.9585 87.8189 43.6799C87.6221 44.1535 87.3231 44.578 86.9433 44.9233C86.5636 45.2686 86.1123 45.5262 85.6215 45.6779Z" fill="#353642"/>
<path d="M74.2128 19.6379C74.8177 19.6379 75.308 19.1485 75.308 18.5449C75.308 17.9412 74.8177 17.4519 74.2128 17.4519C73.608 17.4519 73.1177 17.9412 73.1177 18.5449C73.1177 19.1485 73.608 19.6379 74.2128 19.6379Z" fill="#D7E8F0"/>
<path d="M75.7054 20.7461C75.6102 21.4458 75.0155 21.9028 74.3955 21.8017" stroke="black" stroke-miterlimit="10"/>
<path d="M68.3643 14.6511C68.4684 15.1267 68.7195 15.5577 69.0821 15.8832C69.4447 16.2089 69.9005 16.4128 70.3854 16.466C70.4299 16.2716 70.5209 16.0908 70.6508 15.9393C71.204 15.3114 71.4137 16.5126 73.1643 15.6885C75.5958 14.5429 76.4903 15.2446 76.4903 15.2446C76.5694 15.3063 76.5491 15.8584 76.5582 15.9524C76.6109 16.5237 76.6595 17.0929 76.7193 17.6642C76.7538 18.012 76.7872 18.3578 76.8206 18.7036C76.8546 18.646 76.8917 18.5903 76.9321 18.5368C77.1671 17.7673 77.8205 16.8664 78.6543 17.277C78.8238 17.3631 78.9703 17.4882 79.0819 17.642C79.6259 18.3861 79.1832 19.0858 78.5925 19.5985C78.4426 19.7582 78.2758 19.9013 78.0951 20.0252C78.1873 20.2274 78.5652 21.0221 78.5652 21.0251C78.6037 21.106 80.0088 19.5813 80.1142 19.4144C80.2758 19.0032 80.3666 18.5677 80.3827 18.1263C80.4414 16.3124 79.7434 14.183 78.2906 13.1152C77.931 12.8503 77.8054 12.5996 77.7841 12.2487C77.783 12.2298 77.7761 12.2117 77.7644 12.1967C77.7528 12.1818 77.7369 12.1706 77.7188 12.1649C77.7008 12.1591 77.6813 12.1589 77.6632 12.1643C77.645 12.1696 77.6289 12.1805 77.6169 12.1951C77.1448 12.7168 76.003 12.641 76.003 12.641C72.0519 11.5713 70.6883 13.3043 69.8839 13.6006C69.5564 13.7173 69.1983 13.7173 68.8708 13.6006C68.8494 13.7095 68.7986 13.8104 68.7237 13.8924C68.6488 13.9744 68.5529 14.0343 68.4463 14.0657L68.4635 14.2497C68.478 14.3909 68.443 14.5328 68.3643 14.6511Z" fill="#0CCCE7"/>
<path d="M76.8418 22.0815C76.5815 22.2837 75.8541 22.8661 75.5633 23.039C75.3501 23.1676 75.126 23.2775 74.8937 23.3676C73.145 24.0258 71.5058 22.5294 70.9051 21.0319C70.4107 19.7974 70.2972 18.4182 70.3327 17.0997C70.3388 16.9632 70.3438 16.8237 70.355 16.6841C70.3535 16.6758 70.3535 16.6672 70.355 16.6589C70.3603 16.5953 70.3698 16.5321 70.3833 16.4698C70.4274 16.2752 70.5185 16.0943 70.6488 15.943C71.2009 15.3161 71.4106 16.5173 73.1613 15.6922C75.5927 14.5467 76.4883 15.2484 76.4883 15.2484C76.5663 15.31 76.546 15.8621 76.5551 15.9561C76.6078 16.5284 76.6564 17.0967 76.7172 17.668C76.7507 18.0168 76.7841 18.3616 76.8185 18.7074C76.8266 18.8024 76.8358 18.8944 76.8439 18.9885C76.8562 18.8355 76.8851 18.6842 76.93 18.5375C77.165 17.7681 77.8185 16.8682 78.6523 17.2777C78.8218 17.3638 78.9682 17.4889 79.0798 17.6427C79.6238 18.3869 79.1811 19.0865 78.5905 19.5992C78.4405 19.7275 78.2821 19.8457 78.1163 19.9531L78.0717 19.9814L78.094 20.0259C78.1862 20.2281 78.5631 21.0238 78.5631 21.0259C78.6016 21.1067 80.0068 19.583 80.1132 19.4152C80.4792 18.8514 80.7084 18.2102 80.7828 17.5426C80.7919 17.4587 80.797 17.3778 80.8 17.2938C80.8588 15.4799 80.1608 13.3505 78.708 12.2828C78.3473 12.0179 78.2217 11.7671 78.2014 11.4163C78.2003 11.3973 78.1934 11.3793 78.1818 11.3643C78.1701 11.3493 78.1542 11.3382 78.1362 11.3324C78.1182 11.3266 78.0987 11.3264 78.0806 11.3318C78.0623 11.3372 78.0462 11.3479 78.0343 11.3627C77.5622 11.8844 76.4194 11.8086 76.4194 11.8086C72.4734 10.7388 71.1047 12.4719 70.3013 12.7681C69.4979 13.0644 68.7928 12.5174 68.7928 12.5174L68.8768 13.4142C68.8824 13.4757 68.8787 13.5378 68.8657 13.5982C68.8443 13.707 68.7935 13.8079 68.7186 13.8899C68.6437 13.9719 68.5478 14.0319 68.4412 14.0633C68.4009 14.078 68.3585 14.0865 68.3156 14.0886H68.2842C68.2919 14.2754 68.3163 14.4612 68.3571 14.6437C68.4616 15.1201 68.7134 15.5515 69.077 15.8772C69.4406 16.203 69.8975 16.4063 70.3833 16.4587" stroke="black" stroke-miterlimit="10"/>
<path d="M70.9399 19.5305C71.5447 19.5305 72.0351 19.0411 72.0351 18.4375C72.0351 17.8339 71.5447 17.3445 70.9399 17.3445C70.3351 17.3445 69.8447 17.8339 69.8447 18.4375C69.8447 19.0411 70.3351 19.5305 70.9399 19.5305Z" fill="#D7E8F0"/>
<path d="M74.6701 18.9533C74.6707 19.0422 74.6449 19.1293 74.5958 19.2036C74.5467 19.2778 74.4767 19.3358 74.3946 19.3702C74.3124 19.4047 74.2219 19.414 74.1344 19.397C74.047 19.38 73.9665 19.3375 73.9033 19.2748C73.8401 19.2122 73.7969 19.1322 73.7794 19.045C73.7618 18.9579 73.7705 18.8675 73.8044 18.7853C73.8384 18.7031 73.896 18.6328 73.9701 18.5832C74.0441 18.5338 74.1313 18.5074 74.2203 18.5074C74.264 18.5065 74.3075 18.513 74.349 18.5266C74.3274 18.5471 74.3101 18.5717 74.298 18.599C74.2861 18.6262 74.2796 18.6556 74.2791 18.6854C74.2796 18.7427 74.3028 18.7974 74.3436 18.8377C74.3843 18.8781 74.4394 18.9007 74.4969 18.9007C74.5259 18.9006 74.5544 18.8946 74.581 18.8828C74.6074 18.8712 74.6312 18.8542 74.6509 18.833C74.664 18.8717 74.6705 18.9124 74.6701 18.9533Z" fill="black"/>
<path d="M71.4859 18.8068C71.4857 18.8952 71.4593 18.9814 71.41 19.0547C71.3607 19.1281 71.2908 19.1853 71.209 19.2189C71.1273 19.2526 71.0373 19.2614 70.9505 19.2441C70.8638 19.2268 70.784 19.1843 70.7215 19.1219C70.6589 19.0594 70.6163 18.9799 70.5989 18.8933C70.5817 18.8067 70.5904 18.7169 70.6243 18.6353C70.658 18.5536 70.7152 18.4839 70.7887 18.4346C70.8621 18.3855 70.9487 18.3591 71.0371 18.3589C71.0955 18.3586 71.1534 18.3699 71.2073 18.3923C71.1768 18.4126 71.1516 18.4399 71.134 18.4719C71.1163 18.5039 71.1067 18.5398 71.106 18.5763C71.1061 18.6047 71.1119 18.6327 71.1229 18.6589C71.134 18.6851 71.1501 18.7087 71.1702 18.7287C71.1905 18.7486 71.2145 18.7643 71.2408 18.775C71.2672 18.7856 71.2953 18.7909 71.3238 18.7906C71.3519 18.791 71.3796 18.7858 71.4056 18.7752C71.4315 18.7645 71.455 18.7489 71.4748 18.729C71.4815 18.7544 71.4853 18.7805 71.4859 18.8068Z" fill="black"/>
<path d="M72.5973 18.5273C72.5973 18.5273 72.3167 19.772 72.2832 19.8974C72.1819 20.3018 72.9863 20.1765 72.9863 20.1765" stroke="black" stroke-miterlimit="10"/>
<path d="M73.6265 16.178C73.6265 16.178 74.9486 15.6836 75.6841 16.6745" stroke="black" stroke-miterlimit="10"/>
<path d="M69.2314 17.1677C69.2314 17.1677 69.9123 15.9332 71.1158 16.2072" stroke="black" stroke-miterlimit="10"/>
<path d="M74.2132 19.836C74.9277 19.836 75.5069 19.2579 75.5069 18.5448C75.5069 17.8317 74.9277 17.2537 74.2132 17.2537C73.4986 17.2537 72.9194 17.8317 72.9194 18.5448C72.9194 19.2579 73.4986 19.836 74.2132 19.836Z" stroke="black" stroke-miterlimit="10"/>
<path d="M70.9397 19.7284C71.6543 19.7284 72.2335 19.1503 72.2335 18.4372C72.2335 17.724 71.6543 17.146 70.9397 17.146C70.2252 17.146 69.646 17.724 69.646 18.4372C69.646 19.1503 70.2252 19.7284 70.9397 19.7284Z" stroke="black" stroke-miterlimit="10"/>
<path d="M70.9389 17.56H70.9683C71.2012 17.5638 71.4231 17.6597 71.5852 17.8268C71.7472 17.9939 71.8362 18.2184 71.8324 18.4508C71.8287 18.6834 71.7325 18.9048 71.5652 19.0666C71.3977 19.2283 71.1728 19.317 70.9399 19.3133H70.9125C70.6796 19.3096 70.4577 19.2136 70.2956 19.0466C70.1336 18.8795 70.0446 18.6551 70.0484 18.4225C70.0521 18.1901 70.1483 17.9685 70.3156 17.8067C70.4831 17.6451 70.708 17.5563 70.9409 17.56H70.9389ZM70.9409 17.3507C70.6524 17.3461 70.3737 17.456 70.1663 17.6563C69.9589 17.8566 69.8398 18.131 69.8351 18.419C69.8304 18.7069 69.9406 18.9851 70.1413 19.1921C70.342 19.399 70.6169 19.5179 70.9054 19.5226H70.9419C71.2304 19.5272 71.5091 19.4173 71.7165 19.217C71.9239 19.0167 72.0431 18.7424 72.0477 18.4544C72.0524 18.1664 71.9423 17.8882 71.7416 17.6813C71.5409 17.4744 71.2659 17.3554 70.9774 17.3507H70.9409Z" fill="white"/>
<path d="M72.9193 18.5025L72.2324 18.4802" stroke="black" stroke-miterlimit="10"/>
<path d="M73.8898 64.7607L72.5161 73.159L71.0278 72.9366C70.7056 72.8859 70.4162 72.7107 70.2222 72.4489C70.0283 72.187 69.9454 71.8595 69.9914 71.5372L70.1019 70.6363L71.115 63.2249C72.7643 64.1895 73.8898 64.7607 73.8898 64.7607Z" fill="#0CCCE7"/>
<path d="M67.0932 75.6148L61.977 78.547L59.4443 80.002L58.6683 80.4479C58.6698 80.4332 58.6698 80.4182 58.6683 80.4034L58.0604 80.7492L57.2783 79.2498C57.0956 78.9036 57.0568 78.4995 57.1704 78.125C57.2839 77.7505 57.5408 77.4357 57.8851 77.2488L66.7498 72.4045L66.7579 72.4854L67.0932 75.6148Z" fill="#0CCCE7"/>
<path d="M59.6114 54.861C59.5557 54.7862 59.5 54.7134 59.4432 54.6497C59.1221 54.2644 58.807 54.0056 58.5943 53.5678C58.4247 53.2114 58.3757 52.8096 58.4549 52.4229C58.534 52.0363 58.7369 51.6858 59.0329 51.4242C59.1554 51.3189 59.2918 51.2307 59.4382 51.1624" stroke="black" stroke-miterlimit="10"/>
<path d="M70.3995 68.332L70.1017 70.6343L69.9872 71.5352C69.9412 71.8575 70.024 72.185 70.218 72.4469C70.412 72.7088 70.7013 72.8839 71.0236 72.9345L72.5118 73.157L73.8856 64.7587C73.8856 64.7587 72.76 64.1874 71.1127 63.2208C69.9345 62.5292 68.4787 61.6344 66.9854 60.603" stroke="black" stroke-miterlimit="10"/>
<path d="M70.1467 70.3209C70.1467 70.3209 68.5399 69.4563 66.4995 68.2117" stroke="black" stroke-miterlimit="10"/>
<g opacity="0.68">
<path opacity="0.68" d="M59.4432 31.5335V55.4321C58.9995 57.0681 58.7877 58.7688 58.6753 60.4796V31.5942C58.9245 31.9177 59.1808 31.2241 59.4432 31.5335Z" fill="#D7E8F0"/>
<path opacity="0.68" d="M59.4431 79.9681V81.3422C59.4426 82.9549 58.8005 84.5014 57.6581 85.6418C56.5156 86.7822 54.9662 87.4232 53.3504 87.4241H24.3453C22.7293 87.4236 21.1796 86.7826 20.0369 85.6422C18.8942 84.5017 18.252 82.9551 18.2515 81.3422V18.1731C18.251 17.374 18.4082 16.5827 18.7141 15.8443C19.0201 15.1059 19.4689 14.4349 20.0348 13.8696C20.6007 13.3044 21.2726 12.8559 22.0123 12.5499C22.7519 12.2439 23.5446 12.0864 24.3453 12.0862H28.2214C28.3993 12.0867 28.5767 12.1043 28.7512 12.1388C28.868 12.1632 28.983 12.195 29.0957 12.2338C29.1453 12.253 29.197 12.2722 29.2436 12.2924C29.3226 12.3252 29.3997 12.3623 29.4746 12.4037C29.5647 12.4522 29.6516 12.5062 29.735 12.5654C29.7907 12.6039 29.8434 12.6433 29.894 12.6848C29.9447 12.7262 30.0227 12.797 30.0814 12.8546L30.4867 13.3764C30.5239 13.4385 30.5577 13.5027 30.588 13.5685L30.7359 13.9416C30.7562 14.0093 30.7754 14.076 30.7896 14.1438L30.8261 14.3551C30.8311 14.3834 30.8342 14.4138 30.8372 14.4421C30.8382 14.4559 30.8382 14.4698 30.8372 14.4835C30.8433 14.5503 30.8484 14.615 30.8484 14.6857V14.713C30.8484 14.7555 30.8484 14.7939 30.8484 14.8334C30.8457 14.827 30.842 14.8212 30.8372 14.8162C30.7229 14.5999 30.576 14.4024 30.4016 14.2307C29.927 13.7566 29.283 13.49 28.6114 13.4896H24.8842C24.1133 13.49 23.3499 13.6421 22.6378 13.937C21.9257 14.2321 21.2788 14.6642 20.7341 15.2089C20.1894 15.7535 19.7576 16.3999 19.4634 17.1112C19.1692 17.8224 19.0183 18.5846 19.0194 19.354V80.1663C19.0194 81.719 19.6372 83.2081 20.737 84.3063C21.8367 85.4046 23.3285 86.0219 24.8842 86.0227H52.8114C54.3173 86.0224 55.7653 85.4439 56.8554 84.4071C57.9456 83.3702 58.5943 81.9547 58.6671 80.4535C58.6686 80.4387 58.6686 80.4238 58.6671 80.409L59.4431 79.9681Z" fill="#D7E8F0"/>
<path opacity="0.68" d="M46.5465 15.9182C46.5465 15.9566 46.5465 15.993 46.5465 16.0325C46.5427 16.7004 46.2743 17.3397 45.7996 17.8107C45.3251 18.2817 44.683 18.5461 44.0137 18.5461H33.6163C32.2152 18.5461 31.1565 17.4035 31.1504 16.0042C31.1504 15.9819 31.1504 15.9627 31.1504 15.9405C31.3596 16.3618 31.6829 16.7163 32.0837 16.9636C32.4843 17.2109 32.9465 17.3413 33.4177 17.3398H44.2093C44.5552 17.3403 44.898 17.2726 45.2177 17.1405C45.5374 17.0085 45.8279 16.8148 46.0724 16.5704C46.2636 16.3791 46.4236 16.159 46.5465 15.9182Z" fill="#D7E8F0"/>
</g>
<path d="M61.9771 41.8528C65.5807 41.1218 69.0789 40.3665 70.9389 40.3917" stroke="black" stroke-miterlimit="10"/>
<path d="M58.57 62.6889C53.1074 58.2956 48.1503 52.6607 50.2808 47.7518C51.5624 44.7923 55.3554 43.1795 59.4433 42.3049" stroke="black" stroke-miterlimit="10"/>
<path d="M70.4411 38.2261C70.5302 38.5466 70.9385 40.3929 71.0388 40.7266C71.4096 41.9308 66.6906 45.1168 65.8912 45.8327C64.4567 47.1097 63.0991 48.5475 61.9766 50.1501C61.2302 51.1958 60.6016 52.3206 60.1024 53.504C59.8417 54.132 59.6214 54.776 59.4429 55.4322C58.9991 57.0681 58.7874 58.7688 58.6749 60.4796C58.5858 61.7759 58.5523 63.0772 58.5159 64.3481C58.4409 66.7869 58.4794 69.2399 58.6395 71.6706C58.6506 71.8243 58.6618 71.9739 58.6749 72.1276C58.8012 73.5712 59.0461 75.002 59.4074 76.4056V76.4147" stroke="black" stroke-miterlimit="10"/>
<path d="M69.7432 32.5295C69.8961 27.7945 72.05 25.2667 73.9678 23.9351C74.3409 23.6799 74.7412 23.4665 75.1612 23.2991" stroke="black" stroke-miterlimit="10"/>
<path d="M80.4253 23.2678C80.5144 23.3012 80.6006 23.3376 80.6877 23.374L80.7829 23.4154C80.9932 23.5069 81.1982 23.6103 81.3969 23.7248C82.0824 24.1148 82.6812 24.6402 83.1566 25.2688C83.1749 25.2866 83.19 25.3075 83.2012 25.3305C83.2843 25.4478 83.3653 25.5671 83.4443 25.6904C84.1454 26.8027 84.7988 28.3042 85.2983 30.0382C85.5558 30.9279 85.7618 31.8316 85.9153 32.745" stroke="black" stroke-miterlimit="10"/>
<path d="M85.9153 32.7439C86.4006 34.8045 87.3256 39.2464 87.9415 41.4091C88.1576 42.1584 88.1144 42.9583 87.8189 43.6801C87.6221 44.1537 87.3231 44.5781 86.9433 44.9234C86.5636 45.2688 86.1123 45.5264 85.6215 45.678L83.7888 46.1209C83.597 46.1681 83.4278 46.2803 83.3096 46.4384C82.8937 46.9869 82.4325 47.4996 81.9308 47.9712C74.0023 55.4211 64.4619 47.7093 66.7495 72.4067L66.7576 72.4876C66.8501 73.4765 66.9619 74.519 67.0929 75.615L61.9767 78.527L59.444 79.9678L58.671 80.4087L58.0631 80.7545L57.281 79.255C57.0965 78.9087 57.0564 78.5036 57.1695 78.128C57.2825 77.7524 57.5397 77.4364 57.8848 77.249L58.6751 76.8111L59.4075 76.4067L59.443 76.3875L61.9757 74.9881L62.5147 74.6848" stroke="black" stroke-miterlimit="10"/>
<path d="M61.9778 78.5268V82.7462C61.9775 84.8623 61.135 86.8917 59.6356 88.388C58.1362 89.8843 56.1027 90.7249 53.9824 90.7249H23.7119C22.6621 90.725 21.6223 90.5187 20.6523 90.1178C19.6822 89.7169 18.8008 89.1292 18.0584 88.3883C17.3159 87.6474 16.727 86.7678 16.3252 85.7997C15.9233 84.8316 15.7166 83.794 15.7166 82.7462V16.9987C15.7166 15.9508 15.9233 14.9133 16.3252 13.9451C16.727 12.9771 17.3159 12.0974 18.0584 11.3566C18.8008 10.6157 19.6822 10.028 20.6523 9.62709C21.6223 9.22618 22.6621 9.01992 23.7119 9.02002H57.66" stroke="black" stroke-miterlimit="10"/>
<path d="M61.9769 16.9987C61.9776 16.4512 61.9221 15.9051 61.8117 15.3688C61.8117 15.3688 61.6638 14.476 61.522 14.2283" stroke="black" stroke-miterlimit="10"/>
<path d="M61.9771 50.1474V41.8553V33.2073" stroke="black" stroke-miterlimit="10"/>
<path d="M61.9771 16.9995V21.6779V27.234" stroke="black" stroke-miterlimit="10"/>
<path d="M70.102 29.7264V29.7193C69.2363 29.3319 68.4201 28.8428 67.6706 28.2623C64.5422 25.8603 62.4906 22.3228 61.9618 18.4191C61.9483 18.3228 61.9361 18.2257 61.9253 18.1279" stroke="black" stroke-miterlimit="10"/>
<path d="M59.4453 53.1065V31.5254" stroke="black" stroke-miterlimit="10"/>
<path d="M59.4451 25.462V18.1739C59.4451 16.8463 59.3286 15.273 58.6123 14.271C58.6123 14.271 56.8748 12.084 55.109 12.084H49.4741" stroke="black" stroke-miterlimit="10"/>
<path d="M51.7444 12.084H49.4741C48.7754 12.084 48.1055 12.3609 47.6115 12.8539C47.1175 13.347 46.84 14.0156 46.84 14.7129C46.84 15.41 46.5625 16.0788 46.0685 16.5717C45.5745 17.0647 44.9046 17.3418 44.2059 17.3418H33.4853C32.7867 17.3418 32.1167 17.0647 31.6227 16.5717C31.1287 16.0788 30.8512 15.41 30.8512 14.7129C30.8512 14.0156 30.5737 13.347 30.0798 12.8539C29.5858 12.3609 28.9158 12.084 28.2172 12.084H24.3451C22.7277 12.085 21.1768 12.7272 20.0337 13.8692C18.8906 15.0113 18.2488 16.5597 18.2493 18.1739V81.3421C18.2501 82.9552 18.8926 84.5021 20.0357 85.6427C21.1786 86.7834 22.7287 87.4243 24.3451 87.4249H53.3492C54.9656 87.4243 56.5156 86.7834 57.6586 85.6427C58.8017 84.5021 59.4442 82.9552 59.445 81.3421V79.969" stroke="black" stroke-miterlimit="10"/>
<path d="M61.354 9.39575C62.4573 9.86693 63.4876 11.4251 63.9881 12.4675C64.9161 14.4018 65.7255 15.882 66.8248 17.7253C67.7659 19.3057 68.6291 21.0175 70.1092 22.1742C70.8927 22.7952 71.8465 23.1644 72.8446 23.2328" stroke="black" stroke-miterlimit="10"/>
<path d="M31.4015 12.0855C31.4006 14.2691 30.807 16.4117 29.6839 18.2857C28.5608 20.1596 26.9499 21.6948 25.0227 22.7284C23.0954 23.762 20.9236 24.2553 18.7379 24.1557C16.5523 24.0562 14.4345 23.3676 12.6095 22.1633C10.2444 20.1769 8.73001 17.3629 8.37674 14.2981C8.02347 11.2332 8.85796 8.1496 10.7093 5.67905C12.5606 3.2085 15.2886 1.53815 18.3341 1.01028C21.3797 0.482424 24.5122 1.13702 27.0897 2.83992C28.4417 3.97296 29.5284 5.38795 30.2733 6.9853C31.0182 8.58266 31.4033 10.3236 31.4015 12.0855Z" fill="#0CCCE7"/>
<path d="M30.0845 12.1337C30.084 14.0678 29.5585 15.9655 28.5639 17.6255C27.5694 19.2854 26.1427 20.6454 24.4359 21.5609C22.7289 22.4766 20.8052 22.9135 18.8694 22.8254C16.9335 22.7374 15.0577 22.1276 13.4413 21.0608C11.3519 19.3 10.0153 16.8092 9.70466 14.0975C9.39414 11.3859 10.1331 8.65834 11.7706 6.47232C13.4079 4.2864 15.8201 2.80721 18.514 2.33721C21.2077 1.86719 23.9797 2.44187 26.2631 3.94372C27.4609 4.94737 28.4237 6.20073 29.084 7.61568C29.7441 9.03073 30.0857 10.5729 30.0845 12.1337Z" fill="#0CCCE7"/>
<path d="M43.1199 38.4325L34.2938 39.7601C34.0797 39.8148 33.8559 39.82 33.6395 39.7751C33.4231 39.7303 33.2199 39.6368 33.0453 39.5015C32.8707 39.3663 32.7294 39.193 32.6322 38.9949C32.5349 38.7968 32.4844 38.5793 32.4844 38.3587L33.4073 30.7896H46.5705C46.678 30.7896 46.7811 30.8321 46.857 30.908C46.9331 30.9838 46.9758 31.0867 46.9758 31.194L45.7165 35.9361C45.5375 36.5411 45.2041 37.0893 44.7489 37.5269C44.2937 37.9646 43.7323 38.2766 43.1199 38.4325Z" fill="#D7E8F0"/>
<path d="M35.5855 44.3038C36.4164 44.3038 37.09 43.6315 37.09 42.8023C37.09 41.973 36.4164 41.3008 35.5855 41.3008C34.7547 41.3008 34.0811 41.973 34.0811 42.8023C34.0811 43.6315 34.7547 44.3038 35.5855 44.3038Z" fill="#D7E8F0"/>
<path d="M41.2974 44.3038C42.1283 44.3038 42.8019 43.6315 42.8019 42.8023C42.8019 41.973 42.1283 41.3008 41.2974 41.3008C40.4666 41.3008 39.793 41.973 39.793 42.8023C39.793 43.6315 40.4666 44.3038 41.2974 44.3038Z" fill="#D7E8F0"/>
<path d="M34.602 32.3757L33.2313 32.1927L33.6162 29.3151C33.6407 29.136 33.6258 28.9536 33.5727 28.7808C33.5195 28.6079 33.4293 28.4487 33.3084 28.314C33.1875 28.1794 33.0387 28.0726 32.8722 28.001C32.7059 27.9294 32.5259 27.8949 32.3448 27.8995L31.1635 27.9299C30.9801 27.9345 30.8024 27.8663 30.6695 27.7402C30.5365 27.6141 30.4591 27.4405 30.4543 27.2575C30.4519 27.167 30.4674 27.0768 30.4999 26.9922C30.5324 26.9076 30.5813 26.8303 30.6438 26.7645C30.7062 26.6988 30.7811 26.6459 30.8639 26.6091C30.9469 26.5722 31.0363 26.5521 31.127 26.5497L32.3093 26.5194C32.722 26.5064 33.1318 26.5912 33.5051 26.767C33.8785 26.9428 34.2047 27.2045 34.4571 27.5305C34.6757 27.8216 34.8341 28.1531 34.9229 28.5059C35.0119 28.8586 35.0295 29.2255 34.9748 29.585L34.602 32.3757Z" fill="#D7E8F0"/>
<path d="M49.6181 48.7026H28.0776C26.8824 48.7026 25.9136 49.6696 25.9136 50.8624V56.4366C25.9136 57.6294 26.8824 58.5964 28.0776 58.5964H49.6181C50.8133 58.5964 51.7821 57.6294 51.7821 56.4366V50.8624C51.7821 49.6696 50.8133 48.7026 49.6181 48.7026Z" fill="#D7E8F0"/>
<path d="M17.8491 64.4714C20.6453 63.6625 23.0443 60.6079 19.6869 58.0802C19.5643 57.9912 19.4498 57.9103 19.3404 57.8456C19.5245 57.6657 19.7504 57.5342 19.9979 57.4627C20.2454 57.3912 20.5068 57.3821 20.7587 57.4361C20.7669 57.4361 20.778 57.4361 20.7861 57.4421C20.8035 57.4441 20.8206 57.4485 20.8368 57.4553C21.2025 57.5392 21.6108 57.7374 22.0656 58.0802C25.418 60.6079 20.782 63.889 17.8491 64.4714Z" fill="#0CCCE7"/>
<path d="M31.6738 51.0399C32.2143 50.9587 32.7604 50.9201 33.3069 50.9247C34.0435 50.9247 34.4882 50.9783 34.8874 51.1775C35.0957 51.2665 35.273 51.415 35.3972 51.6042C35.5213 51.7934 35.5868 52.015 35.5854 52.2411C35.5854 52.6699 35.3473 53.0915 34.7415 53.321V53.3362C35.3706 53.5121 35.7546 53.9792 35.7546 54.592C35.7549 54.8135 35.7021 55.0319 35.6006 55.2289C35.4991 55.4259 35.3518 55.5958 35.1711 55.7244C34.7871 56.0156 34.1438 56.1845 33.0435 56.1845C32.5868 56.1939 32.1302 56.163 31.6789 56.0925L31.6738 51.0399ZM33.0466 52.9459H33.3262C33.9168 52.9459 34.2015 52.7437 34.2015 52.41C34.2015 52.1067 33.9705 51.9206 33.5035 51.9206C33.3519 51.9179 33.2005 51.928 33.0506 51.951L33.0466 52.9459ZM33.0466 55.1592C33.1792 55.1726 33.3125 55.1773 33.4457 55.1734C33.9057 55.1734 34.2967 54.9893 34.2967 54.5313C34.2967 54.0945 33.8976 53.9246 33.3758 53.9246H33.0466V55.1592Z" fill="white"/>
<path d="M37.8966 50.9602V53.8924C37.8966 54.673 38.166 55.1058 38.707 55.1058C39.248 55.1058 39.5276 54.7074 39.5276 53.8924V50.9602H40.9247V53.8115C40.9247 55.404 40.1264 56.2069 38.6766 56.2069C37.2654 56.2069 36.5137 55.4344 36.5137 53.7802V50.9602H37.8966Z" fill="white"/>
<path d="M43.0704 56.1229V54.0411L41.4443 50.9602H43.0319L43.4685 52.124C43.6073 52.484 43.7066 52.7438 43.8221 53.0805H43.8373C43.9386 52.7671 44.0399 52.4738 44.1676 52.124L44.589 50.9602H46.1532L44.4583 53.9844V56.1199L43.0704 56.1229Z" fill="white"/>
<path d="M20.764 57.4363C20.5121 57.3822 20.2506 57.3914 20.0031 57.4628C19.7556 57.5342 19.5297 57.6658 19.3456 57.8458C17.6396 59.3766 17.5616 64.4716 17.5616 64.4716H17.1087C17.1087 64.4716 16.0145 58.5404 17.6365 57.5475H17.6426C17.67 57.5364 17.7854 57.4858 17.9465 57.4302C17.9465 57.4302 17.9546 57.4302 17.9577 57.4302C18.1677 57.3579 18.3846 57.3073 18.605 57.2795C19.3284 57.2146 20.0576 57.2676 20.764 57.4363Z" fill="#D7E8F0"/>
<path d="M31.4015 12.086C31.4012 14.8374 30.4603 17.5065 28.734 19.6517C27.0077 21.797 24.5997 23.2902 21.9079 23.8845C19.216 24.4786 16.4017 24.1382 13.9299 22.9197C11.4582 21.701 9.47721 19.677 8.31427 17.1823C7.15143 14.6876 6.87627 11.8716 7.53448 9.19959C8.1927 6.52773 9.74477 4.15999 11.9341 2.48782C14.1234 0.81565 16.819 -0.0608311 19.5751 0.00328348C22.3312 0.0673879 24.9829 1.06825 27.0918 2.84039C28.442 3.97481 29.5273 5.39013 30.2718 6.98718C31.0162 8.58433 31.4018 10.3246 31.4015 12.086Z" stroke="black" stroke-miterlimit="10"/>
<path d="M14.9113 74.7676V80.0254H3.058C2.91876 80.0256 2.78088 79.998 2.65245 79.9443C2.52403 79.8906 2.40763 79.8118 2.31008 79.7127C2.21251 79.6135 2.13576 79.4959 2.08432 79.3668C2.03287 79.2377 2.00776 79.0996 2.01045 78.9607L2.06921 75.7969C2.07426 75.5231 2.18688 75.2621 2.38282 75.0704C2.57875 74.8786 2.84233 74.7713 3.11676 74.7716L14.9113 74.7676Z" fill="#D7E8F0"/>
<path d="M33.7153 75.8124V78.9762C33.7153 79.2534 33.605 79.5194 33.4084 79.7154C33.212 79.9115 32.9456 80.0217 32.6678 80.0217H14.9111V74.7639H32.6678C32.8055 74.7639 32.942 74.791 33.0693 74.8438C33.1966 74.8965 33.3123 74.9738 33.4095 75.0712C33.5069 75.1686 33.584 75.2842 33.6365 75.4114C33.6889 75.5386 33.7157 75.6748 33.7153 75.8124Z" fill="#0CCCE7"/>
<path d="M16.6962 80.0212V90.7238H5.33828C4.85422 90.7227 4.39012 90.5309 4.04708 90.1901C3.70405 89.8492 3.5098 89.387 3.50659 88.9038V80.0263L16.6962 80.0212Z" fill="#D7E8F0"/>
<path d="M31.676 80.0212V88.8988C31.6728 89.3819 31.4785 89.8442 31.1355 90.185C30.7925 90.5259 30.3284 90.7177 29.8443 90.7188H16.6963V80.0212H31.676Z" fill="#0CCCE7"/>
<path d="M16.5979 8.00819C17.9443 8.00819 18.6737 8.98291 18.6737 10.17C18.6737 11.6816 17.6414 12.4955 16.531 12.4955C15.3406 12.4955 14.4319 11.6219 14.4319 10.3004C14.4319 9.05773 15.2292 8.00415 16.5868 8.00415L16.5979 8.00819ZM16.5533 9.08402C16.0934 9.08402 15.913 9.59867 15.913 10.2599C15.913 10.9536 16.1268 11.4247 16.5756 11.4247C16.9808 11.4247 17.1926 11.0324 17.1926 10.2599C17.1926 9.58755 17.0244 9.08402 16.5645 9.08402H16.5533ZM16.6881 15.5349L20.8418 8.03145H21.8782L17.7366 15.5349H16.6881ZM22.0747 11.0324C23.4211 11.0324 24.1506 12.0061 24.1506 13.1942C24.1506 14.7058 23.1182 15.5197 22.0068 15.5197C20.8175 15.5197 19.9087 14.6461 19.9087 13.3135C19.9087 12.0809 20.705 11.0284 22.0636 11.0284L22.0747 11.0324ZM22.0291 12.1082C21.5692 12.1082 21.3899 12.6229 21.3899 13.2842C21.3899 13.9778 21.6036 14.449 22.0524 14.449C22.4577 14.449 22.6694 14.0445 22.6694 13.272C22.6694 12.6007 22.5012 12.1082 22.0413 12.1082H22.0291Z" fill="white"/>
<path d="M16.4479 64.4163C14.6375 64.4163 11.2811 62.9411 13.0571 60.9654C13.2445 60.7408 13.4776 60.5585 13.7409 60.4305L13.7551 60.4214H13.7612C14.186 60.2236 14.6406 60.0972 15.1066 60.0473C15.2565 60.0348 15.4075 60.0396 15.5564 60.0614C15.3194 60.0503 15.0428 60.1787 14.7155 60.4912C14.6578 60.5437 14.596 60.6105 14.5322 60.6802C12.7603 62.6519 14.6183 64.2575 16.4479 64.4163Z" fill="#D7E8F0"/>
<path d="M16.914 64.3264L16.6324 64.38C16.6324 64.38 15.9617 61.2334 14.7156 60.4892C15.0428 60.1768 15.3234 60.0484 15.5565 60.0595C15.5611 60.0606 15.566 60.0606 15.5706 60.0595L15.6719 60.0737L15.7074 60.0817C16.8694 60.4387 16.914 64.3264 16.914 64.3264Z" fill="#0CCCE7"/>
<path d="M16.6951 74.7664H3.11959C2.84489 74.7664 2.58117 74.8739 2.38524 75.0662C2.1893 75.2583 2.07683 75.5195 2.07205 75.7936L2.01531 78.9574C2.01275 79.0963 2.03796 79.2344 2.08946 79.3635C2.14096 79.4925 2.21771 79.61 2.31524 79.7092C2.41277 79.8083 2.52912 79.887 2.65748 79.9407C2.78585 79.9945 2.92366 80.0221 3.06286 80.0221H32.6667C32.8044 80.0221 32.9406 79.995 33.0678 79.9424C33.1949 79.8899 33.3105 79.8127 33.4078 79.7155C33.505 79.6184 33.5822 79.503 33.6348 79.376C33.6874 79.2491 33.7143 79.113 33.7142 78.9756V75.8118C33.7142 75.5346 33.6039 75.2687 33.4074 75.0726C33.2109 74.8766 32.9445 74.7664 32.6667 74.7664H13.0703" stroke="black" stroke-miterlimit="10"/>
<path d="M29.8442 90.7248H5.33727C4.85209 90.7232 4.38718 90.5301 4.04424 90.1875C3.70121 89.8451 3.50793 89.381 3.50659 88.8967V80.0222H31.6708V88.8967C31.6692 89.3802 31.4764 89.8434 31.1344 90.1858C30.7922 90.5282 30.3286 90.7219 29.8442 90.7248Z" stroke="black" stroke-miterlimit="10"/>
<path d="M28.1261 65.1458V67.1863C28.1261 67.3651 28.0549 67.5366 27.9281 67.6631C27.8015 67.7896 27.6296 67.8607 27.4504 67.8607H15.9922V64.4714H27.4504C27.6296 64.4714 27.8015 64.5425 27.9281 64.669C28.0549 64.7954 28.1261 64.967 28.1261 65.1458Z" fill="#0CCCE7"/>
<path d="M15.9923 64.4714V67.8607H8.34842C8.25876 67.8606 8.17001 67.8427 8.08734 67.808C8.00478 67.7734 7.92981 67.7227 7.86689 67.659C7.80408 67.5952 7.75454 67.5195 7.72121 67.4365C7.68778 67.3534 7.67136 67.2646 7.67268 67.1751L7.70915 65.1317C7.7126 64.9551 7.78534 64.7871 7.91177 64.6636C8.03811 64.5402 8.208 64.4711 8.38489 64.4714H15.9923Z" fill="#D7E8F0"/>
<path d="M26.811 67.8606V73.5885C26.8099 73.9015 26.6847 74.2012 26.4628 74.4221C26.2408 74.643 25.9402 74.7673 25.6267 74.7675H17.145V67.8606H26.811Z" fill="#0CCCE7"/>
<path d="M17.1451 67.8606V74.7675H9.82239C9.50934 74.7668 9.20936 74.6423 8.988 74.4214C8.76664 74.2005 8.64192 73.901 8.64111 73.5885V67.8606H17.1451Z" fill="#D7E8F0"/>
<path d="M14.9102 74.7664V80.0221" stroke="black" stroke-miterlimit="10"/>
<path d="M16.6953 80.0222V90.7248" stroke="black" stroke-miterlimit="10"/>
<path d="M28.1261 65.1458V67.1863C28.1261 67.3651 28.0549 67.5366 27.9281 67.6631C27.8015 67.7896 27.6296 67.8607 27.4504 67.8607H15.9922V64.4714H27.4504C27.6296 64.4714 27.8015 64.5425 27.9281 64.669C28.0549 64.7954 28.1261 64.967 28.1261 65.1458Z" stroke="black" stroke-miterlimit="10"/>
<path d="M15.9923 64.4714V67.8607H8.34842C8.25876 67.8606 8.17001 67.8427 8.08734 67.808C8.00478 67.7734 7.92981 67.7227 7.86689 67.659C7.80408 67.5952 7.75454 67.5195 7.72121 67.4365C7.68778 67.3534 7.67136 67.2646 7.67268 67.1751L7.70915 65.1317C7.7126 64.9551 7.78534 64.7871 7.91177 64.6636C8.03811 64.5402 8.208 64.4711 8.38489 64.4714H15.9923Z" stroke="black" stroke-miterlimit="10"/>
<path d="M26.811 67.8606V73.5885C26.8099 73.9015 26.6847 74.2012 26.4628 74.4221C26.2408 74.643 25.9402 74.7673 25.6267 74.7675H17.145V67.8606H26.811Z" stroke="black" stroke-miterlimit="10"/>
<path d="M17.1451 67.8606V74.7675H9.82239C9.50934 74.7668 9.20936 74.6423 8.988 74.4214C8.76664 74.2005 8.64192 73.901 8.64111 73.5885V67.8606H17.1451Z" stroke="black" stroke-miterlimit="10"/>
<path d="M18.3384 64.4704C21.1396 63.6615 25.4503 60.6089 22.099 58.0812C21.738 57.7886 21.3193 57.5753 20.8701 57.4553C20.8541 57.4482 20.8369 57.4442 20.8195 57.4432C20.5639 57.3833 20.2972 57.389 20.0444 57.4597C19.7917 57.5304 19.561 57.6639 19.3738 57.8476" stroke="black" stroke-miterlimit="10"/>
<path d="M19.374 57.8453C17.6669 59.3771 17.5899 64.4701 17.5899 64.4701H17.136C17.136 64.4701 15.4472 55.3236 19.374 57.8453Z" stroke="black" stroke-miterlimit="10"/>
<path d="M17.8836 64.4705H17.5898C17.5898 64.4705 17.6668 59.3775 19.3739 57.8457C19.493 57.9183 19.6082 57.997 19.7194 58.0813C23.0768 60.6091 20.6788 63.6667 17.8836 64.4705Z" stroke="black" stroke-miterlimit="10"/>
<path d="M17.7134 57.4938C18.0101 57.3864 18.318 57.3125 18.6312 57.2733C19.3807 57.2085 20.1359 57.2697 20.8651 57.4543" stroke="black" stroke-miterlimit="10"/>
<path d="M16.2048 64.4708C14.3701 64.3131 11.3247 62.94 13.0946 60.9663C13.2825 60.7408 13.5163 60.5578 13.7805 60.4294C13.7894 60.4231 13.7993 60.4184 13.8099 60.4153C13.9609 60.3472 14.1268 60.3182 14.292 60.3311C14.4572 60.3441 14.6165 60.3984 14.7551 60.4891" stroke="black" stroke-miterlimit="10"/>
<path d="M14.75 60.4888C15.9961 61.2309 16.6637 64.3805 16.6637 64.3805L16.9454 64.3249C16.9454 64.3249 16.8775 58.4483 14.75 60.4888Z" stroke="black" stroke-miterlimit="10"/>
<path d="M16.4815 64.4154L16.6638 64.3801C16.6638 64.3801 15.9962 61.2304 14.7501 60.4883C14.6913 60.5409 14.6295 60.6066 14.5647 60.6764C12.7918 62.6511 14.6508 64.2557 16.4815 64.4154Z" stroke="black" stroke-miterlimit="10"/>
<path d="M15.7378 60.0687C15.5404 60.0379 15.3403 60.0294 15.1411 60.0434C14.6674 60.0941 14.2059 60.2241 13.7754 60.4276" stroke="black" stroke-miterlimit="10"/>
<path d="M75.7752 23.3571L76.1714 24.0649C76.1714 24.0649 75.5919 25.351 77.1449 25.5735C78.698 25.7959 80.7425 24.2722 80.7982 23.2661C83.184 24.1862 84.4454 26.5017 84.4676 28.9809C84.5082 35.1184 76.5958 38.8392 71.3085 38.2831C68.6511 38.0051 66.1416 36.8352 64.0466 35.1841C63.7669 34.9677 63.4985 34.7402 63.2361 34.5056C62.7051 34.0224 62.2076 33.5038 61.7468 32.9536C61.5084 32.6705 61.276 32.3809 61.0498 32.085" stroke="black" stroke-miterlimit="10"/>
<path d="M79.166 20.4768L80.6877 23.3736" stroke="black" stroke-miterlimit="10"/>
<path d="M0.166504 90.7241H88.1665" stroke="black" stroke-miterlimit="10"/>
<path d="M60.8829 9.22266H60.8697C60.3794 9.30557 59.7898 9.74136 59.4838 10.3056C59.1333 10.9436 59.0928 11.7211 59.0178 12.0507C59.0097 12.0881 59.0016 12.1245 58.9975 12.1579C58.9888 12.186 58.9821 12.2147 58.9773 12.2439L58.9641 12.2934C58.9172 12.4531 58.8122 12.5895 58.6699 12.6758C58.5274 12.7623 58.3578 12.7925 58.1942 12.7606C58.0307 12.7287 57.8849 12.637 57.7855 12.5034C57.6863 12.3698 57.6405 12.2041 57.6572 12.0386L57.6856 11.8081C57.6947 11.7252 57.7068 11.6473 57.723 11.5694C57.7559 11.3436 57.8056 11.1205 57.872 10.9021C57.8809 10.8678 57.8916 10.8341 57.9044 10.801C57.9166 10.7488 57.9333 10.6978 57.954 10.6483C57.9638 10.6217 57.9749 10.5957 57.9875 10.5705" stroke="black" stroke-miterlimit="10"/>
<path d="M62.1266 13.8284C61.8199 14.1217 61.5268 14.2679 61.2472 14.2673C61.1287 14.2674 61.0115 14.2408 60.9048 14.1894C60.8044 14.1444 60.7138 14.0802 60.6383 14.0003C60.385 13.7405 60.3952 13.3047 60.5157 13.0125C60.603 12.8228 60.7211 12.6489 60.8652 12.4978C60.9108 12.4463 60.9554 12.3967 60.9949 12.3431C61.1282 12.1916 61.229 12.0143 61.2908 11.8224C61.2908 11.8113 61.2908 11.8012 61.2958 11.79" stroke="black" stroke-miterlimit="10"/>
<path d="M59.7217 8.93921C59.9111 8.9746 60.0935 9.01808 60.2799 9.06054C60.4663 9.10301 60.673 9.16165 60.8675 9.22232C61.3132 9.35387 61.7306 9.5667 62.0984 9.85022C63.0973 10.5873 63.307 11.8441 62.5867 12.7713" stroke="black" stroke-miterlimit="10"/>
<path d="M59.0174 12.0502C59.0174 12.0593 59.0174 12.0674 59.0123 12.0785C59.0098 12.1125 59.005 12.1463 58.9982 12.1796L58.9759 12.4102C58.9627 12.5347 58.9849 12.6605 59.04 12.773C59.0952 12.8855 59.1809 12.9802 59.2876 13.0464C59.3942 13.1124 59.5173 13.1472 59.6428 13.1466C59.7683 13.146 59.8911 13.1102 59.9971 13.0431C60.0734 12.996 60.1391 12.9335 60.19 12.8597C60.2409 12.786 60.276 12.7025 60.2929 12.6144C60.3121 12.5285 60.3284 12.4354 60.3506 12.3475C60.4317 12.0057 60.4621 11.7004 60.7174 11.4375C60.7892 11.3632 60.8749 11.3034 60.9696 11.2615C60.9935 11.2514 61.0183 11.2435 61.0436 11.2383" stroke="black" stroke-miterlimit="10"/>
<path d="M56.3097 11.4457V11.4194C56.353 10.9821 56.4687 10.555 56.6521 10.1555C56.7656 9.90581 56.9177 9.67547 57.1029 9.47305C57.3932 9.14636 57.7862 8.92806 58.2173 8.85425C58.3419 8.83605 58.4645 8.82392 58.5902 8.81785C58.9689 8.81249 59.3468 8.85324 59.7157 8.93918C59.4118 8.96244 58.891 9.287 58.5152 9.69549C58.3647 9.85029 58.239 10.0272 58.1424 10.2203C58.0948 10.3214 58.0411 10.4326 58.0036 10.5398C57.9651 10.6267 57.9316 10.7147 57.9023 10.8006C57.8141 11.0494 57.7381 11.2951 57.6804 11.5216C57.6541 11.6227 57.6297 11.7238 57.6105 11.8148C57.5791 11.9833 57.4867 12.1344 57.3508 12.2393C57.2151 12.3444 57.0453 12.3959 56.874 12.384C56.6996 12.3637 56.5402 12.2755 56.4306 12.1386C56.321 12.0017 56.2699 11.8272 56.2884 11.653L56.3087 11.4457" stroke="black" stroke-miterlimit="10"/>
<path d="M55.5132 29.1513C55.341 28.8065 55.2296 28.4283 55.3957 28.0987C55.7716 27.3505 56.9802 27.7468 57.6873 27.2898C58.2952 26.9005 58.2334 26.4385 58.5657 25.8621C58.9537 25.1877 59.6528 25.4577 60.1867 25.7934C60.8685 26.2191 62.3577 27.7145 64.7456 29.1877C65.4884 29.6485 66.1992 30.159 66.8731 30.7155C68.7504 32.2594 73.4269 34.9348 77.4925 27.7377" stroke="black" stroke-miterlimit="10"/>
<path d="M61.1479 32.2046C60.8146 31.8659 60.4519 31.508 59.9839 31.423C59.4844 31.331 58.9859 31.5666 58.4804 31.5909C57.2353 31.6475 56.3114 30.4898 55.6701 29.423C55.6174 29.3371 55.5688 29.2451 55.5171 29.1531" stroke="black" stroke-miterlimit="10"/>
<path d="M58.1779 30.5536C58.1779 30.5536 56.9875 31.1916 56.481 30.5354" stroke="black" stroke-miterlimit="10"/>
<path d="M55.7744 29.6023C55.7744 29.6023 56.7419 30.2595 57.4207 29.7115" stroke="black" stroke-miterlimit="10"/>
<path d="M55.3257 28.7336C55.3257 28.7336 56.1676 29.2483 56.5292 28.8792" stroke="black" stroke-miterlimit="10"/>
</svg>
