<svg width="1096" height="255" viewBox="0 0 1096 255" fill="none" xmlns="http://www.w3.org/2000/svg">
<path d="M417.646 172.527L411.228 91.8088H410.964L386.175 156.258C383.879 162.263 378.804 167.184 371.693 167.184C364.59 167.184 358.961 161.249 357.214 156.258L332.972 92.6181H332.712L325.744 172.527L302.095 172.51L314.173 58.7268C314.966 52.4438 320.097 45.2904 327.074 45.2904C337.769 45.2904 342.051 51.5735 344.183 57.8566L371.563 126.944H371.827L399.202 57.8566C401.612 51.5735 405.759 45.2904 416.32 45.2904C423.297 45.2904 428.428 52.4438 429.217 60.1932L441.186 172.51L417.646 172.527Z" fill="#9CA3AF"/>
<path d="M453.696 76.2895H475.736V172.516H453.696V76.2895Z" fill="#9CA3AF"/>
<path d="M975.03 76.2895H997.071V172.516H975.03V76.2895Z" fill="#9CA3AF"/>
<path d="M487.939 110.047C487.939 81.8685 498.682 75.2243 516.732 75.2243H540.285C568.804 75.2243 572.509 73.362 572.323 100.609L520.671 100.522C510.11 100.522 508.52 107.253 508.52 119.219V129.583C508.52 143.538 510.504 148.855 519.982 148.855L573.133 148.811C573.133 165.024 572.921 173.578 552.8 173.578H516.732C498.682 173.578 487.939 166.93 487.939 138.751V110.047Z" fill="#9CA3AF"/>
<path d="M668.836 110.977V104.864C668.836 87.5856 664.689 76.2856 649.257 76.2856H585.211V172.512H605.249V147.523H640.321C646.548 147.523 648.529 150.852 648.529 160.951V172.512H668.572V156.169C668.572 140.352 663.605 136.497 657.647 134.896V134.635C666.855 131.441 668.836 123.866 668.836 110.977ZM649.343 113.506C649.343 120.411 647.359 123.605 641.942 123.605H605.249V100.208H640.139C646.457 100.208 649.343 101.81 649.343 110.312V113.506Z" fill="#9CA3AF"/>
<path d="M680.923 110.047C680.923 81.8685 691.662 75.2243 709.711 75.2243H741.841C759.89 75.2243 770.629 81.8685 770.629 110.047V138.751C770.629 166.93 759.89 173.578 741.841 173.578H709.711C691.662 173.578 680.923 166.93 680.923 138.751V110.047ZM701.499 129.583C701.499 143.538 703.488 148.855 712.962 148.855H738.595C748.068 148.855 750.053 143.538 750.053 129.583V119.219C750.053 107.253 748.068 99.9433 737.507 99.9433H714.045C703.488 99.9433 701.499 107.253 701.499 119.219V129.583Z" fill="#9CA3AF"/>
<path d="M878.542 76.2875H898.572V110.579H940.815V76.2875H960.85V172.514H940.815V136.094H898.572V172.514H878.542V76.2875Z" fill="#9CA3AF"/>
<path d="M1072.04 76.2875H1010.11V172.514H1030.15V148.326H1077.27C1091.45 148.326 1095.69 131.839 1095.69 117.493V109.248C1095.69 90.3766 1091.08 76.2875 1072.04 76.2875ZM1075.11 114.164C1075.11 119.882 1073.31 124.398 1068.61 124.398H1030.15V100.21H1066.9C1072.94 100.21 1075.11 103.931 1075.11 110.444V114.164Z" fill="#9CA3AF"/>
<path d="M781.507 110.193C781.507 82.015 792.246 75.3708 810.295 75.3708H833.852C862.372 75.3708 865.951 73.5041 865.769 100.755L814.239 100.664C803.673 100.664 802.083 107.4 802.083 119.361V129.726C802.083 143.684 804.072 148.997 813.545 148.997L866.701 148.953C866.701 165.17 866.493 173.725 846.368 173.725H810.295C792.246 173.725 781.507 167.076 781.507 138.893V110.193Z" fill="#9CA3AF"/>
<path d="M188.798 12.9811C171.654 4.85744 155.802 0.828261 135.399 0.467114C61.8541 -0.816481 1.24025 55.0134 0.0181763 125.167C-0.189836 137.316 1.39192 149.094 4.5381 160.281L42.5566 106.766L68.2981 147.219C68.2981 147.219 76.0336 156.026 70.1659 164.933C69.8019 165.49 35.2415 213.422 35.2415 213.422C59.1109 238.533 92.6918 253.862 130.988 254.532C168.14 255.189 201.304 241.583 225.863 218.604L144.998 90.4449C144.998 90.4449 157.752 72.4746 167.723 58.2332C178.705 42.5603 188.59 53.5035 191.888 58.6858C215.597 96.0101 260.085 166.799 260.085 166.799L260.107 166.39C264.666 155.865 267.002 152.675 267.491 137.516L188.798 12.9811ZM169.613 166.442C169.613 166.442 148.088 197.962 145.882 200.969C132.712 218.935 123.027 198.193 123.027 198.193L54.5303 90.0838C54.5303 90.0838 67.2797 72.1178 77.26 57.8765C88.2369 42.1992 98.1218 53.1467 101.42 58.329C125.129 95.649 169.613 166.442 169.613 166.442" fill="#9CA3AF"/>
<path d="M209.828 19.7474C209.828 13.8254 214.608 9.47427 220.25 9.47427C225.845 9.47427 230.616 13.8254 230.616 19.7474C230.616 25.7085 225.845 30.0684 220.25 30.0684C214.608 30.0684 209.828 25.7085 209.828 19.7474ZM220.25 28.3496C224.892 28.3496 228.554 24.6947 228.554 19.7474C228.554 14.8697 224.892 11.1886 220.25 11.1886C215.557 11.1886 211.891 14.8697 211.891 19.7474C211.891 24.6947 215.557 28.3496 220.25 28.3496M218.084 25.7085H216.289V13.8254H220.792C223.587 13.8254 224.978 14.8697 224.978 17.2107C224.978 19.3384 223.644 20.2652 221.91 20.4827L225.273 25.7085H223.262L220.142 20.5567H218.084V25.7085M220.229 19.0381C221.745 19.0381 223.098 18.925 223.098 17.0975C223.098 15.6355 221.771 15.3527 220.519 15.3527H218.084V19.0381H220.229Z" fill="#9CA3AF"/>
</svg>
