<svg width="209" height="267" viewBox="0 0 209 267" fill="none" xmlns="http://www.w3.org/2000/svg">
<path d="M37.5608 24.775C62.8992 37.8433 77.6299 48.4147 85.6996 57.4182C81.567 73.9882 60.0077 74.7444 52.1244 74.2796C53.7385 73.528 55.0853 72.6278 55.5628 71.2446C53.5847 69.8383 46.5709 71.0964 41.6742 68.3444C43.5552 67.9546 44.435 67.5748 45.3149 66.1862C40.6886 64.7102 35.7054 63.4382 32.7747 60.993C34.3563 61.0126 35.833 61.347 37.8985 59.9139C33.7547 57.68 29.3331 55.9096 25.8979 52.4951C28.0403 52.4426 30.3501 52.4739 31.0217 51.6858C27.2292 49.3353 24.0293 46.7212 21.3805 43.8622C24.3787 44.2242 25.6447 43.9125 26.3696 43.3901C23.5028 40.4526 19.8743 37.9723 18.1444 34.3526C20.3705 35.1202 22.4071 35.414 23.8752 34.2852C22.9011 32.0866 18.7272 30.7899 16.3242 25.6521C18.6677 25.8794 21.1534 26.1636 21.6505 25.6521C20.5627 21.2188 18.6963 18.7265 16.8657 16.1442C21.8813 16.0696 29.4804 16.1636 29.1362 15.7395L26.0349 12.5696C30.9342 11.25 35.9472 12.7815 39.5864 13.9185C41.2205 12.6286 39.5575 10.9975 37.5639 9.33222C41.7274 9.88829 45.4897 10.8458 48.8902 12.1649C50.7072 10.5238 47.7104 8.88259 46.2608 7.24144C52.6931 8.46227 55.4184 10.1776 58.1268 11.8952C60.0918 10.011 58.2393 8.40971 56.9132 6.76953C61.7633 8.5665 64.2614 10.8865 66.8915 13.1766C67.7832 11.9728 69.1569 11.0904 67.4983 8.18562C70.9418 10.1712 73.5353 12.5111 75.4539 15.1325C77.5845 13.7754 76.7233 11.9195 76.7349 10.209C80.3136 13.1212 82.5847 16.2203 85.3648 19.2465C85.9248 18.8386 86.4151 17.4552 86.848 15.2672C95.3858 23.5533 107.45 44.4239 89.9493 52.6988C75.0553 40.4106 57.2676 31.4787 37.5557 24.7784L37.5608 24.775Z" fill="#9CA3AF"/>
<path d="M172.006 24.7749C146.67 37.8442 131.94 48.4127 123.87 57.418C128.003 73.9881 149.562 74.7442 157.446 74.2794C155.832 73.5278 154.485 72.6276 154.007 71.2444C155.985 69.8381 162.999 71.0963 167.896 68.3443C166.015 67.9544 165.135 67.5747 164.255 66.186C168.881 64.71 173.865 63.438 176.795 60.9928C175.214 61.0124 173.737 61.3468 171.672 59.9137C175.815 57.6798 180.237 55.9094 183.672 52.4949C181.53 52.4425 179.22 52.4737 178.548 51.6856C182.341 49.3351 185.541 46.7211 188.19 43.862C185.191 44.2241 183.925 43.9123 183.2 43.3899C186.067 40.4525 189.696 37.9721 191.426 34.3524C189.2 35.12 187.163 35.4138 185.695 34.285C186.669 32.0864 190.843 30.7897 193.246 25.6519C190.902 25.8793 188.417 26.1634 187.92 25.6519C189.009 21.2168 190.876 18.7244 192.706 16.1422C187.691 16.0677 180.092 16.1617 180.436 15.7375L183.537 12.5676C178.638 11.2481 173.625 12.7796 169.986 13.9165C168.351 12.6266 170.014 10.9956 172.008 9.33027C167.845 9.88633 164.082 10.8439 160.682 12.163C158.865 10.5218 161.862 8.88063 163.311 7.23948C156.879 8.46032 154.154 10.1756 151.445 11.8933C149.48 10.0091 151.333 8.40776 152.659 6.76758C147.809 8.56455 145.311 10.8845 142.68 13.1747C141.789 11.9708 140.415 11.0884 142.074 8.18367C138.63 10.1693 136.037 12.5092 134.118 15.1306C131.987 13.7735 132.849 11.9175 132.837 10.2071C129.258 13.1193 126.987 16.2184 124.207 19.2445C123.647 18.8366 123.157 17.4533 122.724 15.2652C114.186 23.5514 102.122 44.4219 119.623 52.6969C134.509 40.406 152.295 31.4749 172.009 24.7746L172.006 24.7749Z" fill="#9CA3AF"/>
<path d="M135.468 193.507C135.49 197.196 134.72 200.852 133.204 204.266C131.688 207.68 129.456 210.784 126.636 213.399C123.815 216.015 120.462 218.09 116.77 219.507C113.077 220.923 109.117 221.652 105.118 221.652C101.119 221.652 97.1589 220.923 93.4661 219.507C89.7733 218.09 86.4204 216.015 83.6 213.399C80.7795 210.784 78.5473 207.68 77.0315 204.266C75.5157 200.852 74.7462 197.196 74.7673 193.507C74.7462 189.818 75.5157 186.161 77.0315 182.747C78.5473 179.333 80.7795 176.229 83.6 173.614C86.4204 170.998 89.7733 168.923 93.4661 167.507C97.1589 166.09 101.119 165.361 105.118 165.361C109.117 165.361 113.077 166.09 116.77 167.507C120.462 168.923 123.815 170.998 126.636 173.614C129.456 176.229 131.688 179.333 133.204 182.747C134.72 186.161 135.49 189.818 135.468 193.507V193.507Z" fill="#9CA3AF"/>
<path d="M87.5559 113.526C90.5462 115.485 93.0492 118.119 94.9221 121.277C96.7949 124.435 98.0008 128.055 98.471 131.93C98.9412 135.805 98.6665 139.859 97.6625 143.861C96.6585 147.864 94.9449 151.735 92.6196 155.255C90.2942 158.776 87.4027 161.875 84.11 164.378C80.8173 166.88 77.188 168.735 73.4293 169.839C69.6706 170.942 65.856 171.271 62.2035 170.808C58.5509 170.344 55.1319 169.097 52.1416 167.137C49.1513 165.177 46.6483 162.543 44.7755 159.385C42.9027 156.228 41.6968 152.608 41.2266 148.733C40.7564 144.858 41.0311 140.804 42.0351 136.801C43.0391 132.799 44.7527 128.927 47.078 125.407C49.4033 121.887 52.2949 118.787 55.5876 116.285C58.8802 113.783 62.5096 111.927 66.2683 110.824C70.027 109.72 73.8415 109.391 77.4941 109.855C81.1466 110.318 84.5656 111.566 87.5559 113.526Z" fill="#9CA3AF"/>
<path d="M121.5 112.033C118.509 113.993 116.006 116.627 114.134 119.785C112.261 122.943 111.055 126.563 110.585 130.438C110.114 134.313 110.389 138.367 111.393 142.369C112.397 146.371 114.111 150.243 116.436 153.763C118.761 157.283 121.653 160.383 124.946 162.885C128.238 165.388 131.868 167.243 135.626 168.347C139.385 169.45 143.2 169.779 146.852 169.316C150.505 168.852 153.924 167.605 156.914 165.645C159.904 163.685 162.407 161.051 164.28 157.893C166.153 154.735 167.359 151.116 167.829 147.241C168.299 143.366 168.025 139.311 167.021 135.309C166.017 131.307 164.303 127.435 161.978 123.915C159.652 120.395 156.761 117.295 153.468 114.793C150.175 112.291 146.546 110.435 142.787 109.332C139.029 108.228 135.214 107.899 131.562 108.363C127.909 108.826 124.49 110.073 121.5 112.033Z" fill="#9CA3AF"/>
<path d="M24.7031 127.002C38.2807 123.361 29.2869 183.194 18.2395 178.284C6.08751 168.507 2.17346 139.872 24.7031 127.002Z" fill="#9CA3AF"/>
<path d="M181.612 126.255C168.033 122.616 177.028 182.451 188.075 177.542C200.227 167.763 204.141 139.126 181.612 126.255Z" fill="#9CA3AF"/>
<path d="M135.479 81.6991C158.911 77.7411 178.408 91.6677 177.622 117.086C176.851 126.83 126.846 83.1499 135.479 81.6991V81.6991Z" fill="#9CA3AF"/>
<path d="M70.7387 80.9529C47.3051 76.9949 27.8094 90.9245 28.5963 116.34C29.3671 126.084 79.3715 82.4041 70.7387 80.9529Z" fill="#9CA3AF"/>
<path d="M104.397 75.0246C90.412 74.6607 76.9903 85.408 76.9579 91.6417C76.9189 99.216 88.015 106.971 104.492 107.168C121.319 107.289 132.056 100.96 132.11 93.1436C132.172 84.2874 116.807 74.8877 104.397 75.0243L104.397 75.0246Z" fill="#9CA3AF"/>
<path d="M105.251 230.348C117.444 229.815 133.805 234.277 133.837 240.195C134.04 245.942 118.999 258.926 104.442 258.675C89.3667 259.325 74.5839 246.321 74.7774 241.813C74.5518 235.205 93.1342 230.045 105.251 230.348V230.348Z" fill="#9CA3AF"/>
<path d="M60.215 195.274C68.896 205.737 72.8533 224.118 65.6088 229.536C58.7551 233.673 42.1111 231.969 30.2809 214.968C22.3026 200.702 23.3307 186.185 28.9325 181.92C37.3095 176.815 50.2528 183.71 60.2155 195.274H60.215Z" fill="#9CA3AF"/>
<path d="M148.55 191.958C139.157 202.964 133.927 223.037 140.779 229.502C147.33 234.524 164.917 233.822 177.908 215.79C187.341 203.679 184.18 183.453 178.792 178.082C170.788 171.889 159.297 179.815 148.55 191.955L148.55 191.958Z" fill="#9CA3AF"/>
</svg>
