<svg width="582" height="253" viewBox="0 0 582 253" fill="none" xmlns="http://www.w3.org/2000/svg">
<path d="M108.608 223.09C108.608 219.792 110.322 218.75 112.947 218.75H130.348C132.515 218.75 134.098 219.381 134.098 221.733C134.098 224.085 132.515 224.716 130.348 224.716H116.019V231.771H128.586C130.527 231.771 132.063 232.313 132.063 234.617C132.063 236.922 130.527 237.463 128.586 237.463H116.019V245.329H130.711C132.878 245.329 134.462 245.966 134.462 248.318C134.462 250.664 132.878 251.301 130.711 251.301H112.947C110.322 251.301 108.608 250.259 108.608 246.96V223.09Z" fill="#9CA3AF"/>
<path d="M153.623 221.872C153.623 219.657 155.07 218.162 157.332 218.162C159.588 218.162 161.035 219.657 161.035 221.872V245.063H173.417C175.542 245.063 177.262 246.146 177.262 248.183C177.262 250.213 175.542 251.303 173.417 251.303H157.963C155.343 251.303 153.623 250.261 153.623 246.962V221.872Z" fill="#9CA3AF"/>
<path d="M195.656 223.09C195.656 219.792 197.371 218.75 199.996 218.75H217.397C219.564 218.75 221.147 219.381 221.147 221.733C221.147 224.085 219.564 224.716 217.397 224.716H203.068V231.771H215.635C217.575 231.771 219.111 232.313 219.111 234.617C219.111 236.922 217.575 237.463 215.635 237.463H203.068V245.329H217.76C219.927 245.329 221.51 245.966 221.51 248.318C221.51 250.664 219.927 251.301 217.76 251.301H199.996C197.371 251.301 195.656 250.259 195.656 246.96V223.09Z" fill="#9CA3AF"/>
<path d="M255.542 217.983C264.037 217.983 268.692 223.318 268.692 226.48C268.692 228.564 267.561 229.826 265.346 229.826C261.054 229.826 262.322 223.949 255.542 223.949C250.887 223.949 247.047 227.974 247.047 235.024C247.047 240.948 249.392 246.098 255.816 246.098C261.644 246.098 261.507 239.864 265.079 239.864C266.888 239.864 268.692 240.9 268.692 242.71C268.692 247.414 263.001 252.07 255.816 252.07C245.642 252.07 239.629 246.235 239.629 235.024C239.629 225.848 245.059 217.983 255.542 217.983Z" fill="#9CA3AF"/>
<path d="M295.495 224.99H288.489C286.363 224.99 284.649 223.906 284.649 221.87C284.649 219.84 286.363 218.75 288.489 218.75H309.914C312.039 218.75 313.753 219.84 313.753 221.87C313.753 223.906 312.039 224.99 309.914 224.99H302.907V248.181C302.907 250.396 301.46 251.891 299.198 251.891C296.942 251.891 295.495 250.396 295.495 248.181V224.99Z" fill="#9CA3AF"/>
<path d="M339.381 233.217H346.793C349.597 233.217 352.395 232.49 352.395 228.828C352.395 225.351 350.275 224.446 347.019 224.446H339.381V233.217ZM331.97 223.089C331.97 219.79 333.684 218.748 336.31 218.748H348.644C357.461 218.748 359.812 223.589 359.812 227.792C359.812 231.317 357.729 234.8 354.204 235.61V235.705C358.003 236.247 358.681 239.004 358.681 242.303C358.681 246.054 359.675 247.459 359.675 248.989C359.675 250.71 357.913 251.889 356.193 251.889C352.127 251.889 351.811 247.953 351.811 246.643C351.811 240.945 350.77 238.641 346.704 238.641H339.381V248.179C339.381 250.394 337.935 251.889 335.673 251.889C333.417 251.889 331.97 250.394 331.97 248.179V223.089V223.089Z" fill="#9CA3AF"/>
<path d="M394.702 246.1C401.435 246.1 403.744 240.855 403.744 234.621C403.744 228.381 400.762 223.951 394.702 223.951C388.648 223.951 385.659 228.381 385.659 234.621C385.659 240.855 387.743 246.1 394.702 246.1ZM394.702 217.985C405.37 217.985 411.156 225.076 411.156 234.621C411.156 243.796 405.822 252.066 394.702 252.066C383.046 252.066 378.254 244.475 378.254 234.621C378.254 225.076 384.034 217.985 394.702 217.985Z" fill="#9CA3AF"/>
<path d="M430.678 222.505C430.678 219.433 432.172 218.165 435.333 218.165C436.869 218.165 438.226 218.754 439.042 220.106L452.013 241.04H452.103V221.737C452.103 219.338 453.46 218.165 455.674 218.165C457.889 218.165 459.246 219.338 459.246 221.737V247.28C459.246 250.216 457.978 251.889 454.859 251.889C452.507 251.889 451.74 251.389 450.793 249.9L437.911 229.555H437.821V248.316C437.821 250.71 436.464 251.889 434.25 251.889C432.035 251.889 430.678 250.71 430.678 248.316V222.505Z" fill="#9CA3AF"/>
<path d="M480.214 221.872C480.214 219.657 481.661 218.163 483.923 218.163C486.179 218.163 487.626 219.657 487.626 221.872V248.183C487.626 250.398 486.179 251.887 483.923 251.887C481.661 251.887 480.214 250.398 480.214 248.183V221.872Z" fill="#9CA3AF"/>
<path d="M523.602 217.983C532.103 217.983 536.758 223.318 536.758 226.48C536.758 228.564 535.627 229.826 533.412 229.826C529.114 229.826 530.382 223.949 523.602 223.949C518.947 223.949 515.107 227.974 515.107 235.024C515.107 240.948 517.458 246.098 523.876 246.098C529.704 246.098 529.567 239.864 533.139 239.864C534.948 239.864 536.758 240.9 536.758 242.71C536.758 247.414 531.061 252.07 523.876 252.07C513.708 252.07 507.695 246.235 507.695 235.024C507.695 225.848 513.119 217.983 523.602 217.983Z" fill="#9CA3AF"/>
<path d="M572.642 232.45C579.422 233.986 581.137 238.011 581.137 241.809C581.137 247.686 576.707 252.068 567.76 252.068C558.36 252.068 554.157 247.365 554.157 243.84C554.157 242.036 555.467 240.767 557.277 240.767C561.295 240.767 560.259 246.644 567.76 246.644C571.6 246.644 573.725 244.519 573.725 242.351C573.725 241.041 573.094 239.589 570.564 238.957L562.2 236.832C555.467 235.117 554.247 231.408 554.247 227.93C554.247 220.696 560.932 217.981 567.218 217.981C573.005 217.981 579.827 221.238 579.827 225.579C579.827 227.43 578.243 228.514 576.434 228.514C573.005 228.514 573.636 223.679 566.718 223.679C563.283 223.679 561.384 225.263 561.384 227.52C561.384 229.782 564.099 230.509 566.45 231.05L572.642 232.45Z" fill="#9CA3AF"/>
<path d="M18.0455 179.188C18.0455 187.035 25.0046 190.388 32.0768 190.388C37.2202 190.388 44.0423 188.333 44.0423 181.903C44.0423 176.366 36.3213 174.3 23.3258 171.608C12.6461 169.155 2.22835 165.678 2.22835 153.847C2.22835 136.854 16.8847 132.484 31.166 132.484C45.5901 132.484 59.0916 137.366 60.5143 153.716H43.1494C42.6196 146.637 37.2202 144.696 30.66 144.696C26.5405 144.696 20.4863 145.351 20.4863 150.888C20.4863 157.438 30.9219 158.349 41.2146 160.784C51.8825 163.237 62.3121 167.101 62.3121 179.45C62.3121 196.955 46.995 202.611 31.9399 202.611C16.5096 202.611 1.32945 196.83 0.686523 179.188H18.0455Z" fill="#9CA3AF"/>
<path d="M119.012 167.737C119.012 157.062 114.774 146.249 103.07 146.249C91.0985 146.249 87.241 156.936 87.241 167.737C87.241 178.544 91.3426 188.833 103.195 188.833C115.161 188.833 119.012 178.544 119.012 167.737ZM69.6082 137.377L86.985 134.281V142.772H87.241C91.7474 135.561 98.8196 132.483 107.053 132.483C127.894 132.483 137.288 149.339 137.288 168.249C137.288 186.016 127.638 202.61 108.082 202.61C99.9685 202.61 92.6404 199.133 88.1458 192.584H87.878V240.484L69.6082 224.23V137.377Z" fill="#9CA3AF"/>
<path d="M186.804 168.25C183.714 170.959 177.285 171.084 171.624 172.12C165.963 173.139 160.807 175.211 160.807 181.897C160.807 188.589 166.088 190.388 172.017 190.388C186.292 190.388 186.804 179.188 186.804 175.08V168.25ZM144.597 154.746C145.627 137.759 160.938 132.484 175.862 132.484C189.12 132.484 205.08 135.437 205.08 151.388V186.017C205.08 192.061 205.723 198.11 207.39 200.813H188.876C188.227 198.753 187.709 196.556 187.566 194.383C181.792 200.432 173.428 202.611 165.183 202.611C152.449 202.611 142.549 196.312 142.549 182.659C142.793 152.43 187.566 168.637 186.804 153.716C186.804 145.994 181.393 144.696 174.969 144.696C167.891 144.696 163.516 147.542 162.873 154.746H144.597V154.746Z" fill="#9CA3AF"/>
<path d="M215.426 137.38L232.797 134.277V146.638H233.047C236.524 138.267 245.149 132.479 254.275 132.479C255.698 132.479 256.99 132.747 258.276 133.122V150.103C256.597 149.734 253.9 149.466 251.71 149.466C238.202 149.466 233.696 158.987 233.696 170.83V200.809H215.426V137.38Z" fill="#9CA3AF"/>
<path d="M265.333 118.952L283.603 108.931V158.225L306.635 134.277H328.251L303.153 158.743L331.066 200.809H308.939L290.681 171.08L283.603 177.909V200.809H265.333V118.952Z" fill="#9CA3AF"/>
<path d="M342.184 146.501H324.164L336.618 134.277H342.184V129.145C342.184 117.296 349.524 108.931 364.448 108.931C367.657 108.931 371.014 109.318 374.092 109.443V123.09C371.907 122.822 369.585 122.697 367.412 122.697C362.388 122.697 360.453 124.757 360.453 130.294V134.277H373.056V146.501H360.453V200.814H342.184V146.501Z" fill="#9CA3AF"/>
<path d="M440.595 200.811H423.218V191.541H422.831C418.211 199.132 410.228 202.609 402.501 202.609C383.077 202.609 378.189 191.678 378.189 175.209V134.28H396.465V171.85C396.465 182.794 399.555 188.195 408.163 188.195C418.08 188.195 422.319 182.657 422.319 169.153V134.28H440.595V200.811Z" fill="#9CA3AF"/>
<path d="M450.684 134.279H468.049V143.544H468.442C473.067 135.958 481.038 132.481 488.771 132.481C508.196 132.481 513.083 143.419 513.083 159.882V200.811H494.814V163.24C494.814 152.297 491.712 146.89 483.104 146.89C473.198 146.89 468.966 152.428 468.966 165.943V200.811H450.684V134.279Z" fill="#9CA3AF"/>
<path d="M521.672 191.425H519.172C518.41 191.425 517.796 191.038 517.796 190.312C517.796 189.585 518.41 189.192 519.172 189.192H526.821C527.583 189.192 528.196 189.585 528.196 190.312C528.196 191.038 527.583 191.425 526.821 191.425H524.321V199.707C524.321 200.499 523.803 201.035 522.993 201.035C522.19 201.035 521.672 200.499 521.672 199.707V191.425Z" fill="#9CA3AF"/>
<path d="M529.567 190.294C529.567 189.228 530.294 188.984 531.002 188.984H531.782C532.603 188.984 532.99 189.306 533.264 190.199L535.574 197.659H535.61L537.884 190.199C538.158 189.306 538.545 188.984 539.372 188.984H540.11C540.825 188.984 541.551 189.228 541.551 190.294V199.743C541.551 200.404 541.223 201.035 540.372 201.035C539.515 201.035 539.193 200.404 539.193 199.743V192.539H539.158L536.687 200.261C536.509 200.809 536.11 201.035 535.562 201.035C535.008 201.035 534.61 200.809 534.431 200.261L531.96 192.539H531.925V199.743C531.925 200.404 531.603 201.035 530.746 201.035C529.889 201.035 529.567 200.404 529.567 199.743V190.294Z" fill="#9CA3AF"/>
<path d="M368.087 20.0868C368.087 20.0868 369.777 27.2615 364.366 28.2558C360.598 28.9286 354.514 25.1894 351.454 21.4622C347.68 16.8596 348.156 13.2396 351.091 10.0303C355.502 5.15389 363.044 7.04133 363.044 7.04133C363.044 7.04133 349.221 -5.09907 334.815 4.84427C321.986 13.6802 325.671 25.7134 337.238 36.2164C347.68 45.7192 339.351 56.1269 328.832 54.7694C321.629 53.8584 318.688 48.077 320.409 44.5224C321.909 41.4858 327.076 39.6222 327.076 39.6222C327.076 39.6222 321.135 37.2048 314.14 39.8425C307.866 42.2062 302.681 47.4042 303.097 60.402V120.705C303.097 120.705 309.592 112.691 317.212 104.546C325.767 95.3704 329.672 89.1543 338.446 89.8867C355.049 90.9167 367.057 83.5336 375.218 71.7028C390.893 48.9284 378.617 23.4866 368.087 20.0868Z" fill="#9CA3AF"/>
</svg>
